<mxfile host="app.diagrams.net" agent="Mozilla/5.0 (X11; Linux x86_64) AppleWebKit/537.36 (KHTML, like Gecko) Chrome/131.0.0.0 Safari/537.36" version="25.0.1">
  <diagram name="PÃ¡gina-1" id="eCQa8OXWWsBFKrqfOI4V">
    <mxGraphModel dx="1534" dy="1554" grid="0" gridSize="10" guides="1" tooltips="1" connect="1" arrows="1" fold="1" page="0" pageScale="1" pageWidth="827" pageHeight="1169" math="0" shadow="0">
      <root>
        <mxCell id="0" />
        <mxCell id="1" parent="0" />
        <mxCell id="s-xTrpZ6dHBBDTpCUA-W-2" value="&lt;b&gt;&lt;font style=&quot;font-size: 24px;&quot;&gt;Data&lt;/font&gt;&lt;/b&gt;" style="swimlane;fontStyle=0;childLayout=stackLayout;horizontal=1;startSize=30;horizontalStack=0;resizeParent=1;resizeParentMax=0;resizeLast=0;collapsible=1;marginBottom=0;whiteSpace=wrap;html=1;fillColor=#CCE5FF;" vertex="1" parent="1">
          <mxGeometry x="-146" y="-317" width="193" height="90" as="geometry" />
        </mxCell>
        <mxCell id="s-xTrpZ6dHBBDTpCUA-W-3" value="Repository Implementations" style="text;strokeColor=none;fillColor=#99CCFF;align=left;verticalAlign=middle;spacingLeft=4;spacingRight=4;overflow=hidden;points=[[0,0.5],[1,0.5]];portConstraint=eastwest;rotatable=0;whiteSpace=wrap;html=1;" vertex="1" parent="s-xTrpZ6dHBBDTpCUA-W-2">
          <mxGeometry y="30" width="193" height="30" as="geometry" />
        </mxCell>
        <mxCell id="s-xTrpZ6dHBBDTpCUA-W-4" value="Dtos (data class)" style="text;strokeColor=none;fillColor=#99CCFF;align=left;verticalAlign=middle;spacingLeft=4;spacingRight=4;overflow=hidden;points=[[0,0.5],[1,0.5]];portConstraint=eastwest;rotatable=0;whiteSpace=wrap;html=1;" vertex="1" parent="s-xTrpZ6dHBBDTpCUA-W-2">
          <mxGeometry y="60" width="193" height="30" as="geometry" />
        </mxCell>
        <mxCell id="s-xTrpZ6dHBBDTpCUA-W-6" value="&lt;font style=&quot;font-size: 24px;&quot;&gt;&lt;b&gt;Domain&lt;/b&gt;&lt;/font&gt;" style="swimlane;fontStyle=0;childLayout=stackLayout;horizontal=1;startSize=30;horizontalStack=0;resizeParent=1;resizeParentMax=0;resizeLast=0;collapsible=1;marginBottom=0;whiteSpace=wrap;html=1;fillColor=#66B2FF;" vertex="1" parent="1">
          <mxGeometry x="105" y="-317" width="140" height="120" as="geometry" />
        </mxCell>
        <mxCell id="s-xTrpZ6dHBBDTpCUA-W-7" value="&lt;b&gt;model (data class)&lt;/b&gt;" style="text;strokeColor=none;fillColor=#004C99;align=left;verticalAlign=middle;spacingLeft=4;spacingRight=4;overflow=hidden;points=[[0,0.5],[1,0.5]];portConstraint=eastwest;rotatable=0;whiteSpace=wrap;html=1;" vertex="1" parent="s-xTrpZ6dHBBDTpCUA-W-6">
          <mxGeometry y="30" width="140" height="30" as="geometry" />
        </mxCell>
        <mxCell id="s-xTrpZ6dHBBDTpCUA-W-8" value="&lt;b&gt;Repository Interfaces&lt;/b&gt;" style="text;strokeColor=none;fillColor=#004C99;align=left;verticalAlign=middle;spacingLeft=4;spacingRight=4;overflow=hidden;points=[[0,0.5],[1,0.5]];portConstraint=eastwest;rotatable=0;whiteSpace=wrap;html=1;" vertex="1" parent="s-xTrpZ6dHBBDTpCUA-W-6">
          <mxGeometry y="60" width="140" height="30" as="geometry" />
        </mxCell>
        <mxCell id="s-xTrpZ6dHBBDTpCUA-W-9" value="&lt;b&gt;Use cases&lt;/b&gt;" style="text;strokeColor=none;fillColor=#004C99;align=left;verticalAlign=middle;spacingLeft=4;spacingRight=4;overflow=hidden;points=[[0,0.5],[1,0.5]];portConstraint=eastwest;rotatable=0;whiteSpace=wrap;html=1;" vertex="1" parent="s-xTrpZ6dHBBDTpCUA-W-6">
          <mxGeometry y="90" width="140" height="30" as="geometry" />
        </mxCell>
        <mxCell id="s-xTrpZ6dHBBDTpCUA-W-10" value="&lt;font style=&quot;font-size: 24px;&quot;&gt;&lt;b style=&quot;&quot;&gt;Presentation&lt;/b&gt;&lt;/font&gt;" style="swimlane;fontStyle=0;childLayout=stackLayout;horizontal=1;startSize=30;horizontalStack=0;resizeParent=1;resizeParentMax=0;resizeLast=0;collapsible=1;marginBottom=0;whiteSpace=wrap;html=1;fillColor=#99FF99;" vertex="1" parent="1">
          <mxGeometry x="308" y="-319" width="210" height="150" as="geometry" />
        </mxCell>
        <mxCell id="s-xTrpZ6dHBBDTpCUA-W-11" value="&lt;b&gt;MainActivity&lt;/b&gt;" style="text;strokeColor=none;fillColor=#006600;align=left;verticalAlign=middle;spacingLeft=4;spacingRight=4;overflow=hidden;points=[[0,0.5],[1,0.5]];portConstraint=eastwest;rotatable=0;whiteSpace=wrap;html=1;" vertex="1" parent="s-xTrpZ6dHBBDTpCUA-W-10">
          <mxGeometry y="30" width="210" height="30" as="geometry" />
        </mxCell>
        <mxCell id="s-xTrpZ6dHBBDTpCUA-W-12" value="&lt;b&gt;Screens (Jetpack Compose)&lt;/b&gt;" style="text;strokeColor=none;fillColor=#006600;align=left;verticalAlign=middle;spacingLeft=4;spacingRight=4;overflow=hidden;points=[[0,0.5],[1,0.5]];portConstraint=eastwest;rotatable=0;whiteSpace=wrap;html=1;" vertex="1" parent="s-xTrpZ6dHBBDTpCUA-W-10">
          <mxGeometry y="60" width="210" height="30" as="geometry" />
        </mxCell>
        <mxCell id="s-xTrpZ6dHBBDTpCUA-W-13" value="&lt;b&gt;Compose States&lt;/b&gt;" style="text;strokeColor=none;fillColor=#006600;align=left;verticalAlign=middle;spacingLeft=4;spacingRight=4;overflow=hidden;points=[[0,0.5],[1,0.5]];portConstraint=eastwest;rotatable=0;whiteSpace=wrap;html=1;" vertex="1" parent="s-xTrpZ6dHBBDTpCUA-W-10">
          <mxGeometry y="90" width="210" height="30" as="geometry" />
        </mxCell>
        <mxCell id="s-xTrpZ6dHBBDTpCUA-W-18" value="&lt;b&gt;ViewModels&lt;/b&gt;" style="text;strokeColor=none;fillColor=#006600;align=left;verticalAlign=middle;spacingLeft=4;spacingRight=4;overflow=hidden;points=[[0,0.5],[1,0.5]];portConstraint=eastwest;rotatable=0;whiteSpace=wrap;html=1;" vertex="1" parent="s-xTrpZ6dHBBDTpCUA-W-10">
          <mxGeometry y="120" width="210" height="30" as="geometry" />
        </mxCell>
        <mxCell id="s-xTrpZ6dHBBDTpCUA-W-20" value="" style="shape=flexArrow;endArrow=classic;html=1;rounded=0;entryX=0.986;entryY=0.189;entryDx=0;entryDy=0;entryPerimeter=0;fillColor=#FF8000;" edge="1" parent="1" target="s-xTrpZ6dHBBDTpCUA-W-2">
          <mxGeometry width="50" height="50" relative="1" as="geometry">
            <mxPoint x="103" y="-300" as="sourcePoint" />
            <mxPoint x="326" y="-246" as="targetPoint" />
          </mxGeometry>
        </mxCell>
        <mxCell id="s-xTrpZ6dHBBDTpCUA-W-21" value="" style="shape=flexArrow;endArrow=classic;html=1;rounded=0;entryX=0.979;entryY=0.158;entryDx=0;entryDy=0;entryPerimeter=0;fillColor=#FF8000;" edge="1" parent="1" target="s-xTrpZ6dHBBDTpCUA-W-6">
          <mxGeometry width="50" height="50" relative="1" as="geometry">
            <mxPoint x="306" y="-298" as="sourcePoint" />
            <mxPoint x="434" y="-241" as="targetPoint" />
            <Array as="points">
              <mxPoint x="279" y="-298" />
            </Array>
          </mxGeometry>
        </mxCell>
        <mxCell id="s-xTrpZ6dHBBDTpCUA-W-22" value="" style="shape=image;verticalLabelPosition=bottom;labelBackgroundColor=default;verticalAlign=top;aspect=fixed;imageAspect=0;image=data:image/png,iVBORw0KGgoAAAANSUhEUgAAAaoAAAN1CAYAAAAueL8lAAAABHNCSVQICAgIfAhkiAAAABl0RVh0U29mdHdhcmUAZ25vbWUtc2NyZWVuc2hvdO8Dvz4AAAAmdEVYdENyZWF0aW9uIFRpbWUAc+FiIDMwIG5vdiAyMDI0IDE1OjQwOjIyXL4QgwAAIABJREFUeJzsvWmwHMd9J/jLzLr7eBfwAJAiCQLgLUokNbwlWqcty5LD45Py2LI94ZgPjtjxxM5MrP1hYz/N7sx6YyM863N8hDSWLNui5bHlQ7I8ug9SoniTAEnwBIgbeEefdWTmfsjK6urqrOrqfg8kKL8/o4l+XVmZ/7z+xy//mUkGw0hih7ZMp06fxd49u99oNl4X+udU19eLtrNNT5w8g//6W38EAPh3/8svY+/eevn+c+rXf051LaNjx07Asi3s27tame5SaCvrDS19h3Zoh7adLtu3iv/8n379jWZjhy5xuuKKy95oFmoTfaMZ2KEd2qEd2qEdqiKyA/3t0A7t0A7t0KVMOx7VDu3QDu3QDl3StKOodmiHdmiHduiSph1FtUM7tEM7tEOXNFndbv+N5mGHdmiHdmiHdqiUdoIpKkhKCSklhBDgCc++E0pACMknhASgflHPJCSkEGkCnVaCEArOOUAAQggEF9kzmUsJQkAACCkBqXgBAEIJHNsay5eQ0XMJ9Z7uVJm+r8tI2YWEqovKWyiehQQgkXCu+JFSZw6AII4jEBAIIUEJGbWPFJBSgtBRfaRU9RdSgqQ8CCkhOQezLHCeQAKqjQiBECL7mzGmioSEEBJScBBKEYYhHMuBlCotpRScx4iTGJAEhBJACgAEjaCJcDhMf1dVTwRXfENAiLTeEiCUAhAQXLWD6k8CEEAKCc4TWJZqcyGk6jcpAElAWdo8afvrfHXfWLYNQoAojEGI6j/k+kv1HwEhFEkcgRAKkralcUzqDkzHn+PYEEKqMZXrY0poyoOEhIRt2UgSVX/KRkBKfhwLOSkK1HOpxoyUsNj4jhYu1LxwbHs0TonOT4CAYmxApkQpzcrmgmfPSTovSAr2SCLBkwSvHX8Nvu9P8CekhIQAJQyLS4tglML1XAih6tzv90AIHau34CLjUQqJhCcghIBRNlE3y7LG+mrEJwGzLDUW5WgulZFuW0rG+5WnMiJJYjDGIIRQ8oZzEEIQhhFs10Gj2UB7aRmNRhPthTYc1x2XQd/n9M9OUXU2N3HqxAl0NzdBAPCEQyQJEsEzhePYthq0RAkm13XBBUccx7AYA6E0G3BEzSz1HRgpMy18CQFjalJq4WsxK5vgBEroMcpAqFIWSZKoMlJhxRMOSgniJJ1QzIIUAoRSpTRBIKUApWoiUsrSPAhoqhh13nkiRP2PUZYTdEjzoEoBCQk7FdJxEsOybIh0EgkhFY8kVc5SpY2iCJ7vIRwOkSQctmWDAuBSgKUCiNmWmtw50pNTKQGAMQZmMQz6A3i+BwCQXGQKkaTChyc8K59ZDCCq3hISSRTDdhzEcQwAsG0LwzDM6qQVHqUUcRSDUgopJWiqGC3Lguu6o/Ym6ZiRMhOqeqzESaL6EQBSHkWqeMfaltGRUtR9QQlkquQFlMJ2HBtRHIMRxRMhBMxW7Y/UrNF9nCRJNgaRCtE4DNV3RpFwAcYobMsGFxyMMiRJPDYY1HCgOWtJ/U0A9Ad9BJ6PRHAwxtRcsCwwwhDFEVzXRZIkiJM4awNCVR/ovsgLfDVW1bjhPAEkYNlWNg4JCAhRAt5zXTz40ENYaC+Acw7HcUEJQ8yjzGiLoghXXHElmMVgWxaEUGNBG05CSBAKMEJTY5Nm7SWkMkYoZYofwbM2dT13zFBUhplSzHrMyVRD6f4Uyfi4BgWiMAKkBLUYCAgYpUi46jORy1vLDZ4IaGMxjEJwziE4R5SO43AYglICIQHKLBy85hD8VhPNViuTA99P9H274ffs2bN47dVXwQjQ7/QBCFDKYFlMWYaWBcd2YAUWeMLhOA6SJIHjOpmgYpRlg4dSqgZwOgkTnsC2bCVUAeS9pvxMV96KMulVXjQb4Ei9EZUutbioUixaYJK8QtQlpYNZ5QuIVPBozwYAHMeB4GJkgWNk8NH0fUppZt1b1khxJEkC27ZVGVDeoRa2lCqrjxLlGWgBqd7j8FwXIlWadGExfU6yOmrvT7UpywSFEAKWxRDHCSjVAkz1C5ZUnbXlK4UEZSxVHkpRgyhlrbwxmX0sy0Icx2DMAmM0VRwWICXiJIFtW1l7aiUsUo+IQAlPLZTzhoXqR2R9qYUxIUQpas/L+pFz5TFQxlLvSaXR/IzqpMZGEitDJUli2LatjA5CYTGWGQ8SAEvzZpaFKAqztJal6yRhWQw84WAWAyUUUeoVS8gx/vJCMkkNI23ZW5aFJXcJw3AIwQU4FyAkVTaEIOEcluCIkxj9fh+BHyhPJx3bw+EQYRjC9wMMhwNIqYwSxhj6/R5s21bKLzUU4jhGr9eD7/sghMAPfJw7ew7hUHkdVmrkECjjzbYsxEmMMEzAeYKg4WNtbQ2O7YBZFiglGA5DiNRzW1xcRH8wgBAcruuCMWVcARKu62Ew6EMIgTiO4bouhoMhmKWMuSAI0O8PEIUhmq0WNtbX4fk+GKXY2NgAAOXxOC4oUfwh9ZAJIXBdL5sztm1BSmUYr+xagZQAYxStVgutlgfGGGzLRpwkEFwZynESI4mVQaDzicIIzx8+jIRzJEkM1/dx1dVXw282sXu1+tSJNwt9X3hUSRzjmaefhgWC9QvnwVKB4NgOXNfNLCBmMViWlcEOhFAwSmHbthKsjIKm7j9jFJyLkaeRWjaatCBQliPJ0sVxosoHMAxDpTBSpcB5MoJQLEtZoHGUKcU4iVPBYINS5fYrOICPCct+v48kSZAkCaSQ6PX7aDQa6HY68ANfWfJSoNfrIwh8JAlHECjYREMLWiDo9uj3B7AtC2EUqrZzHPR7/UzosVTgCSFgO7YStJQhjEKl8G3lefT7fQz6A0gp4Xpu6iWpshzHRhRG2e+O42AwGML3PTBmIUliBdnYNqIohO/5SHiCfr8Px3EQBIFq4ygGCGAxC2EUgVKCJEngeR56vT7a7RbCYQghBAbDQeoVOyCEII5iWLaVeUpra2sZpEQpA2MsbfswM1gsywIlFP1BH61WG2E4hJQSjUYj5c0FpQRBEGB9fUN5GpRiMByg3Woj4WpMRFEE13FTC1pmisWxHQip4GXf92FpaFeqMaSUulL2zUYTm5ubkJBoNptKaUkJy7bQ6/VU2YzBsR3wVFEwStNxJOE4NjqbHXAh0Go2EcURHNtRcK+U8IMAcRwppZ16FhISjDIMhgMEQZAqfoZeTykZzjkICCxLtWucxLCYhWE4hO8HmXHCEwV5B36QGUPdbheWbYPzJO33KFPmvu9DcAXt/dZv/TZ271pVc4UxBXETpWwZVW175513Yml5CVIohRJGIeIohuu5iKIISZJgZWUF/V4/G8OUMgwGA7iukxqHgGUx9Pt92LYNKVN0QXCEkfIcLdtCt9OF46hxrz1nIQQajQCdTheu52LQH2TeDRdcKU5mQYgEUaSUoPLcIyRJDJ4k8HwfG+vroJSB8wSdTgdJwrGxsY6F9gIs28bi4gKWl5exuroHQnBEUYQ4jhGGIQaDAeI4RhRFCMMQMU+we88+LK4s4cqr9k94928WetN6VC+/9BKQJDj+yiuglMF1HcC2sbS4pCwR21ZClhI4jgspBXzfRxzH6HQ66Ha7WFtbw2AwxKuvvoLAD9DpdECZEkwrKytYXl5Gt9uFlBKBHwCEoNEIlMBxXXiuBxCg2+0iCALYto04TnDmzGksLCyi3W7j+PFjWFpaAqUU3U4Xnu/BYha6vS4Ys2BbFoJGA3GSoNftgVkMnuuBspFwZ0xZ50IINTksCwsLi+A8AecCIp2YlFDESZx5K9pji6IotegpwmEICYkgUMKCMaWAFB5vZxY4ZQw8hQ+VUlVwU5IkcB0FhXqejziOMBgMFF/MQsI5HNvGYDiA47gYDgdwHRdhFCpBkINkLEvBcO12C1EYYTAcwnFsSKEErxZmUkhEcQRKaGYU5D0W3/MzIyKOlfIXXMD13Ky8KIxg2zZsx4H2bgUXCKMIhACO4+LMmdNYWVkB5xycCyCFEoUQmRenFaiG3DrdDqSQ8HwPju1gaWkJjuOCJ4kSlmGooDbGMnirs9mBHwSwLIZut4tGowEhhFKOun1Sb8j13FTAKRi02+1hcXERzVZTWdQSGVTse0rJbW52YDs2HEZhWTbiofK2er0epLTgei4oZQhTr6DX68LzfERhiHA4xGAwQKPZQK/bQ6PZSH1LoN1uo9ftKXjccdAIGkh4ooywRHmiGuKLItUH/X4PAOD7QQap9Xq91DtIsLy0hAtrF9AIlNLXyIHFLFy4cAFxxLG6ZzcG/T463U66VkgASQEiFAxNKYYDrUQjeClUz/kIgrMtGxazsL6+Dikl4iTG+vo6VlZWwKiCYn3fRzgM03nngICgN+jBsR1IKMOr1+tDSoFWqwVCKHo91X+D4QDtdhtCArbjQIgRRGjZFqIwAmUMw3CIRqMBLtQ6I7UYSEwgpEQjaEAQIAgCeJ4HISTa7TYsZqE/6MPzPAwGQ0gpsL6+jldeeQVnz54DAXDZ5Zfh4MGDWF5exnA4RL8/QBxH2Ox20d1cx9kzp/D0Y4/h0HXXob20jMsue/McnwS8yTyqY8eOYf30aZw/ew5BECj8GMpCA5QQ8H0fjuOCMYozZ87g5ImT2OhuYmNjE67t4Morr1ATLIqwvLILWmhtbm5icXERg4GygjzPQ7+vIiKZxWBRBttxUitMKZEojuGmsEUYKe+HMQv9fg+e68F1HUhC0NnYRNBQisF1XQyHQzSbTaXgfB9xkiAchmgvtBFFMWxbYeybmxtot9spLAG4rputm6yvr2N5eRlSiAw3p+m6g+d6iOIYjm2pMhoNJAmH4ImagJSCC4EkSSCSBEIqxTUcDpU3yCgg1ZqSl5YppITv+RgMh5BCwPM8bGxuwLZs+L6fYfzMUhaq53kYpFZpkiQIGgHiOFFwTayUxnAYwnUdOK6DzmYHrueBEoowHCrrOo4hhUR7oQ1GKIZRqNrQVnWI4wicczSbLaxvrIMAaLVaCKMIFlNQjRQSAhKu42aKX0oVMBJFEaSQCl4EMjjOsmwMhwMQpAvwKRznei4E55BpWqVsGQihCKMQrusijiL4vp+OIwYJZaEDam1LlxM0AgwHw8yb5zxBGEZot1roDwagjMJzXWxsbqDZaEFIkXpfLtYurGFpeRmdzgZAJDzPV55f6rUBQJh6NaCAkABP1+oIgCiOEAQBpATiKARlChbUxhFJ144838NwGMJxbABQsF4QKO8oXU/0PR/9QR8shQGzwBApwAgBFyJbC03iJGtrxuhYcIcQKghDramqQAjVzkpxxFGUQaeU0mwtTis2SikaQQDLtlMjhKcBKcrQstM1JUIIbMtShhzRgUepQpMkW7tKs8/WuHQ5TAdk5NfbCkEN+pkKsFAGjsitAScJz4IwoijK4MFOtwsZJ4jiGMPhUCEb6dofJQSWDsRShaixDBWQEUURLMfGs889h263i6uuugo33XQTKAU2NtYxGAwRRRE2NzfBOccwDPED734PmosLb4o1rUteUYVhiPOnz+DJRx/B6uoqut0uFhcWYdt2BnMtLS+DMYonn3wKL730IjY2NnDttdei2WxicXERseBwHaUgAIl2ewFAurbDlOVuOTYoaBqpBKytrYHphU/GIKXC5jWWbzs29DqGXtvReH5+XUmvQei/NamgC54JD42163UnKcVEFBZJ8+Bc5KLxdEAAUWtPUo4mTrbYmwYhFBbvNRQjUniOUgpQMhGRpvmVUFFsNJcvLdSJZMJqlI9ez1DrRiotpaPgkixARI4W3LO1p5S0sE8Snn3Pr9EByIRbtgaWtgdSPgkh6VoBza0djlOxj3QFisKo2C8qSFCt1+j6M6YMAhUpqCPxkEXtiXSd0rYtnQtE6tnqtpiI7JI0FxFYWLRP6yl0RJvuewLQKbO8LIJMFsegob9N6UR5cxnzGS+UZmmkVBBfMV1ZucW8TWWwir6chap4mIWKQU6jeTPeRlEYZd5Ud2NTwfC2jcBXBmSv10OSJOh2uyoASAq88spLWFxcwl133YV+v4dOt4twOEQ4DNHt9bCxsYF33ncfVvbsySJbL0W6ZBVVHMd48GtfQzQcotVqpR0SIGgoOGX37t1YW1vHl770JVBKcecdd6A/6GNhYUFF/DCmrNsgAGwVCdTtdtV6g63WZRqNRoarq8gvK10gV8onL3jz3zVkBowGk1ZKecoLa035QTgmmFNLUZebzzv/rkl45UN9s8X5XFr920hZyCxYQQcf6PwJIZBURyWNrMD8pBxXQpOCK5+fttay34RaWC7yUhRCevLqkOKJ54Z3i9/zfVLkU/NRpDIhVyXITQJLQ3hjZUq1pskYy8KStUKVMAu8PP+EKMhrpEAnFdVEfwAgOnnFTK9SxBkveSMI5v7N0tbQBfkxO0ZaUVECKVJFRcYFuu67opDPPyulac/L+C0Utd3h4TJnYIhCvXQbURAVRJSuG0sp0e900ev3cfLkSVBC0Gw2sbGxAceycP7COexeXsGFjXU8+OCDuPeee3Hrrbfi+eefh5QC/f4Ag8EAnU4Ht7zjHbj60KFtrdN20SWnqHq9Hh762tdhpQJqob0Az/chBMfq6ir6/T6+8IUvIAgC3PL2W2DZFgbDIWzHwfLuFcRhjJDHiKMYi4sL8DwPnudn8ANQGGCphWoSXHoS6Oc6Sk5wMbYXpYrywvT7ad9DUfHMSkXFtx28FD25srTFdDqaD2/i7pnWhiZvpC6ZDIFiPrN6FRd7LmylvmVEcx64THcs5ttkFAG8NZowboFsKxoppsuFzqtISGAwHGLt/HmEgwH6g55ao3RUwIxr23j88Sew0G7j3nvvxdraGrq9LjY2NhCGEaiUeNsdd2Dv5ZfWGtYlo6g6nQ4e/853EIUhPM+D67rwfR9BEGBxYRFf+/rX8NprJ/Ce97wbnCsoz/MDxDLJ4I5Gs4lWqwUwOja5WKUE0nuPKKQgqdk07i1UWe5VlE/HKFMbG98EVFW/vAdJCu2q95NMo7wnSQnd0gRXHoleNxh5H0VPKh/+r8PJt0uwfD8QNcCgmi52O1WVPQ9dLH4zIydVUGqZIKesa47/7eTHNE91JCikRL/fwZnTZ9Dv9WAxhRzxOIFj23jssccQRiE++MEfxvlz5xBFETobG+gO+gCjuPu+H8DS0tLrWqcyesMVlRACTzz8MM6eOg3HdbC4sAhKKZaWl0EJwZe/9CX4foADBw/AcV0EjUCdEgEC1/fRXmjD9V1IopVJit2lfjqRI0vbAPQAyJ0yUTBZyhTVrJQXpmrdYNZ8cpDSJWFWYEJJzUL5+us9PdvBi7Zyi2UU0+p02yVYLoa3POv6x7R658nEb1V/yrHxN763bxp/WrDnjQidj6nsIl9VSofk5u4Y7JqdwHKJTJYcTRsnZc/zbVikCQ9MyJyXxTPDrbOxgdeOvwY7DUrRhws8d/R5SC5w3w+8C6dPngIXHCdOnoTgHNfccD2uu+mtb/j61RuqqJ49chjPPfkU2u0F+J4Hz/fgeR6Wl1fwt3/7OVx11VVYXV2F67qwbQcxT+B4LhYWltBstxGFKkpLQo4UE2FpZ488I02Tg6B6MR0Yn0TzWmr5nfkmTwSoFjCjxeRLR1Ht0IhGm4DngEBLFGbZOuV20FYUq2lNrg7sWBaEYUo7K5Up9eKa4aVA02DyUkWVrVGWy4qx+ua+i1yYPiME6xsbeOHoUURxjMVWG4M0tP+h73wbh64+gKuvvhonT57CYDDAcDhAvz/EO9/7HuzZt3eWqm4rvSGKKooifP2LX1T7YVwvC2q48sor8ek/+zNceeWVuOaaQ2C2jVarhZdfeQX7Dx7A4tJiup6gF6mV56T6Vq896OCANNIqDVDQlA/FLK7hAtOjiIQQGYw3odQMwQ8mmhaVNEn50y8urYWUeYXexBpRRR5lz6sCO4rp8ov+Vf1S5iWYeDBFxM0jaOsEBEx4GunZcno/V9aWNTyqKm+tuC47wQdGR1yN8Zn+XRZkY6qDHsrzKBHN31jfIqdES4IR3ijKFM20dCWKbJqsyZNJYen2yM+5zuYmjj5/FCvLy9jc3EQ47IERim9/+9v46P0fxcsvvQTCGC6cP49hOMStt9+B/YcOviFr7a+7otrY2MBX/uHzaLVasGwLS0tL2LdvH775zW+h2+3gumuvA4fEyu5dCKMIl11+ORrNxliU1wh6SE8bBSZ2XJsEEqU0i5oqnj2m3zFRfvKqckuEWXpgqUmXlAUdbKellxcudfLNR2ZRTE6mMqWdt9B0uVkkXs36zCrU69YJGEU+5gVyXljqdaoyGpvoaZ9RoOigG9+bJ1BhzBAqeT2/zQFI61FQDvlnpt+r+BwbC4boNlNwgkkgGp/RyTFF5XRPTPOUBv1NlM9zEF9+HVoQk3c1GrP56D1ZYEFvXdhu0lshTNsE6oTyM4wHZBUPxq5r6OnN6/q3hCfYuLCGV158CY5rwWY2mGXh4UceRsP1cfsdt+O1115Dv99Ht9tDwmP86E/9dLYf7vWi11VRffPLX8bm+joggZVdK3BdF61mC5/9q7/CD/3QD8H1PdUAlKC9uICg0VBMGqyJolAtblozKSr198iyLgrlogAulllGlyIWXoeKwqlK4E0TfiZvZFbBXQUr1YWZNB5fx7stS2NSHPoE+ItNdcO6pVSn0mvoMNuCkDtLUp/9WDzxvNjOhJBM6APT91zNSqY61SmjTFFl613p8WKE0LH8lKKqmMtvMkWVf28smMngdVchD8C4Z6kNPx7HkFLixZdegE0per0+QIDV3av4k0/8d/zcz/0rvPrqqxgOhtjY3ESn28HP/uIvwnHd6YxvE71uiurvP/tXsCwrW4u67rrr8OlPfxq33HILFhcXYTlqDaq9sIT2Ymti4+w060ErKt0ReUWVF0CCjwu/fGjpdkcfvZ6k10hmCXKosqKBUXBCHYWjhUe+DWdp0wnPYhuEhSmyr05d8lGEKjaHjgnLeXirG2VYFJxVZNoXVWx/YLLOGiocC5LQSoEQdZTFNpKpTpr3yvUqMp52/KEav8SQZlSX0eZ5U9lF3uYNmpq23jYmu0zzrEafsyl33GZIAWS2r7IKMs9/1x4WB0e/28Xjjz6Gyy+7DIOeOj7qOw8+hOuuvy47m3FzcxOdThcf+vCHsLLv9Qljv+iK6uyZs/j2V78KRglWllcgpMD111+P3/nt38GHP/IRdfWA48J2XOy9bB9oqqAIHXVyXmGZSOZ6WisfDcOpDqhafNTPCOqYzISokyFYFgKf9ySKHknRyysTVDqPrQlnlYf6rg/S1PmrQVu/bH1K+ix8KWGuoM+p0WC5iK2JE+QJBc+dukAxGYKu02svQnsQZZs5TUKoKEDywS5a8QvMDudNoyqYzERVgrCOxzkpsEZjPd8uKs34PJgG+dXheZb0Jq9en+wxK9Xpt60opap+nKa8yvI2IT1V+alno5M88ukYo1nUcxUvgosxvqSUeO7IEUSDIaJoCN/zcPbsWWxsbODmm2/GsWPHMBgM0Ov2cPvdd+GaG28s5W276KIqqqcefwxHDz8Lz3PRbDbRbDTR7XVx9OhRXHftdWgvLYBShtW9+9BstpQFTxkACULNV1xoyk+w/PakohcFoEJRVe/sN78jUyE+ugNJSoxNpHkGqYmPaYPUBG2OJra6zyffhnm3f5qlRSmDvgAwu1hxGnwmCpGNZDLfusJOYNxarvueJONpx71nfXSTHN2lleM9H3CRKVFMbtiu249Vwrfs93yfl7U352Kc9xnK118JwWQblORhglLLylGnwoxfUaOfzeOt1KEypbjdcH2VoVO37GmKqi6Nt+8k5KeVFgMZW1svy0sb9/pvSgjWzl/AyZOvAVKmR7ABX/3qV/H+978fr712At1uF4N+HwevuwZ3veu+2rzPQxcN63rx2Wdx9PARNBoBWq0Wdi3vwrOHD+PkiZO4/vrr0VxUJw3vP3g1Gu2mEjCUgtDxhcJpg61eNI8s+cxO+obevLe0FYN7mqVkOo+uSCPho/KiVJ0zl1+3m3VijpT46L3isS4myoTWNi/o6GsU6pRfvo42agd97YWu0zRoeR4ha1on3SrllcssWecVlP67jrLTRk9Vefl2ZPqA2bGy5UVpi3z56haBN+da8dapHDESQt1crT8m0kotO5aKqnMol3avYP+Bq9EPh/ACH1JKvPPed+Jv/uZzuOaaQ2g2G/A8Dy89/wK+8oUvXrT+BS6SR3Xkiadw5JmnVLBEq43LL78cD/z5n+N973kviGNhZe8eSCmxe/cukOxCPn1HFAMwacEpQUHGtL/Ze0oXWisWTLPf9UJyTQt1FpJSpnfPcOQtziJVYclVPOfzK6tDlcWXL9tE+Xf1QbBTrcGc0DcGNOS8nXxafV1H/t18ZN6YNZ6rI8Uk/0Vvqqp+omxT8JSxUwVrqT/L+1Nd3zG6wtyQO0yCR9WHGp9NIxO/SlGNLvScRiLzOGdDBfJl1qFZ5kKZR1hnTm2nR1UHnqsuV/X5rLKgmte8IU1A09VrrYxMJ6ZnxoRUSIKUEgQCIuF4+OGHQdItEa1mC3/5wAO4/6MfxWuvHVfXJfUHuGL/lXjfD39oy7ybaNs9qqcffQJHjxxRN+g6Lm5+61vxyU9+Evff/1FwIvHysVexsnsXVvfuAdMXFqYfpajMHaXvY+IJVydT5Kw0IUX2mZUUlDduTZs+ZVSWVg26yUNqy/LN1ycvoKcpBz249XX3+U/dfHRexXbRZFls7G4f0ztFjLsKZshbvqr983vbxMTet6J3rYvKh6GPQ3zppBfV9TZZ/vrizFlJypEgKyuSEJJCj+MHHo/zJEp4mFRgRS+wzCuUUmYn/4/SIrvZdxppvpVSy9d5+rv5cTNtLhX5rkqjIcbi77oPlCdYLt7q8FJMn++zUV9vh51fvsxRlAfGtw2/qzEmsrFWNPDzh1/n62gxK92bp5QbAFCL4fbbb4flOKAnEhswAAAgAElEQVSMQhLg/o/ej0984uO44i1XoNFooNlq4pWXXsY//t3nttwaJtpWRfXIg9/BkSefAqMWPM/HzTffjP/n//4N/NRP/iQ2upvoRyF++CMfHjvtuyjcTaQnVP5umLySulTJPIDGB/d2DPTtthxNeZgs13msP6Uc6i0om9svt3Y1pWx9tbuZD2EUdHEcV1dgCjFGM6NhkqYfmqtvK55405BdmYdelm/RA6iLInA+MghmQR500FH+b87LPEkzqfYy51uVj4Ig3xxnawLbM0/L81aXq3LBs31UGRxYorA0FDjqd4rb3vEOgBC0Wi3whONjH/sYPv6Jj+OqK69SF9XaFo4fP4Zvfvmftr0O2wb9PfLQd/D800fAHIZ2u4Ubb7wRv/Wb/xU///M/D2JbOH3+HO646870plOanUROyMjKy1MR5gPGgyKK0EldmGGacJt1wNRREkU4qvh9Wrl1083Cb543DaHMswaj4c065U0T0mOQW+ppTUBrFd1XbKdp5b2eNE0B59MB84/D6vc0rDo/tLRd0NTrXV6Vhz/v+7PImrqeax0o3sSHaeybylaKZwSzAyMY0KrYiyqFTOF6ie9992EsLy9i7dx57N23F3/8x3+MD33oQ+nGYHXs0g9/5CO44uqrp9a5Lm2Lonr8kUdx+NEn4DfUVdiHDh3En/zJn+BjP/8xUMZw/PQJ3HHP3ZkrScBy2noSfgHS443keGPlQ5YnB/BoEo57LOOWo0m5mcrPW+7TaNokMA2aefHoaQN+1jy3S5jXEcAj3vS6VL5d1DlkU+tXqJpWtBr+VHlJKO+lvL1M/OZ/0/nWacoyJVEnqi7/PoAtrZdWCUYdBDRv3hoWVfNxvnMN5yu33jysawBM5m/2Sov9sFVFVeedKvh9lvauq6hGf6u0zIBujS0fCAmk8vihb30TnuPAsR00mk088MBncMsttyKKQpw+dRpxEuPDP/7j2H/gQG2+q2jL0N/JEydx+NEnQCwK23Hwlssuwyc//t/xs/d/FJvdDk6cOYXb77472zFPCAFlgLq5uqikdMAExpSU6ZOH//TkoVQLrVwFKcncWxPGbCKt3OrK760IehPOPQsWDeQXuvU1FuXlmbD54jrPNKpW8NXbCtLUKXQz+kX30zQFTuToAyBTJsX1mWl7v0wRYsXfVNBDvUCD4rgDMFHHaSQlJuBIoL4xUZVGiPmV1IgHZT2W9W8Zn2Xjq46xVvYon2e+/esaalXrS/n1r6p5UXfO5A8hmIWmzcuqOlRRmUw18ZjnQcGBFIRS3H3vPVjf3ASHxNr6Gu65514cP34cQki0FxZgWTb+5oG/xIULF2bmz0RbUlT9fh9f+fw/AYxiYWERi4uL+Ov/8df417/0S7Asht5ggNvvulNd/VxQElUkRa4xc/9V0WjyjA/uebwWbYm/jgjHVKoakJbFkCQ8N1H1O+Z88nnpNYN8iDEwqwU3KmsW5Z4Oi9zfo4i/uoeIajaL3tM0/k2P879xLhDHsTE6yvRecdwBs4+hMg9QWfdbmaqzBQ6YKB+mXkaqvuZoMjW+JvtUV3dWFECvd+n1Kt3+ygPbWl2rPPH58iOXWOi8zH1GJHh6DmBZEFJerlKC97z/fTh24jhcz4UQHEtLS7BtC67rw7Ycpaw+85lt4Xju0c85x1998tOwHYYg8MEoxaOPPor7f/ajiHiCE2fO4LY7b5+wvsqsce1a8iSN7hM8O6uszBsq/l0F8xTTzbsGMO03E79lvxUVd506mEhDnvnHhJDsoF5Vnrle2so2Cdqy8ietrtG7eejVVN9iHbUXnC9n/nWJrd0Zlie9F03DiBeD8rBlGR+al7r1KsLNWllWjYE6ZOLBbH2bvdW815sfE/l8y8Z4Ufno9/RncjxtX4BVlbcxixx5PYzeOvxMelBioo55BErTyKPKbSAG8L73vR+dXg/79u3D5ZdfjsOHj2BpaUkdOm7ZiKMEh594ast1m1tR/cNf/TUs14Vt2aCUoNPdwFvfehP64RCh5Lj9nrtgWxYgqVqTykF/qliKEdSnzuDTDaPPWJNE6XyTMjL9bfoUqexZnQ4u5pHxK6SRF1O+xQFQHDh6khfT1KHiZNbRY1v1DqcZAlVUbKMi6bUAQojaI0UJuJSj/s99uJQQGP1tKC0rU3uXprpUQZem36ogokkawVFlVBTUI57L21j/XNygXDWW1e+jvitCf/MbBGVEjOUUyVTPsvlTqfwKMPBMnNZAdor8Ff+eloepnvOUmx+HJqO3jL8y2TiZToWxC4Lsw6VU87A0HwYBCmY7uOzyKzCMEji2iw9+4IP4+8/9LVqNJpYXFkEE8IW/+1sMh4PadTbRXIrqqSefwNr5NXiuiyiKsH//VdhY30AQ+OCco73QHtvAqQInlKIynXIuMvjJsBfqEoHfxgXE9jC13YKiuNdpq9FdeuzXmZTT+DKtvQBmHvPCO08qj/J9SnnSrBa9NX2KQV3SgrI+ycr6zkP5dq/bp0KItJ6TG8QvFgxl2uQ9b1kmr32HLi4pGcyNHpWJ9F1oV1x5Bc6dOwfHcRDHMe6//2ewsbEOx3EQBD4azQY+/t/+cEu8zTyb+v0+vvfgg7BdBstm2HfZXjzwwAO448470Gw20e12sGfPnkywUaY38xYvLRTZ8R5A2kimBXBptkyASc9lGjSR/70IReU9JBONC89ROtNENFk9xQ+lLIuiyiu+ERQ3yVsVf6YNkLOQqR5lu/6nvWfKp07/TStLWeu0ttBS8CfN1ld0EbMo8Dpjoup307ia1TvNh5SPQ3rl40KNscmgodHJGGaYdRZjpJiWFNZ25h2TmqeLua5TSxBXtMVWDcwq9MckP0yyZJoXPq3sIsnCgc95hWVClACAWQwJF3j3e96NkydPpmdjUpw/fx5796obgYUQiIZDfPfBb8/EZ55mHkWf+eSfwrUc+L4PKQWOHn0e737XfeBRjOefex533n03CGO5yggAIru0UOQDJfQu6dypElkHSai4/YoOypOp8fPH3ZtgHNNAmIW0MDAdXVQ2GOI4SSchz+0/mg47TvNoims9s1LZht78d9OEKBPWeehmO0lNoHqTMw95aQOjHjuzRUGWlb2VcVX8uwxmnDVfpbjFWDvkoZ28J12k4u/T+mArY7JOaL8kyODiWalO/06r37xw+LTytjr26pShyVyOzJRWFmBhgAEtZkEKdYCtkMDN77gVieBoLy7gnnvuwbe//S2srq6i1Wqj0Qjwra9+bW6+Z1JUX/rCF5HECShjsG0HN9xwI5qNJq7YfxW6gwHue997IAthnRncJ0dHd+jd0dMor0RMv1eRLquYvkzpTfOoxvMdQSgqQk15RflnZVS1o74uD2VkapJpQr3YlvlQdxOVCTKT11BWdr6e+YFf5Kmsn/OnLNShvLKQclzgmhWJrOzLKgE1fohreT9X8V8sN3+aR95oKd5kPI1Gc6K8Xoq/SX6lnA9KJmQ2wVvGw5uRZlU4JgPFhKqY0Jp5y8hTmYdW9Xt2gDglWF5Zwfn1dcUrIbjl1lvBLAuO48B1XXieh8/86Z/W5jVPtRUV5xxnT56C7/toNFpYWlrEX/zFn+OtN9+Mbr8PJ3Bh+56ycgzuvppqMgt/FFJF9umwc3KpLEaVkO5gSmmGxX7+8/+A//Af/iN+5Vd+Bb/+67+Gf/iHz4MA6aWP5qatUkZFJbEdxlrxOJ/8wC4qJO0hJgmvLN90YoSpXmYvrajgZ6d5JqfmregBV0FMZUXosynNz7YOWeXL1V6QqTwTf0VFPPnOLAo+Dw/WD+qZlucsaYrQ+Fbyfb2puOWjiqYZk9vpudUnafw6+ilVlrn59O53/wA+/8V/RJIk8BsNfOfhh3HgwNWwLAsWs3D6xAmcPXt2Zk5qn0zx8d/+PUgpsbyyC46rdiMvLy0hFhzPHDmMf/mTP5Fdbses0aGaReyVJxw851rq38vSl8EnVdZqkcryn5WShGM46OMHf+iD2NjYgO8H6tI+jA5THQwGWF5exOc+9zksLS2OhcrOgyVvx8nuVW2St/6L5W1H+XpdyVReXd7L4IrXa3IX86oqv265+XRVdSxS3XWVUd40UzRlVFYPfS37drVj/q4qE+nxlk9DKQPnPH0+SjcOS+uLQsVEPZWynZQrdWmyPavlS1Ue09JWQcVlfTQt3zpzv4r0zcKZ90YnvTidn+DK+Xjm8Sdh2zb6/T4cZuHVY8cgpUQUhhgMB9jc2MSv/tp/nFp2nmp5VGdOn0YQNNBoNGFZFg4cOIAnn3gCruui0WjgAx/4wNjJE/mK6YroNSn1d/mp4mPMGSz3i0Wm9ZiRi00BEPz+7/0+7rvvPYAk2Lf3Mniej2aziUYQYPfu3bBtG4sLC+h0NnHvvffiU5/61EwRZnnKHwukWTOFJuuBXcdyMwnDyZPM8zDgSEnV2fBpouLk05s061JV2mme1TzQiInKoJA6aauoDNquz9dkfpO8isp5VOXdJ0kyN29lwTm6P039opVU3rhLkiRVNMjeM9Qi95ksE5htPalsaWC7yHSKySw8zTqm51k60aTjB4oyvJgfMIoCfOvbbsan/uzTCJoN+IGPl196Cddffx08z4PgAo7jIJwxXL2WR/WJ3/l9SCmxa9cuOK6LC2truPXWW5EkCR558nH8+M/8tLpJMtW42XE+hGaV1CHoXHDjHpiqwVDmUZkWXOf1qMbXMUZ5a2z+137t1/HQQ9+F67pYWFgAABw6eBDPPf88br757Th18hQ45zj+2quQQqDX6yGMBvjpn/4Z/Pt//79mPMwyWfJ7jEznzo0gtOrTpE1Woa6jvmeqjlU4r3dVfHerE7+Od13XA3+jaJo1PI9HVXbX1ayW+naQ9saKPIynqe99ApNzdN685vWAturl6rT5G7hNvM0zN6rm/lbmm96jph0RTcxiE/XKFJmQeP7557C52UHguGCU4vCRI2g2Guj1etjc3MS58+fwv/0f/3ttPqZ6VN/7znfhuC78RgNuEODgNdcohgCcOXcWP/VTP6UsNjpyCymhGQyoK6GtJEpoFtGX36g3zTIuUlXoa9niXxUV13Hy8NcrL7+KRx95DFe85S248847sXfvXrRaLSwvr8DzAnz961/H8ePHsXt1N95y+ZW4/C1X4rrrbgClNj71qU/j3Llz2bpVXZ7y3g3nk5CGXrsAyk8+L3PRNc164kGda8unvTstWGPWvF+v9y8mmazloleft+zLPvquq2KemmadEyaqP17GPWGTZ6zGRfn9X0VEpsrDmX1vXPmnrL1nkStV7xVPkcm3R76+xe+m9Fvt0yq0QMrRxnuOyRMsNOXRNJJGYR685hr84+c/j4QnACF45eWXcfDgQXi+B9u2sbKygrXz52vzOdWj+oP/73ew2GrDbzbQajZx6tQpHDp0CM2FNp5+5ml88MM/koWjs7T1GWVj7mJxr9SYZT+H/Bg1ljlCqSx92XNt8RMy+dy2XRw6eB1uv/02rK7uw9raGjzfxZEjh7G2tqZCM0UCy7IhIbG4uIzbbrsNx149huFwAMYYnj/6HA4fPjzX7mwp85FeW/NGtHeovhdxamLE+OuSyerNl1PkY5ZyyvLeCm2nJ1FmSKln1emm0fiG5fHggiIcZvJ4JZSg0aiYEiYUxHAPUfZOYWyoeTxf1J82KIvoh9qjM1ueeW+oyjOSWV3NecxC01CKOmnmHWtmXidvHijzVk356XT5zdnT2iSTPxIgua0bOhbBZAwRQvClf/qf2LW4jIVWC6dOncKFtTU4to1Op4NhGGIw6OLf/Nt/W6strKqHX/7i/0S71QKzLViWhSuvvBLPPPMM/CDA8ePH8YEf/MHRBCipcJnGV3CWAGHjnpdpAJQNyrpjrugtFXfQj043LuZJ8NSTT+Huu++G57lYX19DEHh4/PHH0e93EUd9QCoFEkchCLOwsb6Gb3zjG3jXO9+JM2fPYjAYYM+evXj66Wdw4MB+48kc1byPovOmQW9a4Y5fdzGeV94yHV+7mISK8t/L4Ne81WiamOb+xMTzcV5zhggoJORYgA6gxptMO4yMvaWeMcZUv0p9ogUBpITACC7NN4xMg2Eoo+AJB2MMXAgQAEKOIFJGmYJu0m4U+sBY1bjpnhIJRigSwbN2yU5qSYsUMv1O1L8pq2A02z4IjB0mKwGp1gE4F2CUgQuetr16roMOZDqvdNkCEkmsLFvHthHHMVzPRxQNwQUHBSDl+BwZa2syeaZeXRqNjRHsBYxv0yiDwoqUL7+MlzzSUjVfJg01M5xo+l6kqmfb5e3oMsruEyvyYLpVIM/KLAo7m6Mjm3Y0/wppMqMp4bjvvh/Af/vd38U777kHlm3j6aefxgfe/344rosTJ05ACuDUiZPYe9m+qTxUKqqjh4+g0Wyi4brwXBePPPII7r7rLriui36/D9f3FbOUgJWcmly2XyoTlFNZ3F5SSkpBZppU45oXYv/zf/kv2LWyinPnziFoBAgjFbkSxREos2FpeE6q27bCMAKzbDz62GPYf9VVGABoNJr4oz/8I/yf/9d/motnPSCm3WqaT6MHDKXqHqJJJQOgcL25aeyaBvwoPRlLM8+k1Nb6uPJSa5tB0MQj33scL770slrbFApyVtCzUgYSQBhFoJTCdVxIKZEkHOFwAEoZhEzQbi8g4QkIpYjCCEkcw3FsMMbAmIXBoJ/VJUkSOI4LQtPbfiUQRXFW3yTh8DwX/X4XAIHjOkiSBK7jIkliUMYQhiEgAdu2MoVHibooVKaCNIqU4mCUKsXhulk7CyERRhFcR+XtuA4ggTiOU/4c2Lad8pMgjhMwprZNOI6TtkGCiCfgcQLPc+G5Hggh6Ha7oJQiDEM0WwHuv/8nEA2HMI1/PU7m7VvVZuN9bfLolZ7fnijNvEI1KynzXN9u2k6PPU/1jXPTr2ZjdBYaMyeFHAtNn+CBEjiOA7/RQLKxgfve9S54nof19XUQAvh+gMcf/h72/uiHp5Zbqqgee/i7WFhYgGVZCHwfl11+OQ4fPowDV1+N548+j7vuvQeJFLAoBcG4Ra3hPZ6MBKREyRFHBaulzBqv62qbLKVimpHFbg5/15afbVtYu7CGleVVBEEAKYDHH38cQiSQABzHQ7O5iuWlFZw+/QKiKEISJxgM+rAtCxKA6zgIggDPPvssHMdBFIVG/urAGmWeaf550UMxnb82Ehh1sPbJ34phxlWTZ5p3VXxfpSFwbA9/8AefgOP6EELCbwSgtvKEeBqNRpkNzjkWl3cjHPaRJInylAhBe2kZSL2nOOYQkiEJOSzmwrY9EMrAGEW/3we11Ckrtu3AclRUojp3koEyBq9hqzDphINxDsIIWotLkILAsiwkSQJKKbxAeX3tBQthGCrvgQCWlHAcBzzhSHgCCQHPtsEYze68iuMYtm1n485LEti2gygMQRmFFBILSwsIoxDZAc+QAPFSKEgfVUaRJAk810OQemZJksCyGOIkxtLyIqIwRLPVQDhI8Hu/+3H861/8VwAiIBeKnDdQikc4bSeUVVyLyXvoRV62SnU9pHlpmuyZlerIvDrv5ikvI7bKpxACFjOrEJ33j/zoR/DYw4/g0IEDoJTiy1/5Cm684QbsWtmFU6dO4cUXXqgF6Zcqqse/9wja7SXYlgVmMQyHA7z3fe/FcDDEZqeDdhr5VmQMmFyQy35Lk+SbfJ6mqoIYi4J6GhxV9Ab0RFELhDauv+EGHDxwEI8+9hiuvfZ6PPjQtyAlB02t4aXWbjjUh+cqRSaFimy0bRvNRgP93ObQsiACJfjnw7NnXbfR8KC2POcRPPPCQGX8FCEdxhi+8tVvYnXPKjzfA6UEzWYDjDEEfoDhcAhmMURRlB58GWAwUOuBw+EQlBAMBgP4wWif27DXg2VbEBLwfA+9bg+e76LT6cKyLERhpMJnpQr8UahBD57rgjIGSmmqkAhcx4Pt2BgMBvBcD3ESp54Bg+s6iKMIzLKQJDF4wuF6HpB6gVEYgwvloVmWDaRno4XhMPXwGCzLxnA4gG3b6T1jEpwnCIIGoiiCbavnuq0cx8n28XHOEYYhWq0WeBTDdhxcuHABy8vL6Ha7WF1dxfrmJtqNBk6dOo3XjjNYto04Tsb6wOSZmMZafjyZKG/UTFuzMT3XsOEs4ynPqzY6x4/Rml9AE0IhxCRCkS97Fl630/Mqk3HFZ/nfpqWbrJOSs5xQBUNLmd3MbVKAq7t349nnnsXBgwewtr6OcDjE/v37cfToUTRbLXDO8ch3H8Y77ri9sm5GRRUOh0C6uN5sNmFbNv7+7/4eP/ZjPwbLsfHWt71trCJGxZGD/IyHzV4iNM0beOXll7C5sY4wjHHs2DH4vo9OJ1QLxDLCsROPwbJsRGEC2/IBojyYMAwhpcRgMEC/1wN5HfeEzUJVPBUhuTzVvWbdVN5ImJgxdwKKY8dfxlVX7cfVVx9Av7OJZquFbreLZjOAY1G4nodBvw8QAt+x0Qx8UErR63bBLAtD38PiwgLCKEK71UK314PrOOgPh2gGAcIoQiMI0Osr2C+OY3ieB0CdwuI4DjY3N8EYg23bqbcjIIXAYKiUiu/YWFpawtmzZ7PTSnzfQ0gJWs0mwjAEF0JBrwBczwMP1Pc49cIsxuCmtxBQxtDv9RA0Ghj0Hazs2oXO5iZc18XGxgaWlpcxHA7hui4oIYj1Picp4fs+ev0+XNfF2bNnsWvXrkxhWYyhmf7r+z76wyEWFhcBolCB9bV1+IEz1g95b1kPEdM8L27QraLRHqr6Qn2aIiwrAwAY09GQ09+rOzfVTckM026QrkMXQx7MOy/nJQXDGxAiqtfBGW684QYMh0MQAD/xEz+BF198ERIAJQS2bePwk0/Np6g+98ADaLfbcB01cQ8cOIALFy7AD3w8/L3v4Ud+9CNqQY0QtX8KNL07ahTll79WfJZKlwVT5P/O/2b6W+UzuY+jSNMWSAXnsCwLu3bvBiUOjhx+FstLK4jjCJxHIKBotn3sucxGo8Xw8gub2FwngFCWMeccb7n8cpy/cA4Xzq9BykkYDpg8bdsEgVYrlHHIsMpyza8TZPUsgVaqPKe6k8HUn3khaOwDIrF7dQXXXHMQi0uLCBsBKCHwfR+B7yNMvQrf9wEpQSiF4By248Cy1JC2bRu24yCKInAhlLdiWZCcq42sQiCKYwjO4QcBwjBEP1VajqMgN8uy0oAMFajAkwTMsuC6rlqXcl0kXN1s6rguut0uXMfBcDCA4zggqYejAyxs2874TeIYQkrEUYQoijKLgKaXXYZRhEG/D5EKAsoYet0uhsMhLMbQC0NVVqo04ziGlSrTIFBeZxSGqp2CAI7jwLIVVOqkbeR7Lnbt3oWgEUCIGKbtE9XzV8HHVWmmrxlV0yyKMF/GLLdVz4IsqHRmJbUdiqccHp/edsrDNrdVXRhxVq9Q5UVGR+EVvSoicde99+Dv/uZzuPXtt+Dc+fP4zne/i/e9970ghCCKY3Q6nanlTCgqzjnW1zewe/cu+L4PQgiOvvACbnvHbTh3/jz8RjBe6YrBJ6VU8feQKipQ6vWqYkXNVHTjZ7HCJl388bUpna4UVyYCUZzgXfe9Ey+//CrOnzuDK658CziPcf78WXAew3FtNFoEC22Bf3HbdTh77NsYOjaoH+Daa67F4uIKnj/6LPbtW8Udd9yF4TDKrLsql3s2YTGZbnbjIFdtAyxqomkwTpGnsjxMa2hhOMRdt9+BbreLQbcLISQ8z0PYHwBQ0JbvB4jjELZtZWtTJBl5Q4QIcB6BMgLbppCSwbYZFhbbIAQQgwSOY4FSD45jodVS0KKCE9VakUdUKLA+LcF11XxQpyXocSPUuhGVECKBkBSUEURxmAWxCAm1fplE4ILDTaE6xhgIBWzHAiARBA1YFoXnuZAygR94sBNLKWQI2LYFIRO4ng1mUXieB8tm6fmMCQihsCyCIFB7VXoUsG2KKOKwbYZGw0/rloAQAUIpmg0XnMeVe/FMcJAaG9XWexEOqhoLZRChuqW6fC25jEzeYRUf0+DIaeWVvbddXtM0SE63jWkpo4y3aWUU3xmXmwJ6TZMTCUiA0ckTWwUB2ouLeOHll3Dw6gNwXRdLS0toLyyg0+kovgEcPfIcDl1/bWn5E07xsKsgEgBwHAe7du/Ct7/1LXQ6XcRJgre97W3K6pOp9Y9ch0i9P8LQqFvChSc3zZmEefWgUJrflHfZ4LUsCx/72C9gbW0Nq6urSBK1TnD5W65UwoQATcfH7mAfbrnybbj77XfDZj4O7D+AIAhAKMfq6irOnrmAX/jYz9WCIEpawFhnTXWvvagK4NA0at+Rx6NPhy+WWXVsU4pIZXmOC6x8XUzjgsC2HQRBA47jwPNcOI6jYGhbrUlRShEEfnYys+s6ICmUAACMWWDMgm1biKIYcRyDc44oiqCCESjiOEK/r4Iw+v0+pJQIwyG63S76/R7CMESSqHfDMEK328FgMIAQXMFvVK1LMaa2b3ieB8/z0mu4Vdk6Qs/3fbiuA8dWfHqeB8assXXLbrcLzhMIITEchhl/3W4Xg4HiczgcIgwj9Ho9JEkMITjCUHllw+EQUgJxHCGOYwgh0O8PsmhBzpMUbuVAGvruOBY4T4yWuEo7KfDK1o30XMp/zDdWTy4ZMEZLNu1Ozvv832VCV1+Qmee/jtc0zSiexWDOpy/7FNPUpXLFauahrnwo++TbpdQgLukXLgRuvPFGLCwuwHEc3PL2t+NcejBts9mE4zh48BvfrORtwqP6iz/9U7TbLbiuC8YYmo0mrr32WiRxjIcf+R5+4Rd/Ma1VgcfUWxEz7BB//Wk260YIgUYjQKfTweLCEggRSJIYCwttXH/9+/Hd734H59YSdLrn8dDDn4RjN3HdtTdhGPbRaDQwHCoI6Kr9V6ewDJ9eaAXfJquyDIOvWl8a1a98YVn/XAYnTMu76KXpdQbOBSyLZSe0F/1OFPgAACAASURBVPORUgkt5SGMBJ2KohNZWLYQHFIiPdlArxuM2kl5VSSLqrNtKw12cDNFAQALCy4AiXZb3Uq9uLiU1Vv/a1n5g1Fp5gValopIdF0nTacuJFQ8akWvLnpMEqRRfnZ2NBchIvWWJBhTXpU29Hbt2qUCN1wPUsrs/rfLL38LkiRWUahSZs+1whNCwPOU59dut9L2ZClUqercaDQVlMk5uBBZW5X1ob5mpOrOsrJxZN7zM5muCEnXpTKvfxa4cJyPasFu2sh96dP2M2vqr6LMoZRCCgEBiTvvvBOnj5/A6uoq+v0+HnzoQdx2620q+KfRGHlXJQ07pqgGgwFkumNcW3tnzpzBNddcg0QK+J4PEHWahN6hLKTIjksSXE1gfXmHPnNsVtzTRKZ1m1EDTXoFdTHdKSnAeYLPfvYz+NjHfgm2ZavIL0KwtraOvXsug2378DwPlAGea6Oz2cGu3buxtraGMAzBLAt/9If/L4RMppQ1jVf1bxVkqElDn5N5FK3a8vLy0EUV5FLXWtODWl2DISqgJvWv66rLOcNQQWgq0kopsDQlgNFmbRPENJ7/CGbM/64Ug9pbN1JG43UdXXsiQanM3mOMTdQj/z1/V5lSJPrW3SxFdmrDyEsgWf/pw0s11KK9IUpZptBGnotqB73ZNX/wqV4bHUXvpftbfD9r8+JJEeP1qF7LzdM0xWVqp61QWTHjHnu5B1bkY1pE6zyibBbI8mJQ2dr4ZLpZoD/dphLZZvGKMvbs24e/+9zf4t333acQi15f3Qjf68FiDIxSRFEE13WN748pKioFXM/F0tIibNuGZVl45plncNNNN2H33j14+y1vz5g0nbAw7p5vv2dVxH3zwinPxyz5VHWgftbr9fCbv/mb+OVf/mXsWlmB49ogUJdHuq6FU6dOYXllES+9eBQ33nQTBOfodLvYs2cPfuM3fgOcx1tW1kUPpaqeul6zTDiTIWBaPzKVBdQ/EcDMi5lXIThsW0FodTD/SXiqfN3FVAdzXauPlqpqZxM/xTLL3inj3yQwpuVj4sVE83ohJio7ImnanFOwsABjFqQ0IxCm+VvOtyx9ZxqVGcazkglyr1vuVsqalg8ZO4+1eq7XaWuZWr9SqhNcAEBQCSIAZlnoDfoYDoaQkNi7b5+KerVUkBMAPPXoY3jHXXca8x7TNt/65jfTne1A4AfYu3cvzpw5g5WVFXzjG9/AoUOHypk0YNGqMd5UPnIpObaNz372L3FhbQ2W5YCmx/K0Wm20Wi00ggZ2796DOEqwtr6Os2fP4g//8A9Gx/vMOPi2evleVXkmyK+Y3nSahSldkc/8EU7bwWv5OzO/Mle5Wzn/sKzM18OiLpZTp8y80VF9y7N5Xuc9PEqpcRxMkweEkPT4K/P4A0ZXxeQ90dfZSdkWuhjjQEpZ+yodKUUaiDTvkkR9ElLgtne8A57nQQqJaw4dwpmzZyCFxOLCAlb3rOKJRx8rfX9sJD17+MgoyklKDMMB7rn3LhAKvPDC82CWPq17/Mj34j4pKpGdkK4/ZMY+KU6y4iKq6feyZ6a8ZxkkhBCAqKs7/vzP/wy/8As/D4tZaLVbOHX6FGyb4fSZM9jY3MTp02fw7371V/HlL38Z62vrIFRmHxMPZYuo+mbeOspiKu+F7/mFa1MZeWu+2FZFi01b4Roy2a7NwMUAkSIEabpJt6rPi3XluYOSTe+Pyqvms6qs8XzqtUsRmagqb9Z2rjvuNTxb9dwkCIt1nmccCCGysjnPHWyd62t9S/P4Not6+dfpBxPv8xlT1TKoLN+qoIb8p+ydYttU1U9fIzSNinLE5LmNee9EAESASAFl0hO8/W1vw9r6eXi+A8e18cILL8Dz1NFePOGgFSeUZ9Df2bNn0WgEuQVhCy+88AIOHTyIzuYmGo0AjFLIkivWdfR3vhH0oJjHq7qYnliVC2uCVUbpOQaDHm699e24445/ASmBjY11dDodBEGAdnsBjmNhOIwRDofZWsM8pK3EYjOYfpuVFExXvmlRN0te6Yy3iw4UmN6/+TSzTPZph4mOK8d6d3Hl67CVTZF1YMi6NOrP0eGt28dD9fhT8O5kmXUgnqrAiq1QcY+f/neeMV92o3Adr64Mvp7WNrOO8zyZ5pLKSl/eCuSvcamiKti5Li/181eh6uNrV+Mn8Qgh0FpYwObmJlZX9yBJYpw5cwb33H0PwiiEBGBZDJ1OB61Wa6K8LKe1CxfgeT5arRaazQYCP8Brx49jGA7R6XVx5z33QADQG31Nlcr+zYWU6vtM8p95aHTC8vwCpso7yP9WHGyT1hVHHIcQIkaj4WPv3lU0Ww1ImSAMQ1DtQZH8ml29wTvOX3FAzHctQr5OWkiblFTeW1HH8YicMBu3XqdVp9iOeSVR14K7GMZKXvjNS3X6M9/uxXYotqWmWTZRa4inyMb4toE6PBYVAqncelCcPxcDvtLlb7X7i+0+yxycRREU383nke//YtsVx7hZHunf1br/PPPCpLSKBuQ87TSl1NQIS5EhSkAZxde++nX0en2EwwgLC4uwbAu27agTYFwXg4H5KqRMUXU3NgCiQmtdx1UbLKNQnewc+LjprTehKspx+ypoJoVbXypANIFaZJfZd5L+O04jfuvyPrLYRspAf1cKYvvuZCqSVkwKahltdDXtcZmFhYs4LFLBOt3KvFiKb1aSJes7mHLCw3geedhm/Nk02CfPhynfWeawHi/bTYzRbTkGaCusXQJDZYIuhfFbn/T1MyMjiBKCbq+XnWF5xRVXIInVMWCB78Oybbz0/FFjbpmievHFF9K7dgQkgCAIcPX+qyGlxPqFC/CDwOhtAGkgxUXXIfNfJaFpFmE1j9VSlf+snpAWQqNTrNUzXX3TRkwTjZSd+jLavzRp6eWhvqLFZQpbNvE9KjcPtSnLqgqzL1PkVbh8Ps1oY2kpexOWYxnvs9Is705b/5mn7LI6TxvvxbGh36mrKMzw3+xGQRlCMw8puK/89qKteA7bpSjK0Jo6/NThe5rBNgsV519V30qprnWSwuw9ci5ww003wUk37e9aWcH58+ezjfGtZhOnT5w05p0pqs7GJiiQ3WkzGAywuLgISiheevmVbI9JsbJF7B8oh/lmGRgmiKFOYxWpKIynhVwXhakJ+jKlM/Gd52EWuEvDOiOFNQkV1VEcWsHk62zbdkFg602z5XnkFUEROiuOhbI0+TbQwjXPu+nG0qJQyVdV56X5Gl1DMc57sS/L+qFKeRTfKeaTV7Ij2MocjFLMc6tQZP46juKnSqiVXYcuhECS8LmVaZ1xWaSqtLOiKCrQIymVE8UxOQsVlUqZEB+hIuYgr/yz/PcqKLVqDNeRQSYqtsU0WWL6bVpZNBfTQCjBPffcg5gnEAmH53k4e+4cCNQRYFJK9Dpdcz4AsL6+np1Esby0DEop1tbX4Pt+egSMdVFhvdeT1MbO+pNwnnDr7aBpUTtVVBV+XtwvQfUFgTOSFiBFBcaYNdG+UsrcRt1RyHd+sZXScmh3xO/0NZd5aWse1QievRhjpapaI0/bnKjOWtN4fpPGkendqnxnFXhVpDdEl/FaVY4qq8L6/z6RaW8m2r9/Py6cOw9KKaI4wrFjx+B5HoJGANu21SWhBqIA8PKLL8GxbbRaLYRRCNuycOTwkeyGRidd7CpS3mKQUkJIkYWqmyy7aVo7n2fxN9PfVRZNuZUw21EtGg4rg4qKlrPJw6iaFMW2yVtqdb2BIuXXlIo8mcqvEq5F6G/0uxZqdKydoygay1uTKZoLyCs8XhpJVmbNFfMtkil8ve65iFV5msfDaA1xlhD9Op7+tG5X/cAm5mN+LNWhkadbnU5v1JyHqvZnmcg09jSp46wm56XaB8bS75NG06ztovM1ybIqr3mevMvQhCIVEadifqZ0VXnk+TB5o9ONgnrG/8LSIk6dPq3OzxyGSOI4vfGApGdxxuh0NifeowDQbjTGGAWAwXAI27IRRRH27t0zlQEOOQb3mSbLNKFZRqZGy695FKnYifMMhGmUf79MMdaBGYq8mSAbKWWpF2jKt+pOmuJEm2wfOiGo9N+msvKQMGBaCDcN+BE0Ms1oMJU54r/y1drnzJXRqD3KhcI0XsvOUzQJielG3CjtSKnIdHzwQjrdr/XHuKpveRvpeugDX6s9PcWfyVjIezmmttHKpooUDzwHNSJrj3xUa9WFjqMyps9Pzbtpvs4DI07yIyby/f/Ze/N4S6rq7vu3h6o60z3n3h6gGQQlb0yCUcEBsBkExCHOxCGK8Jo4QRIzPU8MMYaoj2KURyPG5Ek+ahwRUFADjpigBmgC/Ul8MEaNviAQuht6uH3vuWesYe/9/rGr6lTVqTqnzr23B+j97c/59D017L2rTtVee6299lrJ+rPmxGmUOS6vzDJ9avL87LWP+n0BpcRY6DgBhU6vi0ZzTme9FgLNVguMUjjcAicUjzy8e6wuCgB79ugdnOlcO425BlZWViCkgBf4OPEJJ0282FHj8i9iFo1qEtkbWvSAlB1RJNu5WvI0qmgkN8sDlb1P4/Xka0d5L3TZy0n+HlHZOiJFsn1p80uyvjLaADAudMsw6TgdQ6+8+XZ0b4v3F41KhRAZQVW62ni9Wt5vpNRsz95o7Vt2Aaw+PzLXae2KIGsmLdP5J4/Na9tIu0dc5yQTYDI6xeg5S/+2eQOw6VaA0YAo0nD1AvlSlxdfw+j4yZkARufka1R57Z+VvIF0tpzoPSvzzKy2X8sbcEfbp1HmugMp8dBDD2ElzEG1YeNGUELALQbPdwEAC635sfMoACzuW4RTqYBbHLWqthUeffTRGAyGkEph06aN069Qh6Etcdx6cXjalyPtJzJxrEUwJ0mOftLb11ZutnnZEWgy4kR2EaTuFHXKjLKCIxrlF7Ulas94LMk8k5Qq7FSTjNzXSzURAOLfMIoQkr2GMuiOVOTWG61Ty2om+Y8LiRNxjkba2c42c0bOjpEwW/s8WjRwmqwRJwW81tT18zLqEIvNepPrjzry1ThvrKa+A01Z4VNGmz2cYYyi2+vq7L62hUolCkKr0GjU4TgOHnrwwbHzKAAMej2oQEen7vf7qNVq2LCwgLlGHcvLS2FcO03RKKvs97yXvmhEmx1VrGaUkDU7rWZ0P4l8lTg9j1ZGDV9Lu1ajqSZHx3kj2DyzQCS00r+DHqCUMZ1kyxs/dvzeASNtItkp5Qnu0bbxNsxK0dxkts50vfnmkTyUkvGap+nNixZ7Js+f3Kaie6yvSea+d9EpRSP6Wd+/dBnp/8uasPLKHHl4jnvkFl1D1kyX9ylDnlmuzHWUFUTZtmbvU/KZKWvem9a3TLIorBZCGLR4oZntBIEfaJ8HBWzatAmDYU/Xxyhsx0JvpWCOSogAIAQW1/7sBAS246Cz0sEje/aAhI4Us06ERg3L25b9IbIP1Kwdd9YsWLQv7+HMS8G9Xkwqt+zDMK1p00wlWaKXO2vGy/4uZZj0ok/67WdBp4QXOYuO8+32yeKLoiwoNboPkRY86ZL1ceXamzcvM0mQj8yq4xpr0f2aNgc5qZ7se5fW0sYjUyTbMOt7khQkyYHOaiGEpByFshpVkdNO8nqLBHHyvKL+KVle8vjs/Zw2oB+vMy9xZf4gKduHTSo7a07M3pO849fSF5b5fW3bBqVUJ/qUKkxmqueDHcfGoN8bO4cCQL1eB+fa/i2kxL7FfZifn4dlW+j3eqt6SNd6wbOylqgVUY6fw5UDZZbIK3ftJpTy84NlECKK8Ly6xHqM5UfxpnTk9DHp2YmuR69rQ+Hx0y+1aFJ/tPwhmoMqw4F4t6LrGuXZKnd8WdarzWtZunGwmF2gR31Q8QBktWUfaPKEclECXaVUnAeNWxZOfPzjsW/fPti2DSn1+r1OuzN2HgWAfn+AVqsFQggcx4HneoBSsCwbnuetar6FUlbY+eeNPvJGx2XV8qytfNZRgx5xlHN+WE/yRkeTrneWkejILDLuwpvnPh2NupL/T2t7UoON/tZzO+U73Gnl50XKnkRZc07kFZasI3u4Pl932Mn6s2t79P0anZc3j6dNffnu1Mn7WKQFlLnuotF88jonET0XWrNjsYaVLGP09+Q1Ttkys22ZRqTV5ZU/KTP1rPUkmdUEuJ5EfVB6Xu/ATpyt1eIRPZvRHLACIIn+FJUrpUK90UCn0wGUguu66HQ6IERn3bZtG5TlWBB830el4oCAgHGdaXFpaQlOxYHruXBdNyU4yqI7/vxUEkWqdZ5kLnrYsoJmPcxP064vay5bD0bxAiejVPkXL2kGieZCppWdnGCfxfSXPW7kQLA2885amfzszFLGeD6qSdpd0kQY3ccoiWCZhJLZ5zrb7mTm3jzKeJtOM/MSokf42Wcu/Q7PbnIuIu+9IkRH0x6/X2RVCR7LDgizmkveQFqXRwuPW69B2qR2T+o3s9edbN96DsZnEWrR8QBQr9fQaDRgOw6Gg0EsYzjjqNVqCHICEPDFvXvBKAO3LDiOA0IJPN/HvG1DCQnOrTF3YP1ghbliZnB5zaYCz7vQSdrQpPOm1b0exyo1PT2GPr/8wxAFfs3vMJLOA+UFCCGzpSnI63RmeaijjqZM6ofpnWjymHQKj+yzk42wXaQ9Z8ufmm48sSsv2v+kxym6D0qp+DdYbWeeJ0CKyhodO5uzQ7r87DrA8XOmHZN8z2dpR14/kDdA1p1zcbtGg4P8FB9RGcnzJl1fsUWmONngrAIh+3znvaNlz4++Z8soU9bEd2KKMAxLSPSB+VBK0JxrIggCWKG1wfM8WJaFAVx4ros8r1S6f/9+WJaFdnsZvu/D930s7tsHGrocN5vjuUHKXlzmckoel88sYY8OFNOEkP59Zrfb542cs7d11s5u9oW0q3uxou+zRxwoalfyk/bq0vWO5pVW59xzYG38yfLXIwL4auovS94gYq23Jrk0I1325PPy2j3pd8ruGpmhonm22UKlPZY4gI93Ackfb3LlhBA0m81YQAkh0O124fs+GGNhlAro6acEtL28DEIJarVabCNcbi/HK92jeaaosyCrFDjJGHNlNaLkccmXvoxpYz3Im4eZNK80q6aXX2e6/vWm6DqS28vMi0Qmy+Roqnwb0v9PIiqeMR4er+Lt2biFhvJEg4s8rS39Pb1h2nq5Sdrqah/nvGe2yFqQtDxk+4y85/5AMasVJ6sRruXdzwt3d7iglIJlWej1epBSwrJ09KN6vQ7LsjAcDgECdLvp4LR80O+h4lTgOA4Qqm39fh+BCMA4B6M0TE8fXvxMPwDNna/I+xHKzA+VrzffbDArqzk3WW+ZOYnxOovNEdH8x6zNSpq7ikyrZa81rS2Ma1aYkFU2eU+yv1GeGSp5//SIazR5HzV37Lx1lu3rXd56omY0M0doV2hZOL8R/Y7jQouC0uRcG0m51EcacJ5GOUv8w0ytY+bdaaa1Wc1uk6YbVsuB1NqnIUQw0dqwHn1jurz0tNAkCCGYn5/HXL0OGrrkCyHhujoqBbU4KGfodrvYsHFDfB49atPR6HQ7UErBcZxwNT6DbdtQSsLzvVgdA9ZqwDu8Wc/1VEm341kpakPSRbrsOQeS/AHH5IjdRZEEsg94Nmp9FBkjMgsa0szS6UzTirRAyhNgo/h52jyd/o0iAcYYBee8UABks3Un17ONt2W8fYdSCBRRdu44+r+s52JRXatxjFh9fdlyaO480uj4KYMIAvR6Pax0VtDr9+H7PpRS8AMfUkpIIeG6w9R5dHlpPyxuAYCOnG5ZsC0bIhAACCqVatoENlOj8k0zRWr3Wh7ArMkqr47p5qxib7UiM1m23OTDuNYXKmsCKF7kGcW/y+/8k/MmqzH9Za9vmsPJpECgk85L1pEdgRNCxsIZHclmv+x86SzP2vTbNnnxfFRG9hlPRvPQXoN5jgh6AXdyH+dswtyWyn1my5AUBkXP+nqY2sqSvKdJR4/k/FqZUGRR+K0irSkvcWTk5FLUrknXn30XpUw7kmRNqZN+HykVGvUGlFRotVqIXPIdxwGjTF+bFGi326nzuBRiJMmkVsGGrrYTMsZibSvVsEz04+xDPYtJqajjyTNLZE1F2XOTD95q1PnVCJeiF3o9iK4j690WkbXFJ00w087P3qekeRCInBXy21T0fdr9K+OFNel79kU4GJ1LszUHBW3mimAEACFQAIhSCBdhQAQSjEdrDkkqorlI5OOqVCxIqbCy0gWhFCTHg6zo2lLPfHI+c0rfPev7oJ+r9O+12pF8uh2IAx9H5USaWNl26RH9+PYsyTKLyi4akK2GPCtB9t1LPrtKpQV+0kN0Uv8XeZZmyx4J5vFrnlRets3p8vKuiyJt7kubkpVSOrBaTp2UEtSqVSztW8Rg0IPnDfVx0J7nAIFtVdDv91Pn8UAKVKtVWNyCYzuwbVtn+BRSB8IMguKHM5oUz8xVJG9CXmOTN6XMC5ksr2h/clveHE9eObPOe00TGOtB0s07qjMZgTpvYJAlec+LHupsu3WU75FGyVh6jihvkJAeESJXsI23bfWmu6zASpapt6+u3GT5+j5I7NyxC5dedhl27tqJQAi9DIPoIVqu1hy9oFKmGpKnARDoObeXX3ghPvShD8Id9NdNO4xGztl6x4X/eDbe7LNXRjBlBw15Ws/4u5t+Dsa/TxqIkFCjmNAvZdp3MAY0eYzew+IB9ujdmX6fk9ps8v/RMQCgZl4ekFcHkG/BiQYwyTqyGReyx2evt1av62SJ1Rocx4GUEr7vx2VYloV6rZYqh0PpvC7csjAYDlCpVmBxDm5xDPoDVCqV8cojCRXdsAkT6IcDRR3crGUcDEtT1ulh1vhoyQ4IiOaMZK6HV/o8OfZAFScyTHcueZFLssdE+7Pb1oP1Kityj730LZdi+/Z/A7c4HKcCB4hHidlOIP1iF8Rry2xjnMOpVHD7bbfhCU84CXfefhs2lspQkA8hBDL8/aK5vWmdczIa/uh3zPu9p+c3i47DhODE422e/L0IpRR835/JSWm9n7dZiJ73on1ApI1k96WfsVkcsw6kSVwLs2zMzfx7nP8+AIRR+L6P/Uv7sWHDBti2A8YZBsMBoAikUmCZUS91XQ9BIDAcDlCtVCGldqBwXTc+eJLWM20UMJ6uYVwzKnNjs3bQSWVm92Xtp8nvSfNDmTYU1bGeFN3XvO1JG3tybmeaSS4bwaDod4k2J3cnhV90bvb8SIsbzwycf22M8dJRP4pC66wVAoLLLv0dfP+eH0ASwAsCBEIgEAIiNI0DmXkTKeOPnggWqY+KFsYnPtG9dz0PzWYT5zz7HHDOwFYZbzJvYJNtZ/K5j5yGsibjgtJLrcnTYajG3/XVvBuTzksK1PHryp+XTmpqB+K5GbUtr/xiK5P+RKlPJgfBXa1j1lop+i2SbU1uy/6d/T0YCVPW+AGOOuoo9Ho9MEbh2NqRD+HvGwwz66g83wOBvlmBCGKTHxCOHrG6l2ekFsrCm593/FrqWk250Q0v8yCs5qWb7brKjpjS4Vui//PCIBWN1CaZR6Pykp1ZcvfIS6tYuKdH2qMXuEgz1S616Qc9G8F7dH8UDoQGv+vhXdi+fTs83wcUTX2URCyQipi0L3VcRpA0m00897nPg5DF0Q4mlpeJD5ftMLIdYN7vtlYvtOg9n3TMLOXnaabZgVVRx14kvKLnuUw7Jg3Op5WfJHI80OWVG5CPBocjk+zBMF9mBX/Rb1A0MM3+PsVCjsLzXCwtLWutS4ZzWlKh4jiQYZ62VPkWtwACOI4Dy7KxcdNGrKx0sHv3btx///1rvvhJz8Shsh2nmfzgHkg1eryufDNBtg1BEIwdQ8P1bhHalTs/6+laOgxdV5kXPRoFqjFX/TL1Z93TdUeYHztyvbjsst9e9zLLIKXEfz/432i1mqCrSGqYdG7KExjT3rNooFY0ci6jwU7XumZb+jHp0GRnPouGlBRuReVm6y9z7WWuK9Kepp2fNfFl34Oisg8GUdLGovryBrt5UE5RrVahlITneahUK6CEQEgJ1/X0mkmeVpC4CHyocHLsttv+BZs2bYLjOLhz211why6efsZpEIEC44lRGtKqd1lNKav6TkopXmYElpx7yv6dNyGbv2/SGo7yMfOK5i3KdBLptuXVk9Ze8h7c6NyovLx05JPas76DBgJgZHfPyw48jewI7UCHI2rU63jg/vv1wncQgET3W41pShO1qgKTa+r5kDLleRIooNaYwz0/+E884fEnTNVMkkTzU9FoPesMUeYdTZabPFapkVmvTBlF7Uy2ZdpcaUSeyTj6P+klmBexpqjDHLl1F83FjfZF18xYsVPJtOtIOkJlryNZRvKaonclGjgUOVkk+7JJv/Fafrfsdn1PaO48aNG9z2Ou3kC708EJ88eBMArbssEtHqak53oNXuY3olJK7N27D/fddx+2bDkGzWYT862FUch1wlLSTSkZvhizX3BWTc4KqXw7c9GEftGcyvj21bQ12r7WDnKt2lqRqSZbTpFJrwxRh5SXUDGvrhIlJn7nyZPxhwuEEHi+N2aWK2vOS5aTN0iaBmMM9/38vpk1qqS5Jrs97+8y5UXogY9Mbc8VlAXPS6SNFA0o884rMzhdTcqXaefm7Uv2M2UGztnfIU/ICCHHTNrZuid5ACb7uTzzfdp0N+78M63t2b4ke03596n8M6aUNvNZloVWawGVivb8E4EA40x7nztOajkHAPDFxf3YvHkzbNsKw+pTBEGQSuKmRxrFFWe/Jx+MrPCYdNPyH4bItjteRpEwnNS+tVCkpU2qJwgELItPsNfO3qllydcmx9NtaIE0fj4h6bUsWaE3yTRRhrwOIOviWobsCPVAmY5X+5uU6cyK6vKDAMccvaUwkn5ufeFrQZAOTZV3X0drXcafgSJtoexAKuoUs4dPS3A4/q4CeVaAab9H0fMUDYTXwzSW17ZsuyIBlHX2yJ6TtHxM7g9H97SMJprdbtG3JAAAIABJREFUP4ogUhwqK6ntptuYXisVbU+WlY5QX37wIJXELbfcgq9+9avgFtfLo2wLJ598MgIRQEiJIEjP1/ItW7YAGLnmAtp9lhCdn8rzvDAV+Pi8SNkUH2vncJjLWh363uV3ENPIPvizoMPb8NQq8qh+pSab1qLjognNpH19NbEL87dTALNpK5EnYWTmLGtGKsNgOMSxxx6LzkrnkDxtvu/jmac9A4NeP+UcMRUC7c6binQwft+naeW5RZcUmEUBo6M/i5+Byd/Lti1pDcgeU5akm35RW6fdj+jc6BnNW1oy2zVG/68uXFLeOVoopds6/qzoKZE8onPT11fchrzfQAqBeqOOJm2CWxZazSZq1Rr+/d+/jz279+AXf/GJY/VTyvSEu+5QQzNC2NjAD0AmdAZZO+K4VC5WIWdhmho86dj1GE3l1VukIY0TvUyz1xPZrINAlLp/WfNMNtRJ9riy9c/agZQ5Rrdt9nA4WkCtvzOFFBKXX345CE13gGSGVCLpDqlcRH2lFCghWFhYgB8IyFVkmk6O0IH8wcSkQU9SwCXbX/Q+J7cly8gb0a+HW3U0gT/pfiY3jdpR/hlZy3gn27boGS06dlayZtysJpTfz+Z74SUHnfqcSPjQnOvI13jXav2hjEEpgBEOzizYtg3GORr1Oo47/jjs3bcXfsb0RwFtL1RKL7JSClCQUBBQSsL3XUSd7cTRhAIoCKge4oEoFH6i47IfogBIFZ+f93dyW/Yz7djs/qJ2TGtbtsxJ1ztt37TziQIsxkodV/bDyPTfaLWfWcqlAJSQpdtc5thVv0BQePGLX4xupwuafWEpHftMex/KVarfuUGvi7u23QF30J9+ToJZrjsSGJPWC6Y7sPyOLtH0sYFRkmh+JGvCKag5M19VPNdTdoCYnNstmhdLBsfNCpfksdOmMOL5zBwTWnSfkvvKzAXl1ZG9vsn7is19I01X79eWiux6vzzhPXlebKyegjlIQgiIUhAQAHSgaRpa8GzLQaPRQKPeSJ1HgUTDKYFlcSBsrGXbuTficOTR0EbDOLOMMA/k/CMADPoD3H///Vjcv39dyy2CMYalpSV857u3YjAcjC2YXQ2T5iOA8qbbSW7IwGQLQWQeIiSdNyrq+LNOFFEU9qQJL1oTGG0rJ5zyto02TnP1znb+o9Bl+cdqx4hpjk5TGj12fJ62uFoLQnkLTGRWj77r3296DSJc8zTtecmr17YsfQ4hIKFHIaLnJvM7UYtbiMLn+L4OTjt0XT0akBKc0ZnV4tlMY+vDan5MI9wMSQgl6HQ62LlzJ84/7zzs27cPSqncaBOUMTDOQRnL1bjyPslzFhcXcfTmo/Dwrodw1OajVzUPUcR6lLNazzq9Lf/YKJ9Ynsu2UqP1dtrpIx0Squz9SQrDbH9AM2bdaF5vWrlFXniTTNB52lJev5gUFpHrd3JfVM6s/eloHpeNtSFqd7Zd0e9Stv+O7mE2GPa0c6Ipo0AI7agXtYsQMKo9/7LPHw8CEc+DUELgeR6U0lHUXc9FIPRqfMJy1LvwYchbUV+m0UWjv8MNI9COHAglGPa7+NAHr8KHPngVFhcX8aMf/Ug/qyCppRqUUhBmgSVC4OgydIJB/eInTUsMtmVhy9GbMddowQ98rKx0Dsk7EHWMkYmMMZbr0RkdVzy5Pur49fe8KPz6/GlR0vNMXXkLkZNCKzl3GWlxwOoTNSbLLmtijM6ZdJ/K1CelGBPi46bE4vLzTIAqJzJ/srz8dhQvAI/QAwK9fk8Lv7TXZVIgpc+TOhJFaJ4EtDOQSgwsKKWgJLPgN3qACJGg3IJlWdizZw86nS6UUOCMaVf1CR5aqx0NHm5CKis4jYA6skj+9lH0j1arha1btxaeo0Bz5zAU0kkuI0EmpQQFgeu5IAAYobkpOtb67JV7J6NF4sWBjyctko2uJ/vOyFSnM8oCnPSsW+0gNW+uKOsgUPbe5R1XlCEh//xRHrjsfZrWhqyAj7RHSpNCv9yC3ui8PCaZy7XJb1wgFQn55PHa+U4LQS208tfz5bVHqnCZC9FJenXGAS2wonqy9XPP8+D7AaQUsCwbzzjtNOzatQtP/tUnQwrg7u//m/7xCm6EVBIEZDaXWoPhUUSZTnV81D+hnGhO+CDkHYgEQ/bvrLPCpDYXuW5nzWv6bzV2bHbpw3paUpJrhfLaOCuznD+6ltF90tvLpUhJMjK9jT8ReWuaIspoP6NyonslU8JwvC35z0ySUU6xKKhuJLDSg5bcOTeqtUchxEhuKB3vs2hejQ9cF9IP8JSnPgUVpwICLTW73S7mWwvwPS9U4QrU9VUkpz+QmsqkieQybTFa1GODZGcBjJtQJlE0msyvRxZ08Jm6El5yiLQrNXpJDxRR9bN0aFmkVGFW3uz8CTLfx7Wb/DaRxP1J78u2b1JalVF5xR1qEQfyPZ/FdAhk54TyTH3F5SQFf1F92fZM13pGdSdz2SXrGA14gOTgRAvBUKtR48JK/62f/eFQJ+h1K1W4nqu1cSG1KTDTJupYNjYfdRR8z4cKfeQZY3AqFW17TESoMBge7dBM5Pn1eLaT5aylzNQ81wQzymrKZ4xOdE0fL3/UDu0EIeJrK+4QgahTndbEaE4pvW10zZG2FpnWsscl21pkElst2qSp70FU94GappgkPGb9ncvM/dHMfGpWiCWFXnJx/aTrT84tJbflRUhRSsW+EFJIeJ6PvXv3YMeOHeh0OvA8H77npwJsAwB3PQ/znMOybXCmE8U1Gg1UqxX0ur1EQ4ywMjx6iTtAVexGW2iqKHjp1gIlFGLCRPc0ZjWfJU1T048FCBkfCUedV/Fi1qSASpuBVkteu8s6OaylzmgOZjVRYWads1+rKbSstx0wCiuV/B2LHDY45wiCIBZU2evKywg92ifHIqBHdVEAp5xyCs44/XR4gYcHHrgfz372uVBK4otfuBFzzSZo5pr4htY86vWanuwMR05Saq8/y7bheW7mATz8WU8buOHRRd5EtFIKNDJdJUxuMuoECYB49EjGnBukUqBFZjOCWDVIGmlGgjHRCdDRcZ4IxiNQJzNnk7igdEeipo9uozmb1TIpVl3kYl4U4SKpEc5K8vyyXnvZ3zv6ey3ogcnkQUSRMIocC4Dy6XCSnX0UhWYWAZmM8zhefl5MxXLJMJOCOu9ak4vIsy7qhBDt3Zcz4CGQYJxgZWUZrYUmNm3aACkF9uzeg6c//Wno9fro9XqpuuhgOIw36goZfM9HxanAtuzJF3OYR8Q+kJTxcDEceiLzUd5kdDYSQVHnU9RpRqaR5GeayS4qZ7SGJxoEptuSTDg6y7Xq/0ufUVhO8n4krw048ClXsu0oy3qacos0a2C0Vms0IEg7ppQJO6ZUdH3pepPrksoy7fiyz2f2nGkL0ONB4IT684SkgoLv+6jX6wCApaVlVCtV2LYNQik8z4v3RXDOWRw+g3MdmNbzPXS7XdSq9TG79Hp0zus18slj1onMtdZjOLxIaShFNvuxzelMyNn9kdkv9eQTgEUvaOr4zHxK4uuoA1RREfH/KmVa1Hb8WUJCkcT8UN415KGULAjsW1TO5ELXEsIqVUfKfDilXJW+l+uGUukyE/VEv024PDZetKq/6txxNFyjVtQugvC6Er8bUVoDH3vW1pMJbRo7VISOQhPuv4K+HzIsN/oo5As6Qgj6vQFcVwc77/d72Lt3D1zPBeMMgR9AKr2gPgnVC3x1S4QQGA6HqFQqaLaayI7yDIZHLSrxyds3AZrXcRSVp4r3xRpbYj9J7EuWsaq3bdI15lA4l1L22iZc66pRCcvnepa7jhCkB0E0rRZph50SAiEuI3Gduc/aoWSaUwwwJpDJ2B+ZIpXC4x53PACg0Wjg6KO3pOaBKaFwXTd1Dp+rN3SKD8bBGAtVVy3NWCzVtIyMXAvXi7LCz2gvhscKZsD32Mf0V+Ecl5BjWpVSOhlpt9uFAkEQSHBuQUoVz8+BYCxhKRVKodVq6cVX8QS0RLvdDkN68MyNNz+CwWAwGCaT5/WnB2oUjlOFlAqWZWEwGMRKEiHAYDAEt9P+EXTv3t16DVU4eSaFRL/fR7VShVI6oZttT3aqMBgMBoMhyUTNMjTxRnNVvudBSol+f4B6rQaZXUc131qAkCIODKgANJtNSKVgWxwW5wgCP+UxUkazPeWpp67pIg0Gg8Fw+PJ/7/l+7napJBhhOh9Vxp8iEl6BEAiEAKV6TaHt6HW8lBFwcCBr+ov+ECKAUgqOY8N1XQgRoN/vxYUXeepJpQMKZt10DQaDwWBIQggB5RT79u0BYwR+4GPoDvVyDChwxtFZ6SC7io2S0EnCtm0opdDr9cE5RyUMoRStExhNAmcWAFKWm8nRYDAYDEcekxyGtNerdqZAqBi1221QqsMq2Y6Daq2GWrWaOo8SxhL5QQDHcaCUQuAHOh5TZqGkcVoyGAwGQxFTHewVgRAC7XYbhADzCy2IQIAxBs/zdfSTzBwVVUrPahGMEl0RQmA7NgaDQUqIjVeI+HiDwWAwGKZCAMviaLVaWouy7Dj4ucU53KELz/NTp/AoKgVlFJ7rwbJ0IEIRCJ1QMXQZHAmrRMiQx6h8CoIArjuA5/sAdGZXx3HgONWpYUUmMRj0x7IhV5wKOLfW2GKDwXAo8H0fvX53LEQX5xbqtXq8JnVWPM8r5W29tLwY/70wv3FVdR1MosgsruuiWqticf8ASumQYixyprAsCJERVBa34pXRtVoNUkr0ej30+30sLCwckosBtGBsryzFArLVXCgVe2q5vR/zrQ2paMHtlaX4mOS+LEHgo9vtxMFBLctGoz4H1x3CdYcYukNQQtFszs+sRXY67ZSQihxUOr73qHjADAbDiGy/kiUIfLRXlkEIxXxrtn7U8z30+h3YdnG/kBRQyW3Vag0Vp5pzxuEFJQzDwRBbjt6C++69L94eBAKB74OxRvp43/PAOIOQAkEQQCkd3r1arWpNSqpS7ujJQJbrYQpcbu/HXKOFhfmNaDUXJj4UyXOytFeW0GouYGF+I+bmWrnHRLiuC8oY5lsbAAD1mr5ZjlNBszmPhfkNkEoiCPzCMvJYWWkjEAFq1ToqlSrmWxtAKY3rMRgMjx5cd1iqPwJ0PMU8oVKE53no9TqrbRoGg/6qzz1YUGrBsmwAFO12GwqAFBJKSR03kVKQTEp5Sple5EsIjaNT1Go12KGbOuNspqi764XjVOIQTlqTGtUtRDCWWGsw6I+NJIQIQAmNNTHOOADkRtKOSMbtytaxGlvnykobQgYzn2cwGA5P/BkHqsAoD9QkPM9Fr99Bo9FcTbMeVSilI6gzbqFWrSOSQ77no9/vQwTpPpNSoiPdikBHrfVcF5RS7N+/X3sASlXo6Xcg10vVqqMw77qeUV2D4QCePwpaKKWE6w1RrdZSZQghxsyFlIxnDI2JAyAT2JYd2p7Xdo1JIdXrdzEY9LG0vAgpZxtpGQyGw4NGfW6muadarTF12sL3PfT6XdTrc7Ae43PWSkkEgQfHsUEpQKiOikSZ/tTrdYhMv0sp1bH8CKWglMXrqWzLBiE0nK8pklQjYXUgYv4OBn2020tYbu9Hc24+3t6oz6FaGQmllU47tT9uXqGMKUj/QEi8p1ZvgBCCdnsJnueNHWcwGI5cWiXnqS3LhmM7E4/xfA/d0NzHVul88WjC8z0QSuB5Lmybo91exmAwCCOnE1DG4Djpe0Yti0MIAQLAse1wwp9ARf8mLeYlidxSByBYbbVaQ6u1gFqtgU63nXuM6w7BOc8fscwoTxhjcdReAoLmXAuVShW9fgeuO0wcx2cr2GAwPOZoNSc7SVDK0KjPTTxmrXNSj0Ysy0K/P4jX7FqWBcZYmOpDwfO8sTQf1Pd83UGHWReh9LwKAEgh4FQqkOHcVRZFCCQB5AFWMBzbgVJAIMbnevqDHqSUWOm0sdLR7V7ptOH7nk5elhGgCqpw1bLFtaBOzmFVKlXMNVroD/r6/sBoVAaDQfcDcxPmk1rNcStPEj/07jvSkIFAtaoz+vq+D0ppGD2dwbItQCnUa+kMv9T1PTiOA855vOB3fn4ezWYT3LLg+x6sgxw9XRZ4ylAyrjUtzG9Ec64VfwCgOdeCZdngnI85RCilCtVrGpo/oxiHEZxzAArd3krK5GgwGI5sOLdQrdbHtremuKT7CXPfkQjnDJ1OB81mE57vwR26GA4G8MNEvr1Bug+mjlOBEAJBIKCkAg/Vsm6nG7qrq4lecnms1QGBEgpKKNory/B8DyudZW2/DM17KyvL6PW6U8shhIAxjuX2Enzfw/Lyfth2ZeI5cw1944bDwdj1EBBUKof/GgWDwXDwqDiV1HTAXKOVO6iO8LwjW0gBQL8/QKVaxeL+/aiGcf0s24bjVFCr1cAy8zZcigC+78MKNaog8DHXaEAqCeFPFlAUCB0qgOSR62Eaa7UWIISAEAHqtblEtmFo982CKppz6UnO5lwrLqfZbE311qGUolFvottbQRAEqNcbWG4vgYBMHSUZDIYjk+ZcC0vLi6hUaqEFJh/Pm2zu63TbB8Qx7XCjXq/BdYeoVB0EfqCjIYkgdNHvg9lpz0ceBALVShV+4MMSlp7QUhK+76NiVyGEhBQKEwYIBwzGWEpARUxy9cw7vqicIizLQqu5gE63jeX2fnBuoVGfW5UArjhVDN1B4X5nioZnMBgeHZSJMEMpxVyjtea6ipw0DhdHr6K+Mko1L4TEcDhEpVJBozGHaq2GXr8Xrp/tjoWP4oQSBELowIDhpJb+cL0gi1EdzVZlF78+tqGUTvXqKUO1Whtb32UwGI5MJmlbs6AjOxz+JHMZRt+hgG63i7nGHFzXw759+8A5g5QSnueBQCdWTEItzmHbFjzfA2ccvq/npRjTJyqp4lQfZeeeTOJEg8FgOPJQaiQvIgFFKUCIQjRBpEBAKcPQ9WHZNjZt2qwjHyE6noJnpmgoYwz9fh+ccQgpYFkWfN+HHf6fbEA2jJJJmGgwGAyGPPIUlihcn2M7cGwHBBSdTg+e5yMQAZyKAyEEpMikoh8MBuCcx2uUpBTwPB8KKl6QlawvWXny7yNhAtBgMBgM5cmbq2JhNl/L4pBSolJxIEQARtlIq+IZjUqE0dGlkOBsdGIk0RRG2lRWQia35e03GAwGwxGOotA+4hSEEkgpYVkWuMXRXlkBDWOrRl7njUZjzDubKilh2zYcx4lj2tm2DQWg2Rytup4WPV0qaSI2GAwGg6GQSKFxXRfDoYsNG1ro93uQSkEKif5gAD8IxiLU00ajDtd1EYgAhBBY3EK304UIc1MlJ7miivL+NhgMBoNhmnVNQoJxCiUFCAgoo1BKZ5NvzjWhpITKhMujkRYVCR0/8BGE6TE8LwwMWCSPjJwyGAwGQ0hWscmDEgIlpU7MC4AQCs50YHHf9xAEAVjGjZ9alg0C7RJIqM7VVKtVQZnOsqiUCrP8jj4xZkrKYDAYDDlEsWPHtkPnEPR8D5ZF4XlDCCkghARjOrv82DqqXreLeqMBEYgw1LpOye57/sR4esZ5wmAwGAyzQhhFtVYF5xY8z0Or1YJSgG1ZEEKg2+2iVksHSaCUEgwGfTDGEAR+GBdPQCqJ+fl5EGLmogwGg8GwXhAABFLq9FH9fh9Sag3KsrgOhi4z66jqjTm4rht77VFCUa1U4dgO+oNBONlFYq+/OFGi0aYMBoPBMIEiOREEPtrtNhynopMnch2E1vN8vX43czzt9fuwbRtS6rmoaJEvpRQsDP6qwpTzUTDYaLKs0AZpNDCDwWAw5BAEAShlaLVacN0hgiCADAWaZds6MHqQmaNyHCsUQjqqreu5YJzB8zwMh0MEoSkQ0BNgSqk4a64JoWQwGAyGLIQQKKkKlZaVlTZa8/Pg3NZefkwrQe5wCMbYWPBeGhVKCQUBgVLaA1AhzHibcDdMhUwyWpPBYDAYcpBSgrL8dEycUjTqDfS6XQR+ANt24Ps+/MCHkDrF1GCQTo1EGWVwXVe7B0oJSgmGQxe2bWPouqCMgYdxl4xwMhgMBsNaUIogEBJCAEKIUAEiIISiUnHCzOxpIUeHQxeO4+jQ6pyF9kMCzhlq1RoQmvqiOSojrAwGg8EwiWj5UpEzhZJKx/cjBLZt63h/4fyUjlSRPo+2mjrNuxBSL7iiDL4fQAgdONBgMBgMhvWCEJ1A0vVcUEYRBAIgBJ2VlTgAejaLO/VDZwkChI4SOtUHZwwrK+0werqWkJEzhcFgMBgMRZAwPlKeBU4pCRAJQiQGgwEcR2tUlm3BtjmCwIfKnEdZaM6TSoIzBikFqtUaCCUQUgJGMBkMBoNhFUQZf1OOeIzp5Ly2gw0bF0AJwDgDIQS+74NSEnuaR9DBYAjOOGzbgYJWuxxHuwxalgXKaGpuihIKSvK9OQwGg8FgmGR5E0GAer0OAsD3PAg5mnaSUsf7a9QzIZQY5/B8D0IEoX2QYjgcghCCbqdzgC/HYDAYDI9JCvzuGKVYWVmBVBLD4RCDwQAyDJkUBAGECNDr91Ln0F63g0qlokMlUQohgliDajQaY5UoaFXOYDAYDIY8JnmHE0Zh2zaCQEAKoFqta3NfGEG93+uPncMZY+j1erGHHyEEzWYTnueh1+uBUaZd1FPp6HUjJNEfpWRKeBqHC4PBYDiyiISTVBIUxdNDgS9RqdRAKUdjbg71Wg2+7wMKqNdqEAvzqDjV1DnUsixY3IJt2WFlFN1OF7VaHY7jaPuhNBqUwWAwGNZO5MA3GPQhhUC32wOlDCBAe6UNABgMh6lzKGUclNE4R70QApQxncdeSgAqzFM1eaGvDr9kNKlDQavVGlt3cDB45tOfPhaTy2AwHJlE/f9UZztCMRwMccyWY9DpdgAo1Os1VJwKms0WgiAY8zanvV5Xe1pQFnv8QSkwpjsgQmgizEUaqvSHKMQegweDarU6/aBVctITnnDQFjo/64wz1lzGhg0b8E/f/CaazeY6tCifZrOJC84/H4yx1HbKGG77zndMtBKDwZBCSlnYL0jhQyqBXq8DxhgYZ+h2uxi6QwSBD9/3UXGc1Dnc4lwvzKLah73b7QIEcOLJLhFWmBZUB1t7sm0bH/zAB/DMZzwDUkqc+exnz3S+Y9u4/XvfG9u+c+dOXPiqV8Xfr73mGtz6ne/gHVdcAQBoNZv4fy+5BH/zf/7Pul7zKU99Kj7yV3+Fs887D67rrrqcm7/yFfz2W9+K5eVlAMDVH/oQtj7rWaljlFL427/7O3z2mmsAANvvvHNimc86+2wIIfBLT3wiPvnxj8OyrHiO0nVdPP9FL0K/38fd27fjKzfdhGs/9zm89uKLV30NBoPhsUXkz5AnrAjRCRI73Q5q9Sp830O9VscSW4aSCowyiExmDmrbNizbguu64IyDUgbbsuH7PjhncUqPQ8mTTj4Zd3zve9i8aRP2LS6uqayXXnghTtu6Fadt3Yrnv+hFOPa44/D7b31rvP9ZZ50VCykAaDQauOR1r1t3reGeH/wAzzr77DUJqd/73d9Fv9/Hv3//+6ntw+EwvsbTtm7FJz/9abz1d34nvobkvp/813/h3nvvTW2LFtt95pOfxNe+8Q2ctnUrTj/zTJxx1lnwfR/f+OpX47r+6uqr8QsnnYSjNm9e9XUYDIbpeE93gdCoobjCjh0PHtoGTWCa1x8AbNywEUopeJ6LoTvU2eQpBQjAs9Yb1/Xi9VMAQAlBf9CH53uwbScOHDgtKG0UgPBAaFoPPPggTj/zTLz2kkvQ74+7Ls5CsnVLS0uAUjjnrLPibe+64gqcdeaZAIC3X345/uSP/xgAcOV73oNnn3NOfFy9VsM7r7gCX7j2WnzwqqtQy5gjOef4H3/4h7jummvwkQ9/GMcfd1xq/1FHHYX3vvvd8fffev3r8dbf+R087dRT8cmPfQyf/dSncG6ivjx+41Wvwl+8611TrznSpGbh8re9DZRS/OUHPhBvk1LiZa94BWrVKur1OgA9p3nPD36Aj3z4wzPXYTAYyrPnpkeAMGADCQiO+5XHHdoGFRAvXyoKoSQlCAi6vR4CIcAYj8P02dwGUzo4ehLqVBydi4roOQdCCVqtFmq1Gnr9XqhRqUMa66/X6x2Qeo/avBmEEPzDpz4Vbzv32c/GiSeeCAC49957cd/Pfw4A+OlPf4rFUJtrNBr47j//Mx53/PG49rrrUKtW8b1bb8XCwgIAbaa8/bvfxTlnnYUvfPGLaLfb+PINN+CM00+P62nU63jO+efHP+QpT30qLnrNa/AX73gH/unWW7G4uIir3v9+bNywIbftjDHYto0f/+QnU6/zty+7rHCesYitZ5yBn/7sZ2PbO50OTtu6Fb3eaEHex//hH3DiCSeULttgOJKRGwT2fWoPdv34Iez/6L7UPlVRWPz7vdj1w4ew/2rd3/Qu7mDvl3YDQPy/e9YQS1fuh9wk4m0Re2/cDXBoL7q3L2HXfzyEvdfthqoenL57mjMFYzzMN6XAGYPrDuO0HoQQBEJn8EjClZQYui4acw2IQEdN9zw9oWVx/pgL9Xfzl78c/00Iwc1f+xq+ecstucfe8KUv4bhjj8XFF12Ez15zTbx6+op3vAOL+/fjTZdeCgC46atfxS3f+Ab+6A/+AH/xrnfhD3//9+F5Hl7+ylcCAP7x5pthWRau/tCHcEZCe8vCOY/Pue4LX8Bd27bh+c97Hq69/vqxYyONZmVlZWxfpVLB3du2pba9/BWvKKw3j0qlgnvvu6/Usbv37AHnPLHOzmAwFLHrBzuw8GcbsOkNR2H3t3dh7xd3Y/Orj9b7fvIQ5j7Swsbf3ox91+7G7m8+jKNfegyUBQRP8LHpNUcBAPov60HNKWBI4J4+cuVe+cM2VFUCAfDw3Tth/dzCsac8Dkvv249HvrcLx5x+XG6bDiae78OpOGCMY7m9H4TotB6+58N1XVDKxhy3OOccSkkEQQDbskGp9m/njIPn9SvHAAAgAElEQVRzDimCguoenbzhzW9Gu90GoRSvfuUr8RuvehX+6Z//GXdv3166jLPPPBNfuemm1LZfe/GL479f+uIX47bbb0/tv+Kd78Sdt902sdxHHnkk9V0phc0Fcz9PfcpTCstxXTd2bmi1WnjPu96FG66/Hmede+7E+rOUnZdbqznWYDiSOO4JJ4AE+t1qXbWApfdpzWn/1ftg/YeN5tUtAMCGyzZj9z/tAnytVdVubID4+rzhBQO03rMA2qWAAlRVgQwIVv7HMo499Xh4p3iQCwKbXqsF08Kfbjioc1pSSjDOch0qlFIIggBSShy9ZQseeOABPSdDAFACXwRwPS91DpcK4DyMSkEJhJBwHAfdbjeMqq4eU1rVvsVF7N6tVeUPffjD2LBhA/73Bz6Ac847r3QZnPMxTUYmFkVbloXF/ftT+yOba6vVQrvdzi13lts8SXNRSmHHzp0AgB07d+LXX/1q3L1tG37z9a/Hpz/zmVLlDwYDHHvMMTO0yGAwlGH3rbsQnBTEsfAq39YBWIfPG2DTxUfFx9E2xTGnHQ8ACE4IULtpFKhVbBaofVlbVSABuSAxfGUf9g9t0EWG3tuXoWoKO/770DhcxGk+6Phgl4VLnjzXhe1wcG6BUJLSpOyMezrtdjqwo3VDCmEMpgCt+RZGUQWnZ/glhKQ+jxZ27tw55mEyjcX9+/ELJ52U2uY4DmxbR/d4ZPdunPwrv5LaH30vElKzcs8PfjDzOUfP4Jl3+x134KTMNQJAc24O2++8E5VKJd5Wq9XGjjMYDOM8vH0H6l9u4PgTTsTxx58I0qFofEHHVFVcgfTz53eUo8D25PdT1duq8E4dYvmKJWz8LS3ogsf7aHx2Dsf90gmjzy8eHvPIlDN4ngfLsvSaqUolnDaQEEEA27bHM/xWqxUEQqthhBKsrLRRqVTgud6jSuBYloVNmzbNdE6r1cIlr3sddu7aVXiMDG9Y0mb66c98Bmdn5ppuveUWvDKcB/rrj34Uv/qkJ6WC+n7wqqvw8/vvn6l9k9CTkcD8/PzUYy++6CIQQvDZz3++dPkfuvpqSKXw/iuvjLcRQvDVf/xHLLfbGCZCnGzetAlBEJj5KYNhCmKLQPXmmjbXzUmoOYnKt7XHMF2hcE8bvVcPb9+B3qu7UJYCKED36T7If5IXmwABoPXOBSz/ryVY91qxMKt+tY7Bc/sgAwIyIJBNqaMzHExIvuUnCAJYXAspKSVc14UIBCih8P0AgQigMmH7uOf7qFarsLhe1BlFZWA8zLQYmv4irz+tZR1+Auw7//Rt2JaN00PX8iK++pWvpL7fd999eO0llxQev2+f9sq5/bvfxec+/3n87d/9Hb5www04/9xzsf3OO7G0tIT5+Xn86Mc/xrXXXQcAuPW738U3v/UtfOfb38by8jJarRa63S5+601vWuNVjhBCwHVd/OqTnoQ7Mo4TlUplbFHvX119NR5++OGZ6nj1a1+L6z73Ody9bRsGgwFqtRpWOh285GUvSx33pje8YV2FsMHwWKVyexWPfG8X+AMWxDHh/H/Ylx993rHY9aOH0H9VF8HjA/CfW6h/saG7Wwk88i87seWc4+BuHcL6r1H0HP5zC+JogaNeMDLVN66ZQ/sdS3h4+07Q/RT+kzwc84zjwdLZMw4sBaY/zhjqjTos2wJjFLZlxcdVKlpxCjKJE8m1//Bpddzjjker1cLcXBO1WhU//vFPcMyWLWgvd3DXv2/HGy99M5SS4KEXoP4oSCEhpcxN+3HKU089INcexbSTGYlrWRYqlQo6E3Jo5cXDy5ZDKR1bD0YpxZlbt+Kee+5Bp9uNt1erVTz9aU/DD3/4Q7RzvO8sy8Izn/lM/PeDD8ZzRtm6ovrzriuvLUne8qY34dWvfCUueMEL4m15ptdJZRTdz2R5j3/843Hcscfih//5n2OmS0op7rrjDrzgxS/G/sy8nMFgGEccH0DOKVj/ZUExFTtWAAAI4D/ZA3uAg64k+ium4P9SAOvH1khXSLyyiioQOS4UgpMCgCvw/8+abRK8BP/3nu+PbSOEhMudCCijY/2RUgqDbgd/+Z4r8Ybf+i2ASPznf/4Iz33u87C4bxErnS727duHWqOB088eKR18rl7X3n1x2nmCarUC13URhIFqk5UodWi1qaIO1fe1S/1qzp12jJQSt99xx9j2wWAwps1k23TnhHBFybqK6p3Exz7xCVx80UU4/bTTYq/FWRddT6tDKYX7778f9xdoTH/we7+Hn/zkJ0ZIGQwlYTt4FGAiLaQAQAHWf9jjJwmihVR4TFbo5AkpAOA/P/yCRhNGtZyVAoHwIYSAZdlQADzXhRAC1cQcOADwoefFIXO0ZqTgeR7m5+cR+FEnRjJrZCYLKzNXcfB4yYUX4pavfx3Pf+ELc7W6A8nZZ52Fl7/0pTj3ggsOar0Gg+HRi1IA4wyO7cChNrzQFZ0SAkJpHCA9CaVUCyBGGZRUkFJi7969CPwAq9UVH01OGI922u02zjn/fKxMMHkeyLrPveACMzAxGAwpCCFQsiCjhpKghML1Ioc9BdcdQkgJKRVs20Y/dBaLoJ4f6HxTlIBxrZA6joNqtYqlpSU9B2USJx7WeJ53SITFf/zwh0ZIGQyGmVBSL/gNQq8/zq1EhnmgPxigWstk+HVsWydLpDROkFiv16Gg101FH4PBYDAY1opU2gkrCAL4vo/BoA/P82HbVhghydIZfxNQSki4wEpPrAshUgFMVxMR3YyyDQaDwZAHATC/sIANGzaEMUsJbNuC53loVGuAVBj00n70VK+dsmMTX+AHYdQB7UDBGAObUaMyc1QGg8FgyINyin6vh/5gANd1Ua1WIKWEZdkQQk8zRRnm43MYpYBScVj1xlwDQkjYtg0/DBwoExoSCf8ZDAaDwVBIgZhQUsF1XdRrtcQ6UgbtViEBAsiMIx/t9wegTAcDVEqh3x+Ac45utwslR8kQIy2pTDw/Y/ozGAyGIxelVKFCQwhBtVpFt9uNQ9N5nl4/RRmHZdvgLG3Fo7V6Hb1eF1JIQAGOY2NpaT8ajToqFSevHoPBYDAYVoXv+5BKZ+no9XrwPF878CkF13Ph+z6UTCs7HNB+657vgVCCwWCAubk5dDtdCCFC7WmkJSky0ugk0R8FgBglymAwGAxT4KH1jnOOSqWCarWC4dCNg0rYjgOSyWgRu6frFB9OHHLdduwxF0GDwWAwGNaKUgpC6oS9QkpQSnSQWsrQ7XYQZBL20v5gAKVU6OmnMBwOUalU4Xkeut3xaAdK6SC0kYZlPPwMBoPBUBbCKGzLBiE6l129VtcCK0zaO9eYg22l4x1Sy7IwHA61M4VUEELCc10wyuA4FR1/KeFIEVeWiv2XaYgRXgaDwWDIQUkJIQVEoNfrRvLH9304jgMhBXr9zDoqEQjYtqN3RFEplILt2PB9D8q4ohsMBoNhnSAYpQKRUmI4HIJSBkoIXHcIKSTqtXrqHMrCFcGVSgWcM/R7PQgp4Ps+ms1m6EhRUKHRnAwGg8EwA4QxcMvC0HUhpJ5GYoyBUoqhq+OWBpmUTdRiHJbFEfgBpJCgof2w2+3qRIlSoUgeUQUQqYzHn8FgMBhKIfwAw+EAtmXB4hyDwQCDfh+BELC4jkiRFTm02+3qbIyUgjIG27ZhWRY2bdyExcXFQiEF5KcZNhgMBoOhCCEFOOexFsU4Q6VaAaMUKswWLzKp6KkTLuolhMBz9WKrlc4KBoMB5ufnD/pFGAwGg+Gxi+04kFKi0+nC8zwwyuJQSr4fIAiCMUc9Ouj1wSiDH/jglpZyUW6QPXv3xgdmPf+UUvHqYUpMGhCDwWAwaCb5L0ihhVGtXoNtazd1y7IAAnBKwQkdT/NRqVSAROSJIBAIggCVaiVcWzWhMcb0ZzAYDIYZ0cqNAiEUvi8wHAzDPQSU6X2p4/uDPnSqDwtKKlQqDqqVKgb9gbYTEpry+jPxZg0Gg8GwahR0kt4wXrofeGCcQ0oJxrmOVJENoSRD10ApJWxH56USUqBWq6FaqYJSmkmeaCSVwWAwGFYJASzbAqEUg8EAjDIoKcE5B6EElDGIcM4qgs63WggCAc44PM8D5xY81wNlFHv27CmsqygqxWoyAhsMBoPhyIAxC/1eH57nwbIszM/Pw3ZGIZMsy8Kw30+dQwkIpBQ6fp9UGAz6mJubw8pKBxs3biysrGiybFquKoPBYDA8tpmkrIjAhxMGP/d8H4PBAEJI+H6go1UohWo9E5nC8329sFcpOI4DpRR6/R4455ifbx3o6zEYDAbDEUQgBKQQcRxZEX63LA4hBfq9XpxQMYIDowCzgdD+6416A4xRdDrdRIbf8QqNic9gMBgMs0ApQ71RBwgBJXpxbzQnpQWWNX5OEPiQUoUTWgoVpwIhBSqVCvr9HggAi4+fCMD4VRgMBoNhInlTQZ2VTryPcx477XFuwXVdSJVxpiCUwrI4pNJx/gIRoNvtotPpIAj03JWQYqwig8FgMBhWA7c4/DAYOmMUjmPH7upOpQKL8dTxlAAYDIY67Dq0zdC2bHDO0Ww2x2yFEYQQs+DXYDAYDDMhZQBKGXiYXZ5SFodN8nwfnDHIbAglSihs24Ln+1DQ81G+78OxHczNNYBQys3idm7mrgwGg+HIZZLnt2U7EEEAKAluWSAEkFJCSglKCDzPgwzSVjwulYKUEpWKDhToeR4ajQZ830enk05Fn6zcCCODwWAwzIrv+3rdlAKUBPYvLkMKCcYZABKG7stoVJ7nhtFrlTb72Q4834OCguf5Y5WYNVIGg8FgyEMppdfkTlBkLM6wtH8J3LIghEC9UUelWtGp6QEMBoOxOLNxUFqteqk4HwgUUK/VQpPfyIXdaFIGg8FgyIUSKDJZoVGSoNFownV9cKYTJw4HQziOg0rFBmUUvUFOZAolFSyLg1LtSOFHq4WlSEWaMNqUwWAwGNYCZQycc1QrFXS73TDOrINABPBcH4wy8KzXn+e5oIzqOH+Mw/VcEKLthGUFkzILqgwGg8EAhG7mxQSBD84Zut0OavUaWq15BL6vI1RICT8IEPhB6hzKuAUpdZy/yKwnw0i2w+GwlLkv2m9MgwaDwXDkQhRAoaeJiuWVQn/Qg4JCEASghACEgDEGp+IASoGxdDJealkcQRDAsnX0CaUUFhYWMBgO0Gw2tVZlZI/BYDAY1gHGGKSQ2pGiXkWn2wYJ57W6nQ6q1SqkzHr9+X6sTUW5qTjnqNVqaK+sgBACyszclMFgMBjKMTkVvXbYazQa6PV62Lz5KFihZc+yrNA3In0O9VwPlNJ4sRUAtJfbeqVwJnmVwWAwGAxlKBJWzOKYazYxHAxACMEjjzwMz/fic3KD0jbqdTDOoJQ2+1FKQShF4AewbHvsBIPBYDAYiojWURX5LCgp0et1QSkFYwy1Wi1cGqUteu7QHTuPD93hKJ4fIbF25TgOHNuO11FNghIKqaRxXzcYDIYjHEro1GM4t1Cr1+G6LgIhdZYOy0Ig9JIontGqKBSgFEDDBb1SSiglMXSHEEKEk1z6YC2IjDAyGAwGwzjllBWt+VCqBZrnDhGIACIQgAIYZxAiHeuP2o4NJWWYD0Rqkx+34DiOXuwLAgIaJk8kuQkUH8sQQvArv/zLhVHkHytYloVv3HzzIav/azfdhKc8+cmHrH6DwbB2Si1PIhQEQK/XQ6VSCb3LtdCyLA4RiLHo6ZwSAqkk/MBHjdYglAChFIPBAL1+H5SxwyIf1f/zC7+Av/3rv0ar1cJgMMAfX345/v373y99vm3b+MqNN4Jz7Y6f5L3vex/+9a678s+zLHzmk5/E81/4QiwtL6/pGg5nbrz+etyZuAfXXXMNTjzhhNxrftFLX4qv3XRTPHpamJ8HgNSxr3nd69DpdHDV+9+PY485Bhe//vVj5Xz95pvx0b/9W3zrllvw0gsvxJ233YaXv+IVeGT37vW+PIPBcJhACIEM56+EEFhZ6cRTTkJKKACBn44zy23HAec6XIWUOoLtYNDHpk0bQQlBEASxyU9KCW36O7hq1cknn4xPf+IT+No3voH3XHkl/vRtb8Pf/c3f4I//5E9w2x13lCqDANi8aRM+f911aLfbqX27du2K/7572zace8EFGAwG63kJhzUv+rVfQ6PRwHvf975424aFBSwtLeGGL30p95wbbrwxFlQve8lLsGXLFtxw443xfs/TXjytVgsbNmzILWPzpk2oOA4A/ez9/cc+hi/fcAO2nnPOulyXwfBYZv9H92HD72061M0YQyoJRootUDIIoJQEITqSeqPRACEAZTR2Xc/mOuRSSgghwRiHkAKBCLBp4yasrKyA0OmTYgeD97/3vbj/gQfwv977XgDAX151FZ526ql4y5vfXFpQRVz/xS9i94QR+5HoEPLnf/ZneN8HPjC2/Wc/+xk+/dnP5p7zmc99Lv77F046Ca1Wq/DYsnz6s5/Fb196KU455RTcc889ayrLYHissfNHD+HYpx0P4uo+qv/S3mEpqIBy/Sgl2utvOBxAhQt8q7UqOp0OaEYZov1+PwxXoQ/knKPdbqPZbMHio8CAswSmXe8wSm97+9vxh//zf6a29QcDDIfDdavj+s9/HtvvvBMA8C+33or/nem4n3P++bjrjjuw/c47cfe2bXjB85+f2v+BK6/E3du2Yfudd+Jfb78dL3nRi+J9N3/5y/j0Jz6B27/73bgOADj9mc/Ev95+e1zmBxN1vuiFL8Td27al6vjkxz+OaxMC4ltf/zr++uqr8Z1vfxt3h2V85pOfxPnnnZdq62VveUvhdW85+mgwxvC1r399hrt14Lj33nvxlje+8VA3w2A47FAtGQspADj+xBMPYWuKoUT7NCiZLwek0nJGSolarYa5uSZcz9NzU0J7jweZNbwUSq8UtrgFSiko1XNSlJLUhFYynt/B5qc//Skefvjh1LZf/qVfwsc+/vGZy7ItC7Ztx59ocdlrXvc6nH7mmQCAcy+4AG+7/HJ9QvhcvPmNb8Szn/McnH7mmfjXu+7Cn7/97XGZF7/udTjvvPPw4pe/HKdt3Yor//IvccU73pES7ieffDL+/J3vxPnPex4AYOPGjfjoRz6CP778cpy2dSte9opX4Jyzz04JwOygIBnJPvp+xmmn4bWXXILTt27F7//RH+FXfvmX8Z53vQvPfs5zcNrWrfj8ddfhDb/5m4UDjOc997kQQuT+rjo/mZ36rAYCjJVTVNa2O+/E0049dVX1GAyPBpauXMSOhx7Ew9/fgR3//SCCk0bzMZ23trHjoQex60cPYcdDD8J7qot9n9qDHTseBID4/+4bV7Dnmw9DHCXibQAgjhbY8ZD+Hjze12X9+CHs2PEgBi9Ip844GOT1OwQ655RlWfE8Va1Ww9AdIggCDIdD1DL5qDjjDJQxeL4XLvzVi3673S4456E3oAKNbYaH3jT2ra99DT/92c+w/d/+beZzv/TFL6a+79i5E7/+qlcBmCyML/7N34TrugCAG7/8ZWx91rPifb972WX4+499DHv37gUAfO0b38AV73gHXvMbv4Hrrr8+LvNfbrstPuedf/7n8DwP20IN65FHHsHd27fj4osuwrduuaX09fT7/diUeff27QCA27dti9v613/zN7j4oosKz3/iE5+Ivfv25e7bunUr7vje91LbnnX22WOuo9PYuHHjWDlF/PBHP9KLzsPlEgbDY43Br/dx/BNOBAKge0kHe6/dg2POOA5ii0D7T5dx3C+eADIgcJ81xL5r9uDYJz8OS+/fj+AkH5tffbQu4/kDOHdXQJfC6RkCQAGLf78Xzb+ah7IUHrljF4495XjQfQxyg8Su/3gIxx9/8LSwosExpToArWXb6PV6EELA9304jgPX1f+TTJoP7nkePM9FszkHxhiCwA/j/VmQQsS+7qPKMXUB8IHk+s9/Ho7j4PVveMOqzn/JhRdOnKMqIumFkvQaJGHU30vf/GZc+uY3p7Y/5Vd/FdeF339+//2p8k4/7TQQQlLmPUIIlpaWZmrXjp07x7bdmTAvTmO+1YJbYELdtm0b/uhtb5upPXnsW1zEC1/ykrHt23PaOev1GwyPNo558vFwTx9Czkt4p3ognu7Q99z0CObfuQFkoL87d1Vw1IuOAaDnoxb+bOSU5J4xxPy7F0B8AkhAzkuQPoH3DBdH/foW9F/VBV1kCE4MgBODQxNYvEinoRSMcXQ7XVArFFoWhxACtmXrQWrG05zX63VQSuG6HizLwnCoMy0ypl3UCaLsvjIxyj00WtWV7343TjzhBJxz/vkHb7Rdspr/n737jrOzqBc//pmZp5y2LQkkdFE0XhXsUkIE4QICSlG5oNeCYOFKUWxYUbEDCqKoV7CgXASkXgGlq0jTewWsPwW9BEP6Jtk99Skz8/tjzjnbN9mQkEDm/XrtK+w5TzsBdnZmvuW4f/93Fj322NhT1/GMjzzyCG8+/vgNfLCNo1qtstNOO23WZxitr69vcz+C520yrf2arLpkBaUbykQPxjSPrFP5bg8Apl8T3xePHGwheKw9syhYot+PWi6XEP7JfS+aAjOgWfPN1fR/dhZYaBzRgNCy5uzB7inhXyfW0NvUOvm3415sz3YslXKFMAoRwm07QY6xFjNuoJJr16x1FdKFQEpFpVIhy1xIepblG9RjalNEzh3/trdx4IEHsvBVryIbF2O/OVnreqqcesopGGO6X0EQTPv3dvsdd7DrrruOOQfo/rlixYoJ5+z2rGdt9Od/5JFH2GbOlhM59Nz584HNsxfqeZva4PdWMvfQ7Zl1yhwqF/dgY0vlR26gElaMmQPkz8zInp2BABtZ1DI3aNl47P8bvRf2UT+mTrJvi8pF7Ws1BfGvisw9cPsxX1sCow2lcok4jrGAaW8lKCWp1esoKcnGN06MiwWiKCaKI4zRJElCECiiMKJcLq3fje2mrbL+rwceyHve/W5OOvlk5j/nOTz/ec/rfnWWJj/5sY9x4/XXr/NaC/bem/3322/M1zPGRc+8ct99u7ll6+P4E09k33324UPvfz8Ae++9N3fdeScvftGLpjznrM9/3kXbXXcdSin6+/v5xe2389VzzgHgz3/5CwDvPeUUAD5yxhnEcTzl9TbUbXfcQRAEk/5yMXfu3Al/V/vvt99Gf4bRFuyzD3/805826T08b3PKXuD2j1ef62Y76p/uZ03xv0us+p77BdXM0Sz71RLCRSE2bA9MLjWR5JUt1MqRPKWer/dRPXWIWR+Y3V0B6vlGH83D6t1jVtywlNpbqpvyY603g8VFmyvCIKBeb1Cv11y7qXakYCEeF0xhck2eZ26aqQKUUtSqNQZXr6ZQKG6OzzHB6446CoDvfOtbE9478JBDqFar9Pb1URgXKTKZj3z4wxNeu+jii7noe98D4Kaf/5zPfuYzvPY1r+GU9753vVY5//bww7zl+OO56Nvf5pg3vIEsyzj5tNN4YJpcoFarxb8ecgg/+O53ufeuuwC4+Hvf4zsXXwy48iKfOussPnPmmfz7m97E7x54gHvuvZe5c+eu+4FmYNFjj2Gt5ZULF44J9gDYbbfdOPuLX5xwziv22WejPsNoz50/n/dvhH0xz9sSzXvV9iz91eOsPm+Q/k/OYnQc3sCHZ7P6m6tYvHgRsiaZ+8rtIXWt3YNHQh5/9DF23HEXkj1b3WU/oDs4la6qdF+KHoqYdfKcbkRg39n93Znb5qakiyZO05SevgqlcplSqUytWkMpRSduYjRx/WVX2r7ZA2y77VwK7fp+g6sHmTdvHn/8w5959J+P8ca3vhkhOmuN7qtTwNZoM+mM6kUv9CHGTxXHHXssb/n3f+fwI47YrM+x7z77cM6Xv8zeCxdu1ufwPG/dHnhwXAk7F9CAEBKFQCoXvduJHAe3pJ80m3zrggt47eGvoVAucMvNt3Dsvx3H0PAQ1eEa1WqNIAp52YKRyGpZKBYoFopYY7BYsixDCkm1WqO4jhmKNRbr+9Q/5V1+xRUopTju2GM363N8+Utf4o1vfvNmfQbP8zaOSQMpAGM0SimarSaBUoBrlpimqauOlOdoPa4VfdJKuo2ulFQIKQiCgDAIGK6ue01TbAF5Vd4Td9TrX887Tzxxs5WQuvnGG/ns5z7Ho4sWrftgz/O2aEKKqceGduGCWbNmE4YhpVIRCxQLRYw25HlOGI6tFRhonRMEASpwb2itSdIUIcWoxol20vYenYq3WDdg+eaJT12tVosD21UzNodDRpWc8jzvKci61T+JW22bapxyeaiiG+3cqNe7yblSCaI4mFBnVpbKFfJ2KKC1liiK6AxetVqtXVZp8uK0o0OILZNP8zzP87ytz1QpJsU4diX6tHallKKIPM9J0oS8Xe8viseWWJPV4WGSNCXPXSx7q9miEBcQQhCGG1bbzfM8z9u6TTVxyfIMYwxSKcrlMkJAGIUUCkVXWEIKVq9eRXVopEqN1MbQU6m4KZuSlMplEC7xNE2TrbKrr+d5nvfECCmmKBjhlv2kFCRJgjG2Xb4vJ44L1Go11q5ezfJly7jt57cAIEulEkl7QAJBq9VkaGjYnagntgT2PM/zvHWaYuiQUrmtpbpL+gVIUzfL0lpTKpZotlo8uugxtHYDnbTWuGrV7dEvyzKkdJ19+3r7JrSW8DzP87wNlWUZzWaTqN2TKopcIdooDAmV6+YRBIpmq8Ur9nwFrVYTKYUE65b6BFAqlVBSEQYhjUYnb9oPVJ7ned4TJ4TrT9dpRbRmzWpo5/BiLUmjSa47uVYt6tUqMkkSojhCSkmuNVgolUtkeYbfnPI8z/NmatpVuHbxdBdIIejp6SEM3RiU5TlKSaIgIm7Xny339CALxSLVaq294WVpJUk3UUtJt+w300Z5nud53tZruu4HnQa9zVaLIAhI0xRrDQiQ7QLZqXYpU2EU8NiiRUhrLb09Pe29KIlSkkWPLSJLM/fak/XJPM/zvKc9ITHXg10AACAASURBVCTGaPr7+0jTtB1h7lo31Wo1cq0JgxAhBEnSZKedd0amaYpUEiUVUohuxF8QBt1EYM/zPM/bGPJ2PdlGvYExptv/EHDVkIxFSkGz2cRay6qVKwmidjHAOI6x1tLf30elXEYqSaFYhOG1U97QCBeBaAUIH8XueZ7nrYPFdd6wWIrF4piu3lEQEEYhreE1DPRUqFQq9PT2I/M878avt6/C0PAQUrrqtkIKpBwdou4XAz3P87wN02kRJdrtour1OoVCASVdTpUVELTrzCZJijEaKaUkz3OCIMRYQ5bnRGGEEJ0y7WPr/PlAQM/zPG9DhVGIsRatNdoYKpUyrVaTPM9pJQlxHNNsNpFSonPD6sFBZBAopJDdirZ5lhGEAdZYSsUiQoAxk6/rSeu+/LKf53metz5cWSWDUoosTanV6sRxwW03FQokSUK5UiIzmiAI2H6HHZEWFy6o2lXSK5XKSDCF1mjtWneM7tA4GSlkt67TdKGJnud53tbLaleNIggC96dSZFmGzjVa5whcZSQ3mEkW/ePvyOHhKsVCkVzn6HbseqvVIklSBvoHkL4ored5nrcRCSHRWmOtJdeaLEsJwgDafQ2TJEW2B57td9oZWamUabZaSCkJggCAJEmQUrBmzep2p0a3TzXdTKnTNNHXBfQ8z9u6CSHc2DHJeCCkIMtSsjwnDEMqlTJhGJJneXcMKpdLLpBPSLIsRSqp0Dp3VWwttJIW9XqDvr5+6vU6WmuMNd2be57ned50ppvUWGu7EX6dNh9uZpWDtcRRTJqmBEFIbjRrBlcjLRajDWmaAlAsFimVivzzn48xMDDg+1F5nud5M2Ktde3oJyXI8pxSqUSpVEJrNxGKoxhtDEmaEIQhWZYiEGw7by7SWlwMe7svSNJKMNqw3XbbQbuskud5nudtLEK4ChWu+oRxs6p2AyspJc1GAyklURSxcsVyV+vP0h79BDSbTYIwYHDVINbYbnh6Z9nPL/95nud5G0oq5cYR0R6Umk0CpdqlkyR5ronjGGMEtWqDbbfdDhkGAdVqlTCKyLLMhaorxazZs8h1jhByxoOTH8w8z/O2Xp1gislYM7Ybh5QSi3XNe40hjiOUCjFZQqvVYsnSx5FhGBJFEXmeoZRCSskuu+xCmqSk7cZWnud5nrcxGO3iIqrVKkJK8jwjDCPSNEVISZqmJK0WYRgSBAGzZ89GNprNbli5kgohJMuXLafZapLnvg+V53met/GI9pJfpdLT7ipfptlsdGMlwiB0CcDaFa51xSiEaNdUcoOSMa4FcBzH9Pf3r1elCekDLjzP87xRjDaTjh3WQrPVolqtYowhCFwgX7PRROAiBoulEhLIdE6tXke6bGBXKNBaSxRFaGNoNpu0Wq1Jbu+Tej3P87x1m2yskEoSBIo4jkizjCzLKBZLFEtFkiRBSIEx2q3yBQH9ff1Io12Lj04eVaPRII4iKpUKySR7VH6I8jzP854IYwzGGMqlEkYbjNZ0xiKlXECfCgKwluHqMBIBYRgipQQBQRBSq9XAQhgG3f2rblHazfwBPc/zvC2PEAKxHlMZ0Q5Bj8KIJEnIdU6WZWR5RhCGrqmi0aSZJstz0jRzeVRKKdfmw+I2rpQkSRNkOwkY3D6VlLL7z57neZ7X0cnJXedxRlOplGk0GkRR5Jb4lHJjjFLdWZUQgjiKiKMQqdqjW6FQAKBerxMEIdZYmo3mpv5snud53lZHUK5UXPNEbcjznHKpjMldB49OkYk8z4kLBWS90Wh383W97Ht6ehBCIJVcr9FxMn7G5Xmet3XqdNKYijWWRr2OADcQxTFhFJKmaTvQImgv/1nCKELJAFkoFIjjgutLL9pLflJ0G1o5bp/KmMnDDcfzUYGe53lbp04T3cl0KlYYawiCkCzPEUKQtBLSNEVrF2RBp1KFtTTqNWSe56RpQhAEIx16jW13W/QJv57ned7MWDu2Pmznn621IAS9Pb3U6jVkuxKFChRRHGGt7UYEdo4vVypIKVwLemssxrrSFnEct8PV129m5Jf6PM/zvDFE54/x44ig2WxSiGOKhQJSCsDNnlzCL8h2vyopJfVaDZmkqataqxSBUrSSFkmaUCqXqTfqxHHUHd2mfB6/1Od5nue1CSG6/aiMNWMqHAVSEscxjUaDPM8xxqCUIgiC9p+u5qyUEiUlaZ4TSClQgSLPsu7mVrFQxLY7LfZUetwQ51N9Pc/zvHXo5N12JjBSjATmWetW7sqVMnE70jyKYqy1pGlKluWkadpdArRAuVREWmPJsgyLy5PaYfsdWDu0FqUU5XKJwdWDUz6M53me542mjW7n3E4uz3KWLl2GEIIgCIja5fviuEAYhYRhRKFQcFGAUpKlqYv6y9uRFxZXecJa2+686Hrbq0BNuNn6FKv1PM/zti7jo/7GL/1JJejr62NgoJ8kTWk0mqRJgtY5nfGo1WpSLpUIlGJg9hxklmUU4gJYkEKQJgk9PT3oPGdoaBhwK3+jp3Gdaumd14wdidDwA5jned7WbaoVN1e9wo01jy9+HNpLfp0RI0tTlHLNepM0odFssmL5MmQURyRp0i5fIUna060wilyHxlF1/iZ7GD8oPflmDQxs7keY1h677765H8HzvM2gE4pujJkQnj7yJUmzlDlz5hCEIQMDA8h28EWW50ghybIccBOn/oFZyDwfWU+0xoUHtpot8jxDt8tZTP1Um/ZDjyel5F+e+1yUmrgUubns/oIXcNmPfvSk3u+G66/f4PPnzJnDc5797E26x7jfK1/JTy6/fJNd3/O8LZNg1ORlkvD00QNWo9lA5zlpkhDFMVIpwjAk1zlB+5/DKMIaQyCVdJdq9603xqCNJiDoLulNpRN++GT43kUX8YLnP59Wq0WhUOBvDz/Mm9/2tvU+/zf33DPt+3suWLBes8N99t6H+39zfzcZulQsstuznrXez/FEFItFvvud73D4EUcA8Nz58/nh97/PK/bZZ8Jxv7z9do543etYtmwZAC9/2cu48IILxhz3wIMP8u73vKf7/fi/I2st3/z2t7lk1EB85223US6VpnzGU9/3Pr5+4YW87KUv5RMf/Sif++IXN+zDep73lNOJ9uuGp8uxW0OdP/M8JwxC4jgmimPAEoYBRmuUVN1BLktTsiwjCFVAq9Vk1sAAUkhaSYv+Yr8rBCjWPXMRQmzy3h8nvfOdzJ8/n7323bc7pbz3rrv4tze8gSuvumq9rrHnggXdf/7xpZeSJAnHn3hi97X1XcI8/yvn8qqDDqJer8/sQ2wEn/7kJ/ndgw+yctWqGZ2nlOLCCy7gip/8hK+ef363Qeadt97KJz/+cT77+c93j/3BJZfwre98B4C999qLr5x9Nv8yfz4f+cQnADjgoIO6xy7Ye2++eu657LXvvmP+IwT4j1NO4Re33cY5X/3qpH3NPM+bGT1Xo1YqMICExYsWseNOu2zuxxrDYid0fB8dnt7JyY2iiLVDawnjgDRNcRWSUnLtGiaGYegGsyhys61OIdo8z90ml5SEQUiStIii6Mn+nJPafffd+cUvfzmmrMbjS5awcN991/saowM9rLUw/vu2vt5ePvKhD/GZT32KbbfZpvv6fgsXcvRRRwFw+KGHsnDh2HvHccy7TjyRc770JZ797GdPuH9fX5+77plnss2o6wIcfdRRzJkzh7e++c18+IMfnPIzvGr//fn4Jz+53p+544V77AHQHaQA0jTlpzfeyKsPPnjMsaP/Tu65917eedJJHHDAAd3/Fib8PTJ5EE2j0WDZsmV86AMfmPHzep430dL/XewGKQAD2714x836PFPR7e6861IslEiSBGMMYRiChZ5KhVxr8iwnikKiKCJPUqTONUmSuH0qaymXyxSKRQIVkGVp96Kbs3HiyaedNuEH9Hbz5nH3OpbzZmrvvfbi1p//nN13352ddtyRG66/nne/850A7LP33rzmsMMAOPyww9hnr73HnPurO+5gr7324vnPex7/dcklLFy4sPvegr335taf/YwXvOAF7LTTTtx4/fWc+Pa3d9//6Ic/zI3XX897TjqJffbaa9JnW9Be3hscnDyvbToPPPggAGeMGwS/dPbZLNhvv2nP/eOf/gTA+047bcb3/cnVV3PA/vvP+DzPe1oTMPzetSz97WJqb61OeLv2zmGW3vM49TfWAGgtbLL2C6sBun9mz0+pH1/FDJjuax1rv7AaG7V/IX1xwrJfP87aT67ZlJ9oUkKORIV3xg+3AmeIoogwDAjDkHq9jtEGIUW7dJ9FBgqNy7kq9VQIrLUEQYg2Bm0MaZrSqNfJdU65XCHDtNccaQ9mT/rn7brgvPOoVCo8e7fdeHTRIi6/8sqNev3zzj2XT591Fjf9/OcALNx3X8750pf4z4su4otnnw24fZz3nHrqhKW/gw87jKGhIQD++9preecJJ3DXXXcB8JVzzuGTn/40N99yCwAHvOpVfOGzn+W73/9+9/zLLr+cr33961M+28tf9jLXeXkDWGv5+Jln8vmzzuI1hx/OQ7//Pe//4AdJ0nTdJ+N6lD13/vwZ3/dvDz9MpVKZ8Xme93T2+COPUbqyzDZHzGPFbUtJXpEw+5Q5ACz50z+J7y6wzTFzWXXNchqH1Zl1xmzyxRmiJihf1ANA/dga+bNzuAhqb63S/7FZ7vV/r9Lav0l/OosV1y4nf3bKtq/ejtXfXMWKG5ey7eHbbfLPJ4V0ZZGm2Doy2hWXsNYShCH1es0VotUGqRQSQdpMCOYohqrDtBp1t/TnuinSXRscrlYRQrBmzepJb7S5LFmyhH8uXowQgm233bbb7HFjkVLyt4cfZtdnPINdn/EMBgcHp82wHq0zSAE8/vjjlEYFHEgp+fvf/9697vLlyydc98GHHpr2+ttvvz3V6sTfvtbXrbfdxr7778+F3/oWL33JS7jrF7/g+quvXq/Pp7VGreffw2irZriX5nlbgzlvmsvAR2cTLA2Ydeoc0j1bAAyfPoRcI5n9rm0IHg/Y5rXzSBckqCUBjUMalK+uEP5fCEDroCbFm4rIoXbEduxmEGs/tYY5x29LtltG9sKE7V+wE8HigG2PmEf6wvX7xXRjmG7pT4UBea5dN988Z2BgFlIpsjwjN+5njQwVSZZirUEK6WZUSatFpVIGYHDVIL19vRTiwhaXI/Wlc84B4FOf+Qw/vfZavnL22Zy8AUtSk3nGLm5T8tJLLhnz+roK8q7Lrs94xnpdt9VqTXudQKkn/CxpmvLjK67gx1dcwXbz5nHFZZfxwx/8gDe/9a3Tntfb28u999034/v5NjGeN1HrVU3WnL8KPWCwZUN8j/uFu3biMLPfObJ/rVYodnjmzgBk/5LS/+mR/Ml8p5zS1e3VCg1mwJDNT1GDiuBvIWs/sxoELLt9CbBlVWo1eY4xmkajzjaVOe0AOSgUCiRJ2u17aIGoUAClCGS7m2+nWu3ArAECFdBKEjql192AZds/KAVP9sc+9phj+Ofixdxz773d1/78l7/w0pe8ZKPd49FFiwB45QEHtNdJN47/e/TRjXLdFStX8vznPW/Ma48vcf8RBkFAPirnrZNnlmUZAB894wye9cxdece7T+oes3TZMq657jredNxx09533ty5AN1IwJno6+ub8Tme93S2/NalBI8GzF24PcIIlvxuMeUr3YBjI4tcM/lymY0tamkw5jXRcD+H4wdisvkpq7+2im2OnQe4PaziT0v0frl/E36aDSQgSRJKpTJ5nnd7IRpj0DpHIghUQBxFNOsNsjRBRlHUjXm3xpBlGdro9ol6TIIWjJ3SGeG+kCMllUYfu7G8+pBD+OTHPjbmtT322IOHfv/77vdSSorF4hO6j9aa9556avf7IAj46Ic/POG4OI5nfN1TTz65+30YhjOOhnvwoYcYGFeRolqtYq3l5P/4jzGvf+2rXwVGAi9++z//wx6778GOO46NEtpn771pNBpT3nPOnDlc8eMf83+PPsqS9qA4E7vuuutGHfQ976kum5/S97kBRC6wgcXM0ZSucatZoiHJn5F1j11xw1KqJw9jQwsK1HI3iOXPzEai/4DeLwww/L4hhBGEf3VLg/G9BdIXpQSPBwSPB6g1CrViyyiUIKWiUulBa00YhqjOREm40klKKbTWaGPI84xypYcgzTIKhQLaaJRVZFlGT08PaZptMRXS33v66dx0ww3c9+tf849//INdd92VPM/5aDu3B+CXt99OFEVj8qVm6j2nnsq3L7yQI177WpYuXcouO+/MX//61zHHaK258frr+f0f/jAmWXY6J592Gt/6xjc46sgju9f905//PKNn+/nNN3PWpz5FGIbdmRLAJ848k8+ddRZvPPZYVq9ezezZszHGcNChh3aPue3229lv4UKuufJK8jxnzdq1zJ41C2stx77pTWPuc/zb3sbb2kuBUkr+/Je/8PZ3nMiGOOzVr+5GHHqeB8GjIcvvWEJ8V4HWfk33YnuHZe6h27H0N4spX1qhtaCF7bH0XNgL0h2z6pIVzHnrtrT2bRE+PJI6FP8mJn15wrxX7tB9refrfQyfNsSK65YR/COkcUyNuYduR/jHzZ9ypHPtuvpK2Z5FuZU6IV1Obmfpz2hNIS6QpSni5mv/2/b09zPQ30+pXGJw1SClcolyqcytt9xGVC5xxOuOQojOftVIN8bcjKqKO27/5EUvfPFG/4Dbbbcdhxx0ED+7+WaWL18+5r0wDOnt6WFw9RMPANln773ZeeedufyKKyZ9/03HHcfvHniA/zduEFuv6+600wZHK15x2WX84Y9/5HNf+MKE9/bYfXde8uIXc/sdd/DPxYunvMa+CxbwzF135YabbmL1Rvi7ms5v7rmHw488kpUrV27S+3jeU0n2vBS9jabwyyIoYNxWbuuQJtH/xshVowKYJLT2a1K4c2arRsnLEohsdx9sY3rgwd9NeE0I0Z0ZSSlxlY9GWGtpNRt86azP8vrXvZ6ddt6BK6+8khNOeAeDg4MMDg6iWymPrVzKwHbbUQgKvPzlL0XceOXVtnfWAHNmz6FQKNBKWsRxTLVa5d577qfS3zdmoBJC4vJlXdv6zkA1vtzSphiotnZz587lv6+5ZkwliC3VB9//fl64xx685fjjN/ejeJ63CWzoQNVs1LnwvK9xzOtfT29/D5dffjknnPBOatUqS5ctpTlc49EVS4h7Kuy006686AUvQBaKRSqVHoy1IGDlypWsXbOWMAipDg9PeJAt/Qfk09ny5cu54MIL+el1123uR5nWi1/0It7wutfxjne9a3M/iud5m0kn4Xe8PM+ZN28uudakWUYcFwgCV1s2jmJkEFAsFSlXKswaGKDZbBLU6w3KPW4WJaWiXCojpSTP8zG5QN6W4b8uu4w1a578LPOZePZuu3HgIYesd0Kx53lPL9PFNwRBwIoVKxFSEIUhUspu0FUrabnq6YFCKcX9993P0Ue+lqBYKLRD0wVYl/zb09uDMXZMyHOnKu768LOuTeumn/1scz/CtNa3ULDneU9Po2t/Thg3jCEIFEa7akitpAVYkiShGBdIWwn1RoPKrNmsWL6cMIqQ9UaDYqnoelEJgTaaWq2G1jlRGKGkdKHr1pW92FIiAT3P87wtX6eaerd4NVCr1SjEMUpK0iQlCFzdP2ssaZYRhRFJo0G9WiMMQ2QQBAwNDbtkXuEuVogLCCG7eb1+huR5nudtDFIqioUiQ8NDI0EX7UlQrnOElGRphjGGo44+gjRJCKIodOuEamTUy/JsJGPYvdptL7w5KlN4nud5Tw8WS7VaZfas2dRqNcIoRApJnuWYduEJbQzCwktf+mIazQQppUIb0+7W60pXdDKGV69ejVIKFQR+yc/zPM9bJ2PNmIa6ndSlTtUik2sqlQrNZrO73KeNJo5jLJZCsUCxWKRQKHD//fcihUDmOgdrieKIPM8w1hCFEWmSUi670h7jm+Ktix/UPM/zvNE640gUhSBEd9VOKUWSJKRpShRFGAGNWp1CHPJ/j/4fQkpkFIYEQUCSpN0aS1K6/anONMzvUXme53kbgxCCNE26e1PWWkqlEkEYYLEIBKVSkWq1yhFHvB6AIEkSCnmGMRqdu0EqSRLiuEC53M6jsiPJW0II/LjleZ7nrUunUoUd1XE305pioegK0gYBYRSSZTl5nqOtpdFosNPOu/CyPUe6nUtjLFm7MC3C9SwKwoA0TRjuVKYQo1rRjxqlOtXTjV/p8zzP83Dh6NNtFykp0UYThCG0+yEqpYiiyDVpnaT3ngyCgCiKSVNXkbtzUBhG7kIT2nb4UcnzPM/bMNoY6vU6aZq2i0oIrDWkSYqUEq21K+k3itR5hpKSMAi6a4aFQgEpBb2Vnu6BI/2oRk72e1ee53neZMYXpO0QQhBFkauGBKRpgjUWqSRZmlIoxMTR2HYkEinJ8owkTdqbXBlZmrF2zVqqtVr3wMmW/hQCaUH68crzPM9rm27pz1U5crX8rLXkuSZqD0w9lQo6y9GjyvcBBHmWIaXsxrMHgQsVLJfLZNlIUdHRHX6nm0j5WZbned7WbXQe1XiBlJTLJZfk2w5RT7OMLMtGDVxju6jLQlxwSb3KtSmOogiEm7ZJqdpJWpv6Y3me53lbg9zodmdf3Q1PF9Dt1hEEAfm4zguyU2spz3OEELSaLcLAlV7vlE6aKoF3stnTdMd7nud5W6/O2NAJWY/jmP7+PqRSYF3UebPZxIybjsksz8GOVLjtzKhazZYrrdSpeDtuj2ombT88z/M8DwBj21F5gizL0NpgtCbXrtZfsViYMAmScSGm0WgArvNiqVxCKUW5XO6WUFoXO9VipOd5nueNk6YJabtskjFu/qRzTRxHSCkxelwe1dDaIcrlMtoYgjBgcHCQMAzRRpOm6ZSzptGvj55lzbQuoOd5nrd1sNaCFJSKJQrFIkopms0m1hhUoLpdOjqFbDtkpVwmy/NuwERPT083O7gT3qfHjW6e53metyFMbmg0G1hrSdOUOHah6cYY0jQlDENKxeKYc2Sz2XSRF+0Ov1madePbO7MmJSdP3PI8z/O8mZBKtMcaVy09jgsuylxIoiim1Wqxdmh47DlRHJPnOXEco3ON1po8z2k2mm7t0FpfNcnzPM/bKDrV0rv1/Yweea895kyoTCGkII4jsjxzoeVSEAQhAEoFT+oH8DzP854epopXCIKQNWvWEkUReZ6TpSnGWPI8J81S4igmCsOx52AsQsj2l2tmZY3BYmm2mtM+iOkkH0sJxvhwdc/zPA8YaQ01nrW0Q9BxEX7GIqXL5xUIWq0WMhg7UMksz9B5jpISYw2FuIAQglKpRBxFvv+U53met8HGpy8J9yLWGprNJuVyGSEEQRgipMBiseMmPbJYcMlVnXIWQ8NDRHFMs9miWCy2Byo/Unme53kzN34J0AKFYgGEoFQuk6YJQki0zpFCUogLjJ8dyTzX3bh1ayyVSgVrDYFS1Bv17nKeq3grxyzvdSqn++rpnud53mSkGDtuWCyrVg3SbDbQWgOCIFDoXLv8KYHbThp9DXBlk5RSCClo1Bs0my2MtSipNujB/AzM8zzPA9wkaHRn+DynUCwwa/ZsBJCkKXmuCcIAEBhjCcYPVEmSjCnJ3tPbQ7U6jDUGY/yA43me5208VgoQUKvWsNZi8pwscx3mC4UYpWS7KPoIGRdisjwn1zlCSIwxKKXaoxvIdjX0TmmLMWuN7bXH8eUufPSf53neVs5OPhYoGYIIUFGIEZLcQhCFIAXGgM4tSZqMOUciBGEQoJTCGE2hUHBLfhaCQGHag9Hoxome53metyEsFiHdxCcMXF1Za63rQ5VrtDGE0bjwdKsNuc67MezDw1WCMEAqRb1eX8cNp2zi6Hme523lJotXCIOQNE1dzi4uFkIISJIUIVzMhDHjitIa6xJ1OxEXxWKBarWK1nm3j/2UDyFGvjzP8zxvtE4HXxgZK/Iso7+/nziOsMZQqVQA10neHWoR4+r2SaUUSStxm1ftKVJPTw/Dw8OkWdbdoxrfOHE6PurP8zzP62wbjd4yCpSiNlwlTTPiuIBSCq01xWKJIFBI6b5Gk0oqSuUSpn3BLM9I05Rt5mzDQH9/d49qMlO1nff7WJ7ned5kE5xca+Zuuy0qUGid02w2QUC9XqderzM8vAbG96MaaUUvuhtccRyzYuUKP+B4nud5MzI+CnzC+1qzZu1ahoaGsEC5XEZJiVKSKArp6ekhy/Ix58ggUORaI5XCGksUuVbAs2fPXu8HE8L3q/I8z/PWLQhc6tNA/wA61wRBgNYub7dQLKC1nrCKJ5MkxVpDnmUgoNFosHbNWoSQrF27dkwe1fgSSuD3ozzP87wRch0TFwtUh4ddfVklabVa3UrrjXodrQ1xYVw/qkIhRuAq1iqliOO4ndhrmD17zrRFaf0g5Xme582Mpae31xWMMBZtNIEKCMOQKHKVKVrN1pgzZJ7n3cQrN0CBNhqjXV97IeWESrajuYFs+jVJz/M8b+vQSXma8n0DSsruEp9SCmstuXaNE9M0JQjGRf0J4WZT2miwkKYJYRjRbDW77YAtbvY0voSSQiAtiHHjmJ9peZ7nbb1Gt/YYP2hJKVCBm0GpQFGr1kCAkq41fRTFmHxc1J/ONWmagYUwDJkzZw59vb2US2WCIERJgVKye/PJrGtN0tt05s2bx3tOOmmz3PsTH/3oZrmv53lbrk5bD9keN8ZXmbDW0mo2SZIEJSVBoMjz3J2DwGhNML7Db641xUIBqSRpllKv1RmuDlOv12k0Gk/ah5uJz37mM/zoBz/YoHPfccIJXH3llVx71VV88P3v36Br/Oaee9ZZtePJEEUR1199NVddc033tXK5zDe//nWuv+YaLvvRj3ju/PlTnn/Ol77EdVdfzQ+++12e+cxnTnj/U5/8JO9773unPH+PPfbgjA996Il9CM/zntYmBuC5SVEQBKRpRquVYLQhS2E9TwAAIABJREFUSRJynYOAZnPs2CNLxSIIQZ677ooqCCiXK5QrZeI4QhuL1qYb+bcl5FYdctBBzH/Oc2Z0jhCCX9x2Gye+/e389IYbuPInP+HQQw7hrjvv3CI+04a4+aab+PiZZ7JixQoA9l2wgDtvvRUhBN/45jd5+OGH+eH3v89HzzhjzHnPefazuf/uu5k/fz433HQTjUaDyy+9dMIM6UUvfCHPf+5zp7z/W48/ntcffTTbbrvtxv9wnudNq/b26uZ+hCl1AiUmE4VBtxFvlmXEsQugCIKAMIpQUk0sSpvlOUZrlFRoYygUCkgpaDbc1MxaC6PWGzf3/tOdt97Kb//nf2Z83stf9jJKpRL7HXggP/jhD/nxFVdw4CGHEEUR3/z61zfBk25aO+20E+VSidtuv7372rlf/jK//Z//4T9OOYVbb7uNT511Fu/7wAc4+sgjUcptTkopufSSS7jtjjs44uijufi73+U9p57Kqe97H0e89rUzmim2koSbb72V8889d6N/Ps/zxhq8eCU2av/8VbD2M6s37wNtoDTLKJXLBGFAHMckSdIumyQRgJACMb6EUtSegmmtUUqSJC3yzHVg7CRmbSmOOvJIisUi1//0pzM+d5dddgEgz8dmPJ997rncc++93e/nzJnDjddfz/133839d9/NBeedt85r/+sBB3DvXXd1z3n3O9855v37776b/RYu5M5bb+X+u+/mvl//mj12333MMS958Yu56847u9c48xOfmPaeF3/72zz0+9+PeU1KyerVY//jvefee/nOxRd3E7h33HFHAM763OfGPuNvfoMxhou+9a11ft7RfnTppey2225P2Vmp5z1VNF/dQKTt/8807LjzLpv3gTaQEMJtK1mQSlIqlbrBemma02y0JgZgZHmOsa7/R7c/iNbEcYw1nT5U7qT1nU1tih9apVKJj51xBgcdeui04fJTufa667DW8vMbbhizH3P1tdfyo//6r+73P732Wv7+j3+w98KFHHjIIbxwjz24+cYbp7zu7Nmz+cLnPsf7P/Qh9l64kHecdBInvv3t7LHHHt1jhBB8/rOf5U1veQv7LFzI//vrX8fM4sIw5NsXXsjXL7yQvRcu5DVHHcVrDjuMAw84YMr7DgwMcP4FF4x57bLLL+eQgw/mXe94B+Vyufv6xd/7Xnd58NhjjgEgScY2JgN48KGH2G233aa852T+9vDDAPT398/oPM/bWjWOrrP4sUU8/rfHWPzoIkzvSLBBslfLvff39ntzNKsvWMXify4C6P5Zf1ON5bcsQc/T3dcAbMmy+LFFIMD0GRY/+hiP/+MxFj+2iOz56ZP7QacghKBSLpPnOXmWk6YpUkoXJ5GmhGE0odqRtNagcz0SdaEU2mjyXHejNrYEP/nxj3nwwQepVjdsXTbPc/ZcsIAsy7j80kv5zT338I3zzyeO4+4xJ73rXSilOO300zHGUKvVeP2//RsDAwPtUvQTDQ4OsueCBdx7330YY/jDH/6AtZZDDzlkzHEfPOMMli5bhjaGc77ylTFLbFmWseeCBVx51VUYY1i5ciUAJxx//KT37Mx0lyxdOub18y+4gC+fcw5ve8tburO3PV/xijHHbD9v3pR/RytXrdqgXzKstbz28MNnfJ7nbY1Wn7+KHZ+1Czs8Z2d6z+tn+c3u/2MbWlZetZwdnr8TOzxrZ2aftC3Lb1nKrNPmUPnPXqKHYnbcyc2imoc0iB6IkWskoztirP7GSsqX9gCw5E//ZN6rtmeHZ+7Mdgt26N5nc7PWUq3ViKLIdZMPAlcdKXd9Ed0Ma2ykYBBGEapdWt0Yg9Ga3p5eWq3WyA9xMTJLkkJ286qeLPsuWMCsWbM4/Mgjn/C1Dm/v1/zrgQfy2U9/ml/dcQd77bsv1loOeNWrWDruh/+qwUEA+np7qdVqk16zr7eXa37yEwrFYrfklJRjB/nRA+z45UeAUrHIFZddxqzZs5Htv+vOvtJ4nX8v48M+wc0Qr772WsIg4FsXXsjXzz+fRx55hDe99a0ADE0z0FfK5Q3+9zpvmgHQ87wRO+4ysmQnV6ruOLP89iX0fKMPUXU/O4q3FFGD2wDQOLZG39kjqxbJK1vMeeNcRCLAguk1yGFJ8+AmO+60C62DmqjliuD/3C+16p9bzjZOHMfd8STPM6SSZFnu8qjCiCzLXEm/UaTO8k5GL0oF1Go1Gs0mFku1OvkP5ifbV84+m1aScN1VV3HdVVfxgdNPB+C6q67aoN/ktdbcfMst7LlgAXmec8N11wHtSJUpzhFy8tnlLrvswi0/+xkf+fjHOeSwwzjg4INn/MO+t7eXO2+7je9fcgmvPvxwDjj44GmP7wx0081+sjznHe9+N8e88Y3stttuzJs7F4Cf33zzlOe8+EUv2uCUhOGhoQ06z/O2JvlOOY//4zGW/2oJa84bZO3Zg8R3FAHQcw2lG0ojBxuIfut+KbUlS3xfofuWDS3xfe2JhAbTbxj8xkp6vt0LFupvrKLnahYvXtT92lJkacY2c+aQpinFYok8z9vVKQwIaLVa5FqPOSfQ1rie9ViM0RSKBYSQWGuIohAhmNBtcfz3m9qXzzlnzPfz58/n6COP5IeXXsqf//KX9brG/XffzdDwMAcfemj3NWstS5cuZWBgAIA77ryTE9/+9jHnzZ41C4ChtWsnve5nzjwTgN/89rfr92EmcfJ//AfgZkPro7O/FI4KdpkzezY3/fSnHHDwwWNmfosWuf9A586dy7Lly3nwoYcA2GvPPbnv/vu7x1UqFUqlEiedfPIGfYYH2tf1PG9qy29bwpw3ze0OMvXX1ahc2tlWsDBqkcT0GWxoUYMKG1nksvYKy7jJUc/3emi+pkHziAY7PGtndyUFpZ9UmHX6+nfBePJYlq9Y4faodE5fu+6flK6BohSSMB5XlFYiUEohhXTtPWbNJs8zrLVkWQaIbmVbKaUb0J7k2n7XXHfdmK///d//7b7+93/8A4DXHH44H/7gB6e8xpvf9jb6+/o4/b3v7e4Pvf7oo9l555359ne+A8B/XnQReZ5z7pe/jBCC3t5efnL55QyuXk11imW/2+64A4AX7rEHhUKBz3760wghKBYKkx4/mXvvuw+A/ffbjyAIOO2UUwAol0pTnmOt5W1veUv3+1WDgyx67DFu+u//5uUvexngBq9LL7kEYwy//8MfAPfbyjXXXccF553HscccQxAEvPQlL+H6a65hzdq1/O6BB8bcp1wu85znPGfM1w477NB9v1KpIIR4QgO15201IrBF9/Oz/sYaKAj/4n4exb+NGfqY+4XYlg1LHvontsdiQwsCZN2t6rT2biGHRlZ4es8ZYOija+i9sA+RuZ/VlYt6ab6m3j1m6MNrae07ttDr5mKwlIpFt9du3cpdXHDLgT09PWhjsHrcHlWWZQQqwBiD1oZms4mUslugVnT3p2y7ftOWGYZ83L/9G7vsvDNnT5HT8/Ajj/C2E07gi5//PG889ljA/dD+6vnn85Orr+4e99qjjuK73/kO9999N+DCtk993/umvO+l//Vf7L3nnlz07W8D8Ku77mLJkiXMn6YixHi/+OUvufGmmzj7i18E4Pd/+AN//dvfpk1qPu9rX+P0976Xc0eFzx9z3HF84PTT+fr553f3yB555BEOO+KIMcuRXzr7bP7+979z2imn8IHTT8day52/+AUf+fjHJ9xnt91249JxVUDu/+1vObVdseJfDzyQ4Wp1s+fXed5TwazT5rDqkhUgoXRtecx7c948l+U/W8rixYsQqWDW6XO6e0xypWLxY4vYccddSPdqEf5xZMYhmgIE9H5lZA+rcFeB0jXl7pJf4fbimD2uzUngcqmkFBhjCYKAPMupN+o0a00ETAjkE7dc91M7MHs2/QP9xFHMmrVrqA5XmTV7FnffdS9zd9iO/Q86EDCjQtVd6w+jTbf44PhZ1ote+OIn6WPPXGdvZ7ofrutzzBM5/oleQwjBfb/+NUe94Q0TAkBmcq3p2risj1/cfjtfOe88fnrDDRt8Dc/bqnR+159yQ3yK96Z6/Ync6wl44MHfTbydECO1/qR0ybudn0WiXeev1uD7F3+Xo48+kiiKuPyKyznh7SdQrVZZvXI1a4eGCOOQvV65sHtdaY0hDEOSJHXTSymp9FRIk9TlUmGfdr8tj67s+0SOeSLHP9FrWGs55ytf4fJLL500qGJ9r/VEnvlNxx1HrVr1g5TnzYRl+oFjqvc25H/Vdd1rM8ryjCAMwEKxVHQDm5LEUUQUjd06kXGhQK5dO2C3L9NHsVhCSonWOZ0heaoOv97mc9U11/Cb3/6Wr331q0/6vbfddltOPflkXnv00U/6vT3Pe+qyxlAplykVS93WHlj3S7MUwlVJGtePKqjXG/TPnoVSEoGgVhtm5cqVzN12LkmaMHo4NsZMyBj2Nq8PfeQjm6WS+4oVK9h3//2fdrNtz/M2rc5kJ81SKpUKUeRypzqToTRNUa2xgR9BGAbt2ZQkz3O01pRKZdIspaenF4FAiNFLRBae5PB0b3ppunlKo+hxuQ6e53nrIpQkSRIEglarhVKyW9xA64y4ECIZV0IpUAFJkqJ1jpBu2pW0Wmit0blu71GxRbX58DzP87Z8k40XUkikUhhrMMbQbLrZk9a56/qrFK1k7IxKprkrVRGoABAUCkWiKKJULCGlQMrJy/h4nud53kwJAGvRuXYBFUFAlmVYi5scWTshPF1aY8jzjFznGOOK0yJABQohJFL6GZTneZ43c5PtYWtjEFIShAHFQrGbIiOEwGDJc40YF6ooR8+YrLUoJenr66NWq9FqNYGR5b7xhVY9z/M8byashVqtRp5l7arpGWEYkqYJURgSx/GEWn8yUIpyqYzWhiiKyPOc1atXU6lUGBoabl/YdhtbbSmdfj3P87wtiHBJvWYdi3BCQF9fH1EUUygUCALXdr5QKKKNpdGoT9hykghoNBooKTHGUqlUUEpRrVbp6amwxWaLeZ7neU851kKz2URrTaPRwBhDEAQud7ddZ3Z8d3mZJAlpmhIXYqQUNOqNdvIVRFHUrZTuE349z/O8J0pKQRzHGOvyco1xTRNVoEAIgiAkaY3tQB5oY4jiuJtwlec5YRQSRTFpmmGx7c0u027UN9Kafip+WdDzPG8r44q8uwyoaYYIAfRUKhhtkFLSaDZQSrqeiNLlVI3vDCjDIEQpSZqkCCG6Uy6lFIVCPOaOI0VpPc/zPG/mtNYsWboUhKt2VIgLpGlGkiQkSYLW+YTJjpRSoLVpd1i0xIWCO8haCvFIYcCRhN91P4hfHvQ8z/MmEwQBPT09rk9kO0BPKYmUiiAICcMQxqVFyXq9QRSG0O47tWLFcrQ2pFnKylUru+WTxkf9jW4j8WQ3UvQ8z/OeuqSU9Pb20mq1iOOYIHQre3luaDVT5LiasrJcKqKUIgxCpFQM9A+g85xyqeyCKcTMAyj8HpXneZ43GdPuZZjnOWEYUG03Xk3SlFKpiDEGOW7MkaKdxGusQec5URQhpSQIQ0rlElrnGK39cp7neZ73hBlju3X+4riANpo0TQlUQNJKKBQKNFvNMefINE3dINXep2olCVJJGo0GjUaTKIrcmuEM+EHN8zzPm4wQkI3q+NBT6el2BXYR5xHxuNZFMooisjRz4YECAuUaWVlrUFKitSHLJ0ZheJ7ned50puo+LpUizzOEgFqtClharRbWQpIk3WoVHVIguu09jDEkaUqWZRTiAnmeu6ypCTezCDE2qKLzABujJbvneZ739NSZDEWRS38yxmKMpVgsovOcNEvbObujzqGd5OtGMIFSkqG1DaIwQrXb07vBaHTjREYl/3qe53ne+lFBQBRGNJsNlFJIKZFKuqITShBHMa1kbGUKCW4kcwETuNlUoeBqLwnRbpzoZ0ie53nezEw2drjE3hYgiOOIVtJykyFBO/pcEkbjlv601qxZswapFDrXBCqgUCggpKBUKjO6zYfTKZLhW354nud5MxOFIWuHhlz6k5TEUQzWdf7N8xRrNdm4GVVQqVQolEpkWUoh7umOZEopsix11Wmn4Wdbnud53vpKs5y+vj5XWzbLAbpFI6wFi53QsDeoVWuEhYKrYmsNSZIgpVsvjAsFxDTNEoUU4ItSeJ7neetJStGtaNSpnO5qzipyneEC/Mb1oxIC4ihCSYkQLn+qk3y1bOmy7oGd5b8xUX7Gti8i/czK8zxva7aejROlEG5QynLSNMVa2/0zDGOUUoyroITMshzTDSl3jRONcSPdNttsMyHcvPOPoweuTiuQkQhBz/M8z5tIG0OjXicuxCgl6entIQxdhLnRuatUkbTGnCNp95pyFdNd2Hmr1SIuFGg2m5MEoE/MnxI+TN3zPM9bD4FSDMya1d5mUtSqNdI067b3SJKEVqtFbc0K/vqXPwAgo3bwRBCGCCmRQlIsFpFSEsfRhEb0o6umd4yvnu5nVZ7ned5kcq2pVqsU2y2lOmX6hJCEYYi1lmarxYoVy2nUqwwODiKNMeRZjrUGrXOi2J1Uq9XIsoxuX/q29dmL8vtVnud53mSTlkAp4ijCWvd+FEVkWdYesNzX2qG1fP+SH3DP/fchpSDQ2hBGIUYbVKyI4wLVao1yubzeDyPbEYOe53meZ62dsnBRlmXkeU6WZVQqFdasWe3K9yVJt/DEwMAAc+buSaFURACBUpI0TSkWi1gsw8NDzBoYIMsyrLXtjOHpl/JGYuD9TMrzPG+rZEfKQYzeIho/qwrbCb8uUM9QqfQQBAHaaFdGSQiUCnjBHs9D5y6wTyIElUqFIAhQUqGkopW0yPKMWbNmEwShi+zzg5DneZ73BGlj6Ovrw1pDqx04Ya1FSYnForUm1RmlYgmNwViLVEKQZRlGG7Qx7ZbAijiKqdWq3VD1yVgx8uV5nud562KMIU0SjLEU4gJSynYOVYhQkqhQIGgXqhUIpBDIXGs3ZZMSaw31eo3hoeH29EtNW0LJwoSoQM/zPM+bihCCKI4plUouFSqOCYIAYyzWQp5nSKkwxhKFkVv6c9EXFmsMAkEYhkRxRJKmtFqtaW/oe095nud5MxEo5fJ1kxYWS9BuJ4WgHa4ek+c5xWKRPM8wxhBkWQZCEIQBsl3XL2lXro1GtQMeU4miPTYpBMZajB+rPM/zvPWQa+3azochgQraaVCutJJo90csxgXSNAUZgBLIKC6QZxk614AbpIrFUrcviOd5nudtTHmedyunF4vFbnRgHEfkeY7WmjCMKBQKAMhVq1YSxREqUFjcjCkIFFJJwnbE3+ioP7/U53me501lfXJqB/r722NNQJal3RU7rQ1hGLiitblxsyoLsrend0xknxCSVqtFvV5nzfAQGusDJjzP87z1IseXPh/HWli+YgVh5MoldXKnWkniWke1By0pFXlmXGk/BGitu+UsaMex9/X1kSStbq7v6D0qX8vP8zzPG299CpQrKYjjGIFAa02ea4wxhEFImqQkSUKu3VaU1q6ChZRSopRCKYk1hiAIieMYYwxz581zHRdHLff5Sume53neZNZn/a2TN1Wr14iiCG1ccIUxhiBQRGFEoAKEkG55UCqkMW4G1SmV1Gq1yLPcZQvDhD0q02kJMvrG7amen22tv2KxuNnu3dfbu9nu7XmeVy6VCIOALM+I2hXTlVKAIE1TtM4xJiMuRKR5ioyiCK3/P3vnHWdXUf7/98w559Zt2RQgDSkGpSuIUoN0DEUERLoiCAIWRH600JQiRUVAWpAmIFVAOgkBAkSMlCAo8KWGFLJJdrPttlNmfn/MuSd7N7vJpqPM29c13FPmzLm7e547z3zm80RG4RcXT6xUKtTV1VEqFpGOGXH1VeG3P2ywWjIjhg/nuUmT1si1Xdfl6SeeYN3Ro9fI9S0Wy+cbIQRd3d3U1dVTLpWTAU4YBvg9hBVhGBEEPo7j4DpSEkWm1IdMO+RyedCaKIxobGj8zKT6zjnrLPbdZ5/Ftm+z3XYDOv+mG25g8802Y7uddiIMw2T7ZZdcwtidduIbO+yA1ppHH3qIYcOGJfu11pTLZfbYe28qvp9snzZ1ak37WmvKlQrj9tuP7u7ufvshhOCv993H9w4/PHn/j5de4oILL+Sxxx9Pjmuor2fSU0/xqwsv5NHHH2fvvfbignPPrbme1pozzz6bZ59/fon9qvg++x1wAO3t7YRhyLY77sjLL7642GdhsVgsqxwhiaKIQqFAfUM9YDJ2YRiZeCPA9wM8z3jPRkGIDMIAz3PjkZNkwYL5IIwVe3d3N0KYCa81zZgxY/j444/Zdc89a14D5bgTTkApxe0335xsW3+99dh57FjOveCCmnTmK6++ythdd2Xsrruy+9574zgOU559drE2r7zqquS4XffckwXz5/PMU08tcUR51umn83/vvcdHH38MmEDy/JQpnDd+fDz0NTz5+OMmcPYIXgA777YbY3fdlV12350/3XILl15yCTtsv33NMTffcktNvz766COeeuyxpF9KKT788EOu/N3vBvz5WSyWzxACZr//yZruxRLR/ThBaBWRy+Woq6+DeP2U57lG8YeZSvI8F01EEAY4rosslyuIOMKpSJFJZ4xJrVZmbVWv9VNrah3V+uutx/R//Yuurq6a10DRWnP0D37AhhtuyMZf/jIAN0+YwNy5c3nq6adrjlVKUSqVKJVKdHZ2MnbXXRFCsOEGG9QcFwRBclx3dzcHHnIIQgiOPvLIfvux/377cc7559dsO+2MM/B9n5tuuAGA7x58MK7jMHbXXRc7v3q9QrHIhD/9ibktLfzkpJNqjgnDsKZfRx9zDAjB/zv11OSYHxx7LNtsvfXSPziLxfKZYNasGaaGBoCG5h8PXaP9GQh9fWmPlMJ1XYrFItJxcBwnNqhN43kuAJ6XQikzFaW1Qnqei+s6xl1WGNukTDqDI436AvoPTv25p6+KYOa6LtOmTWPsjjvyzZ13Xq423n3vPT786CMmXH89Pzr2WHK5HIcdddRSz6vez0CdOhobG/vcvuWWWwLwcTya6snJP/sZm2y8Md8cO5ZfnnIKf3v00aV6LYJxEkl53tI7pTXNzc3J21K5jFKKnXbccennWiyWlUpptxId5yyksu3if+PlHUt0nNVO5WvGyi74YkDxOwUAit82/0bDQ5AandPJvirF7xTAPO+JRoV0ntFOcZ/aY1YH/ZWHch3XlPKo+Gil8X0/Lpzo47huIqZwHbPwV0oHicas/o3xg4AgCIiUWeobx7Q+O1J1T19d1X0vvvBCLr7wQi69+GKmTZ3KJptsssxtfO/ww3Fdl2OPOYZbb799ifNJVa647DKAJF3XH1/fZhsAJveRJgTYYfvtKZVKfe6b/sYbvPLqq1x6ySUUi0UuvPjipfZr8802Y93Ro7nl9tuXepwQggcffrhme2trKzvvtNNSr2OxWFYec16bRfdJHTizXBbcPo/OkzuSfS2T59BxTjuyVdJ66zw6zlmIv3WF0r4FREUQbGB88bqP7qL7uC50WtN21YLk/PJuJdrPb4MQOs5sZ+7kOYgOScfZ7bRdvWCxvqxKqqm83lRN0F3XBCyEyQKl0inCIIyDmyCMQpTSCAFuvr7OnIyxWG9ubiaM69eXy2XqB1DLQwgJqzhYnTl+PNOmTaO7UEAIwV/uuIMJ113HdsvxoG1vb2fQoEE8M3lyn/u3+drX+MdLLyXvfd/n2wcdlJgnVjn1lFOStFs6nUYIwdMTJ/LmW2/12e7oUaNoW7iw33698NJLbL3VVsz4pP/c88svvpj8dzX4/O2RR2qOOe7YYzkqTj9W+/Xi1Km8/I9/1BzX2dXFaKv+s1hWK7lH8jSdNwgA9xOXhb9ppeGaRorfLhANixi+6SgAso/naHl2DiM2HE1pnyLZR/I0Xt4EQHn3Erl76pDtJsujPY0IBG1XtDL4pKFEa0V0ndDByC+sCxrqr2tg1qwZNP9kyGq7T610v8EqCAJS6ZSpQYUw66k6IhzXwfM8vJSpixhGxhPQrZQrpDLmYeZISWdnB/X19bR3dBhbpcWuo5OX7BHEVvWYqucoRWvNL047jYfuv3+Z2zn+Rz9i0KBBfPLJJ9x43XV9zgP985VX+NkvfgHAsxMn0tXdzZw5cxY77pnJk3l+yhQAWhcuZPr06UsUnmQymX5VdqlUip//5Ce89/77fPlLX2LddddlxowZix23/dixAOy4ww5cevHFXHnVVYsd8/eXX+bxJ54AoL2jg1dfe63PfkVhmJg+WiyW1UPu4Rzz720hXC9EDYvw3jSp+/ZftdF88qJ5J3emy4gvmi+Sla3LDDl6kRo5GBOQv78uTmmBalLoeoXOKNIvZOg8rR1RFrReP3+NFA7UWvcRO5K9OI6DVsY+CQHFYtHI1BFkMhlaWlqMtRKm67JULBJFCiklkYrIZXOUiiXq6syH4EiJWMMu6q7r0tBrkercuXOXuR0pJT/8/vf58x13cMjhh5PNZmsk31WMVDIkDEMOOuQQhgweXDO/U2X6G2/w9KRJPD1pEq+++upS1ZFtra39LvS97eabUUpxxNFHM+OTT7j7jjv6PM5YjoQ8+9xzVCoVrr7yysWOeeutt5J+TfvnP/vtVzqToa2tbYl9tlgsK495D8yl9Yb5DD10LdbZZgRytkPuvjirldE4c53aE+IAozMad6Zbs0u2muey96FHNDJkwR3zGPKDtQCofL1M+u9Z6q9qpP7qRuqvaWTYnuus2pvrg77EFNUlM37go9GUisXkuVgNXPUN9aTTaTKZLK7jIoUjF60Mlg4IyNflAU0unzORcQ07po8ePZpJTz5Zc9MnnnDCMrczMR5lXHPddURRxO+uvJK999priXLylnnz8H2fx3rN7ywP/3rzTYYNXVyps8MOO7DB+utzwkknobXm8KOOwnEc/tjHaKknPzjuODbfbDOGDx++XP0Z3NzMlB6pRIvFsmrxv1Zh2Hc2UyDsAAAgAElEQVTWhgjQEI0OqbuzHgDhC3T9otxU6w3z6DitHe1qcMD51ASqaHhtVqbhN4Po/mEn0YiI9N/TALjvpIjWDkn9O1XzWq30st+r4rhGJJHLGneKQYOak1L0YEZZpWIRKSXlcolSqYh0e7hOVF3US/Fq4VKphBpAFd+qmGJVVfz98MMP+eDDD5k6ZQqXXnwxt950E0cdcQSXXXFFcswTjzzC3194od82dtxhB+rr6/ne4Ycnfbz73nupVCpM7iVP781ue+2F4zhssfnmK3QfvddEVbn8kkt4ffp03vjXvwAzJ3bu+efzta23ZvDgwf229/7779Pa2soNf/zjcvWnrq6Oaf/853Kda7FYlh3ZLpl/Zwudp7Uz518zzcY47gw5ehjz722hcEQXrRPmU96jTOMVTYhYVt1xWjsA5R3KuB8tUvpmn8xS/HaRofuvnWxrvLyJYFOf9ova6P5hF7Pf+4TyjktXEa9KRDU0SEE+nycMAjzPo1gsEASBkaFLaRb5RiaSp1IpUqkUrop6zC4JUJEin8/T3d1dswB1TXPoEUewzde+xj7f+hZvv/MOv7roIj786KNk/xlnn83oUaP6PT+byXD2uefWnAOwz/778/VttiGTyVAul7nst7+lUKiVcpbLZc44+2yGDFk0ETn+3HN5+513lukefN+nra2NY485hpvihcdjxozhvAsu4PleQfbJp58mUopNN9mE56dMYfobbzD+3HMX+yJwzHHHsdmmm+K6LmEYMv7c83j/g/eX2pfdd9uNSCk+WYJww2KxrFyGbzGKrh93opoi1tp9OP52lWRf6tU0w/Zbm+KBBTKTsgw+fqhJ/UUw5Mi1qGxvFMOp/6QY9MvaL7CDTxpKavqiEZPskAzfZBTdP+xCDYlY+5sjcGatvue5EAKN7tPZKIoioiiiUvHx/YB0Oo3neXR2BomdkuM4KG2k6/V5FzHxoUf1WsPXIZfPkU5nmD9/HulUGgS88cZbDBs5nK9uvRWus8hwNjGojeJRWI8RVZWvbPnV1fBx/Pex2aabct0117DDcq4FW1lMmTyZ/3fmmYspAS0Wi2UgvD79tcW2CSGQseu5EALpyJqpFYUm9APuuOU2xn1rL3L5PBMmTODkk0+ivb2dYrFEe0c7s2fNZsfddmDOp3NZe61RyFwuRxAGSGmibbFYREhJJp2haVBTnx20prPLz5tvvcXzU6bwpxtvXGN9uOTCC/m/996zQcpisawyquXlk/cCsy5Ki6Rahx/45PI5PC8FcX0qrTSu6yKEQy6XRQiN1FrheR5aKaQQ5HI5s4aqUlmqpNGWpV8+zj73XObNm7fGrt/c3Myxxx+/xq5vsVj+d6kaRPTlTCGlQDqLMnN+xSfwfcIwQKNRShFFEY7jEIURpVKFMAyRXd2FJPJpbXKKQeCTSnkMHtL/RH51aGdHV8vHmePHr7FrH3/iiWvs2haL5X+bxHLO6XtZk0RQKBgBRT6fJ5PJJubn6XQKKaVR/Pkl6uryxjTddR0TxZSZZwqjEN83zhRtbW3IHgFJSrnYPBUsXjjRBi+LxWL5/CKEQEWqz1ig4oFR9WXqITq4jovvB6Zor1Zk0ilKpRJaCKRWOpGVS8e4qGcyaaO6iBWBNvBYLBaLZSBIIWuydH3hVyo4joMf+Pi+X7O0qaGhgVKpTMpL4TgOgR8gEQLP83Bds57Kcz2C2JjWcR3kACTqdq7KYrFYPuf0U00j2a3NSwuQccUHRzqkUqlEOS6lpFgsmOVCFVOCSgiQAgiDEMdx4xRgRD5fl1RgFPTvglulP3d1i8VisXy+6BkN+szGKbM9ioV8Sqlk7VQ1ligVkfIyOA5EKkJmc1mUVoRhAAjCICQKTeBypIMegCt6dY7KYrFYLJYlISR4KS92Qoool8sIzAJhv1Ihm80BwpSbiozAT3Z2miq51ZPS6TRBGOC5rvFeGsBgqbeFkk0FWiwWy+eMOLUn+3j8SyFRaJMajDQ6jMimM0SxbZ/xlIV8Nk9QqYAUKBWQclyEFshc3kQvpRSONPU/MpkMURSRz+eNQ7yygcdisVgsKwNjjeT7psKv48TiCymIwtAELqVJpdKxDRPIcqmElIJMOmPyiRqy2SzSkaYelcVisVgsK4DSqmZpU77eOManUh7FYgnXdXEd4w7veR6VSpkwLlTrOA4yk82aYZk2RRIrfoVSsUS5VE4Oqk3lCUDGL4vFYrFY+ifx/otTg8I1MaVqep7JZKhUylQqZSIV4Vd8spksKc8jiiJKpTKyVCgiHYlWGhUpHMehUqmYoFVZs7bwFovFYvnfwpMO3YVupOvg+wGu55JKpXEcl2wmCwJSrksU2ylJKZFeOoVSKrGtCMMQL+VRKpUolWygslgsFsuy0VNY1/slpMSNR1Na62TEpbUmCIO4BEjF7ItrU8kwCJBCmjkprchms5TLFZqamnBd17jdLsWZoreFksVisVg+vwghEFLEdakiQBk5oDSy83w2R8fC9pqY4XkeUaRIp9NmvkrL2CVJIKWUFIoFk/aTDqVSiVQqRRirL6p27BaLxWKxLCvVbJ0QEqXMCKpUKtHQ2GAsksIApRRhFCKEwHU9hBQ4jiQMI4QA13Nd6vJ1IEQiTS90d5POZMhms2it0EqBY4OVxWKxWFaMMAyoq6tDKUUQBNTX19eMrAqFbqIoIgh8oigiDH1koWAKJaoowomLJw4ePJiGhnoaGhpsKs9isVgsy0xSCV6Zl9Zmm+t5psyHH+A4DuVSmVQqBYDnueTzdfh+AGjCMCSTziCDMDCjJq3R6Nhq3U8ccK2Nn8VisViWleogRwoZCyZkXKrezFOlUiljhO7FPrNhFBdNNGKLdDpFLpelXC4jGxoaTB5QCsIworOrk3QmTaFYiO3XVY/IWLsAWIn4Ra2FksVisVgsYBb7Kq3QWiGlQClNQ4OZn3IcSbkSV/GVEgQEgZmzUgiQkkhHxj29mt1zpCSdTuNXzIgqUlESBZeEDU0Wi8ViGQhRFFEsFlEqQimF7/sEQQACRPw/hCCKNJVKxYzIgjCMJegS1zNGtI7rEKmIUqm0xAsmuvhqmtBisVgsliWgtSKXzREEZhSV8lJkMmmiMCKTyVCdjjKCcxGvtQKCwCcMgyRHaIKOoKmxyTgmLWFEZRrqu+SwxWKxWD4nxEUT1QBCQbFUxHVdYzARr58yRROLZDLGd9aRgigISHkppOMa2wrP80w9EN+nUCjgOJKu7u5Vf3MWi8Vi+Z+jv6ob0nWoq6ujXC6BEHR2duI4xnTCS6Uol8uoyEjXq4UVZS6XS4xnpZB4rpc4TQwdMgQzpLJYLBaLZeD0Nx3kxPEllUrjSIempiaCIEArjVYK13VJpVNU1Q/lchlZKBTwgyCZb1JaJ3nDDz74wNSr71GKvufFZVwky6HWQsmmAS0Wi+VzxhIKJ/YkCEOCIKBSqRhRhVaJG0UYGHeKYrEIGtLpDOl0GqmUJp1O4bqmFohSEY7rmOCV6PkWXblnELIByWKxWCx9URVCLLYd0MpI1av2SkEQ4EgHx3VMJQ+l0EAUhQDIlOdRqZhqi6a0RwWtjX5i6NChaG1WFVssFovFMlCE7HsgYwojVlAqNkEvleJFv1FiZitlNUtn/pVdBSOYMNUVRTxfpVCRwvO8OPW3bB20UnWLxWL5fNOfmCKMIrLZLPX1DQRBgOt6KKWJIlN/SiCQ0sFxHFwnLvORSadxXcdEMK0RCFzHJVIRlYq/2JzTQIKQTQlaLBaLpa9YIIVApjx838fzXErlUhJXjPoc0NosAgYiFZnUnxCCMIqQjqRULid2SinPW2InrGWSxWKxWJYFLQTtCxdSLBZxHIfmQc1JQAtj13SNJp1OEwSBmccqlSugwXEcojAin89RLldis0Av9mjqW0xRfa+0ncSyWCwWyyKkU+tYJGJVoNKKhoYGtNYUiyUKhQJCCFKpFH6lguea0RZaL1o6FYYhpXKJMAxxXMecBPi+kQ56jrdUMUV13VUVO8qyWCwWS1940kEpRa6+juo63mptKs/zyOfzpNOZuBZVCFoj0+m0WeQbKzQcxyGdTtPU1BTbKcWFRJYBO0dlsVgsnzN6WSglFeJ7UVEhlVIZEU8dVZdBKaUIw9As8JUCL5XCcR3CKMA1qr5FtUK6uwsUS0XATGxZLBaLxbKsaKXRUi8WrKR0yGdzSSbOr/jI2ELJdV0qomICmBKARkUhUsbDMCklURjR0FBPfV29qbgoYh37EkZINs1nsVgslt70m1lTqqa2YT6fJ+WlkgXCXV1dSdpPCgfX9XCjKDRDNqVQUuA4Lo7rkkKTy+YYiEyit+DCYrFYLJ8ztHGdkNDLIjYurCtAY5Y7qVjV5/s+QWjslFzHxcuk8dJp3HQKpES4DqGOkJ7r4TpuvF5K4nmuca9VilK5vPpv1mKxWCz/9fTnTBGFEZ7rJtJzv+ITqYhIRWilSaVThEGAkBBFijCIkNIx5X8jFeFIidaQTqfo7uo2QgqLxWKxWFYSruMgXIeKXzGuE1KSSWeQQhJGIWjIZLIopUGDCiOkHwSouGiVkMI0gsBxHcqlEo7rrOn7slgsFst/GYvmqCQgEVoiNCAFra1tZNIZXNdFSkkYhvi+j1/x0VpTKBRMAMtm8YMKUiuN67mEQQgIgjBASEE6naauvn7N3aXFYrFY/ivpzzkdQAUhmUyGSCs0mu7u7kRc4boujiPJ5/NEYYRSinQ2i0ynUgRBSCqdolIp4/sBjuNSKpWoVCqr894sFovF8j+OkBKtFW7sop7P543AQqm4ou+i4OX7FeMNKKVEACpSpDxTl6rQ3c2gQYPI5XLJ8E3HBRUFi1soWSwDobm5mW98/etr7PoHfPvbrLPOOmvs+hbL5wWtdc8yhmZbvCBYa8h4afxSmWwmmxzvum4SZzIZkxaMIkXF93GLpRL1qhHf90mn07iOQxiFRMWIUrGEm0mblnvEo+qwbknDu1VFY2MjW331q3R0dPDqa68N+DwpJXvvtVfyXkURn86dy/Q33qg57vtHHcVLU6fy3vvvr7Q+r0n23msvvrLllrS0tPDEU08xZ86cZTp/5IgR7DNuHNffeOMK9SObzfLEI49w2JFHArDTjjtS3yO1XCoWmfbKK3R3d9ecN+5b36K1tZWX//GPmu1NTU1sv912PPb44zXHVlFKMX/+fF559dVk2/Tp03no/vvZc9y3aG/vWKH7sVgsy4frSBxHUiqXqKuvi4OSA7H5RDl2U/c8F8oaR0rchoZ6gjBAOmaVcLlSjotVaWMq2DssriGEENx43XVssfnmtLa18dTTTy9ToPJcl/PGj2f27NlEUYTjOKy99tpESrHD2LHJcUcdeSRNTU1cedVVq+I2VhvDhg3jkQcfpLOzk7ffeYctNtuM4487jutuvJFbbr11wO3suMMOHH7ooSscqCY99RQXXnwxH3z4IQA/Pv54Ro0cydy5c0EI6vJ5mpubuWHCBP50yy3JeeeefTZCCHbYeWdjVBkzYsQIzhs/viZQnTd+PHNbWvArFaSUrL322riuy0677EK5XOajjz/m2uuv587b/8y4/fZbofuxWNY0wSY+3r9Ta7oby0ykFEEY0tTUBFpTKhmvWddx47kqQRiGBGGI53pEkcLt7upmRPOoxKV20KDmZFTV1NREKHSsh18UsIy9hU7+e3VwyYUXsukmm7DdTjsZo8Ll5ISTT6alpSV5/4+pU7noV7/i7HPPBWCX3Xdf4b5+Fnj4gQd4+513+P4Pf5hs23vPPbngvPO49bbbBvxz+8s99/CXe+5Zob5sNGYMUggeeeyxmu0zPvmEw486Knn/k5NO4vjjjqsJVFUee/hhdt9776Ve6/wLLuC16dOT99OmTuWq3/+eH/34xwDc9uc/c+IJJ7DRRhvx7rvvLu8tWSyrne7vd5G/sw4RCLSnaXnqU0aOXHdNd2u5yGazVGKndNdzCcOIYqlIFEXkcjk8zyOKIpTWaA2yXCknC68AZsz42JT4cD1c1wXdjyftap6a2uWb32S3vfZaoSDVF1opxowZk7yf/PTTHPa97yXv//7CC5x+2mlcc+WVvPzii7z84ouM3WmnmjbS6TQvPPss/3jpJf7+wgts87Wv1ez/+wsvsMH66/P43/7Gyy++yEvPP28+2x4IIXj4gQeSa/TsQ5Wbbrgh2b//vvv2e0+NDQ04jsPJP/1pzfYnnnoKMKOkntwyYULS7tlnnlmz77sHHcTfX3gheT9l8mR+c9FFnDd+fHLOwQce2G9fAH572WX86803l3gMwO1//nOf2+/6y19obGxkm623XmobvdFas1GPny/AS1OncvGvf73MbVksa5L2C9sQgXnwikAwctR/Z5DSGjo7O5FCmtFUEOJ5npl6ipdDlcolU/bD9wGNbGxqwnFMQBJC0NDQgJfyCMKQWbNmAyYmVVUZ1ZjVV12qnq+Vyde32YYoijjisMN4duJEnp04kR8ff/wKt7v55psjpeTMs89OtjmOg5Cy5v13vv1tXnvjDcbttx/PPv88l//mN8n+fC7HC88+y7XXX88ee+/NhZdcwjV/+AOjRo2qaeOuP9/B2eeeyz777093dzeTnnyypi8vPvccnV1dfGu//Tj6hz/k5z/9KT8+4YRk/8QnnmDIkCFm/zHHcPaZZ7LrLrv0eV9HHnEEAN2FwmL7ttluO6b0CDzPTpzI2muvzbj99+egQw5h/3335cH77kv2CylxnEVr6RzH4Zs770yhWGTcfvtx9733ctqppyZfdPpi2LBh/Obyy/vdX+XuO++kWCwutt33fZ597jmuueqqxQL8khg2bBhCCE7vFXzvvf9+RgwfPuB2LJaVSbCRz5x/z2TWjBnMeWNmzT41KGLOW9V9s0BA+/ltzH7XHFf9t7h/gXmPfkq0dpRsqzL7nZnVpUt8+sosZn/8CbPfnokaHK2W+1saUgqTwUMThIHRO8QuFkJIisUiuWwWrbSRqasIaar0KlSPYVOxWEQIaB7UBKx549mNv/xlHMfhoO98h5+ecgoXX3opPzj6aI4/7rhlbutvf/0r06ZOZdrUqdx0/fX88brreP+DD5Z4ThAE3HzLLbS2tSVB7atf+QoAdfX1/OwXv+Av99xDR2cnjz3+OFprDjn44Jo2zjpnPK9Pn86C1lZOO+MMcrlcsu/ggw7C8zyO+sEPaGtr49133+XKq67iB3FabOyOO9LY2MiB3/2u2f9//8eTTz/d76hg+ACVbXvuvjv5fJ59DziA1tZWZs2ezR7f+hYjRoxg6NCh/Z4nhOCK3/2O1rY2rrzqKrTW7Nxjnq8nqZTJoX/88ceL7fvihhsmP4tpU6fS1NTEHj0EET05/ayzKJfL3HTDDUu8p+uvvTZp79GHHuL+Bx7g5WnTao6Z29ISVwywilXL6qdl0qcMPXBtRn5hXTKTs7RMWiRwmvPGLIZ8fxgjv7Au9TfXM/eF2TT9qpn6axtwP/AY8WXzBbi0VxH3Qw/ZKdH5RQ5CCy9tJfNiBhTMfvsTGi4fxIj1RtN8ymA+nTp7td/rknCkw+DBgwmjECkEURgRhqYmVRBnzlQUESmFG/oBruslf7SFQiHxW/L9gHw2Ewsq1twf9bBhwwCSOYo333qLLTbfnGO+/31umDBhmdo65PDDaW1tBUwAvOr3vyeXy3HdEh6AfaWt8vk8AC0tLXR1djL+rLP44oYb4rpuUh25J3Pnzk3+u/f6tL322IMFra01XwjuuvvuZG6oqma7+MILk/25bLbfB60fBP3eS0++tffetLe316RT29vbUUoxfJ11mD9/fp/nvdPH3E5DQ0OfxzY1NfV7/Q8++IAfnXgiYO7n3PHjeXbiRLbvJ+gd+YMfcN9f/sL2221He0ffqr2f/eIXvPXvfwOw/nrrMeH668lkMvzqoouSY/oatVksq4uR665b9WklMyVLZVvzPJh/Xwu5h/KkXkkDUHdDAyqjQUHhsC7qbm1Izqt8s0zzyUMQRWFshuoUsltSOKybEWNGU9mhjPAF+XvMcyr7ZA6d/2wI46QQZLNZoigiCkOymSxhGMUVgc1UioqiHlk8bdZRlUulxNcvk86QSqcolop4KQ9FLJ4Y4KhqVYy+yuUynV1dNdsef+KJ5fpGXCqV6Orqoquri39Mm8aDDz3E4YceusRzlnRPQwYP5rlnnqFSqfD7P/yBC37962X+DDzPw+9jcXW1nbq6OkqlEp988knyeufdd7mtnzmdJakhv/H1rzNq5EjA/EKU+7luXRyIV5Sgh1KvNyq29O/q6qJl3jxO+ulP8TyP7bfbrs/jZ8yYwfNTpvDbyy7rt81KuZy0+ca//sXVf/wj+4wbV3NMz1SmxbI6UU2KOa/PZM4bM5n32Ke0Xb2A9MsmMAWb+tT9adEXPlEWNF5qvuipwYrMs9lF7dQpMpPi9xHoJkXH+IXk/pZHlASFw7pQgxSzZs5IXqucXoUT+0NpTRgEpFIpCoUClUrZ1KMSxsbP930cxzUVPZQCDa7jOmSypuwvQCqdJpVKUylXkrVSvRf5rm7+MW3aYuKCDTbYYOU0voJzahfF6bfLf/vb5W7jX2++yXcPOqhmW3NzM1/ZckuemTyZt99+m6232oo/XnfdgNp75plnOOess1jvC1/gox4pt3w+z1W//30yMn19+vQkhVnFWJg4zFrG9Vb90d/IZ0ksaR7qtDPO4KXnn+fSiy8eUFt9zZ019jP6s1hWNXNfnM2gMwaTfdSk/md9+Al1d5v1hNrRiB7f63RagwRREui0xmmJv2D1+pXOP5invHOJrmM7GbHxaACiZkX+9noGnd28yu9pSfT3bFVaE4YhuVyOxsYmojirk/JS8RoqD4Umk82iowhZKpYA8wet0fh+BdCLIpuUNeKC5e3YilBd7HllHAyy2Syn/vznvDR1anLMqFGj2HYArgf5XI66ujrq6+vZYvPN+c63v80ry7AeqzcffvQRAE2NjUgpOfigA/tM/S2JK373O7TWHPid7wBmpPPwAw9wUiypvvraa9Fac9455yRilX3HjeOWm27qs71iqcTMWbO45667GBbPNWWzWW67+WYqlQodcfC4YcIElFKcesopgBlp/PW++wjCkBkzzDewFf1pVkeF+/exbsmRkrq6Ourq6mgeNIi7/vxntNY1P9e++OkppyT31ZtsNpu0uf7663PSj3+82Bzk6NGjKZVKa3zu1fL5Q9Ur3I/NF7Hgyz6kNKl4ROXMcikcEgugXM2ct2fif7WCThnDBdlunsOVrSom5RfTeEEzC3/TRu7xfLK97vZ6SvsXzKoiDZXty4SjVq5iemn0l4lTUQRSEgQBfhDQ3d2N47iEYWjSgVFEEAQ40qFYLKIBN5vLmqFVLEU3f8AmHVUoFGhoHpQ4U0gpjVy9n06tSvbed18ee/hhpsUPsYULF3LKL3+Z7P/zLbeQyWT4Ri/pdW/uvvPO5L+VUjwzeTJnjh+/3P267IorGLf33jz9xBMAdHR0sHDhQr644YbL1M6JJ5/MH6++mtPje5q/YAHf6SHIOOSww/jLHXcwLh4NhWHIbj2cNnpz4He/yy0TJvDoww8n27q7u9mpl1LwoEMO4b67707EH77vs3OPY1bGT/XpSZM46cc/5qEefQFYf/31mfz00+Y6WhMEAXuNG7fUJQivvvYar732Gl/96lcX2/f7HiNbpRT//s9/+MGxx9Ycc+wxx9Q4Vlgsq4u6WxtoefJT0ODMq01Br73LcGZ/8Andx3SCgPxddaRfygBGjj7rkxmMHLUu/jfKeP9ZtNC3GsAG/WJwsi37eI72Xy1MUn6iIhjxxdGr+vZqWFSPykwrCY3JDUrJwvaF+H6FpkFN8ZqpkHQ6TVdXl3GkgCRgRVGEmPS3x/TIdUeTSqWpq8vzyiuvsMXmW1Aql5gzp4W6QY2s98UNcUScBhROEilVZHKIfVX4/cqWiz9EVgZ1dXWEYUi5V1FHIYRRjqg1U0OrquJb0Yn6/u6vSlXEUehDet4XruuSzWYJfL/P+aie7WqtV4nQoLGxkYlPPLHCi7VXBq7rMnXKFLYfO5ZggKITi2VlolMaHJPSo9ZLwezPaURFQE81uQCd1TUjqQFdK20GGaK88jNdr0/vlYky65gQQuIgkI6MY0ZPswiBUJprr72WPffanebGQdx5552cfPLJtLe309raSnt7O52dHWy+9ZaESvHuu+8gG+obCMMwSVUJIeJIKJL3fWX+lkVgsTLp7u7u8yGutV5jQQpMgFoZD/n+7q9KoVAYcJACM/Lq6upaYpCqtruq1HAdHR08M3kyd91++yppf1m45g9/4PEnnrBByrLGEL4wQQr6TFmIYq8gFR+3rEEKzEhqVQSpFUFrjVKKfC5f83dYLpfwPA/P8+juLuClUriuQ7lURkYqMmIJralUfBzHIQxCojA03957BKOq03qVVbG41/K/yVnnnEMul0vWhq0JfnTssTQ1NnK+daWwWFYjssfLxBHPS1Eql8lmMz1KfBghRalUAjQC80XbS6VwwyBESkkQBtTV1SOFxPU8pF+hu7ubhsGDkssppRCiNq9qA5VlIGit2efb305Sl2uCRx59lAl/+tMau77FYjE4rkMul6NS8eNAFSXLRsy/Isn0OVIihRRUKpWkwmIul6NQ6EYgGNQ8KG6k5yV6mdNa5ZRlGViWtOXK5tO5c+3vq8XyGSCdNuWjqjGkOvWktTLlo9CkUinjoh6EyEqlQr4uj+d6SVQbNGgQfuCzYP4C433X4wLVP/Teab9V5fNnsVgslv8ulvSFMIwiM+8kJal0CiGMx58JHcKs5ZTGpSKTNqlBma+royt2fRBC0F0o0NnZFcvQzcWU7lukYL+dWiwWi2VZqIokUAoVKcrlSizkWmRWC2YdbxCGKBUh2xa0ks0aK45qjXrHkaTSaQY1mfkpx1lc9letR9UXdlRlsVgslp5US9FXFxt3Yv4AACAASURBVPqCiGtPuaTTaXzfRylFGIT4vk8mk0ZKieO6yGwum0xooSGTyZDJZAGN67nYmGOxWCyWlYUjBOVSKRFPpNLpJDvnuA6pdCopptjZ2UGlUkFmMplkxKS0wvd9KuUyWmsWti0EBFG05tYnWSwWi+V/Cy+2TOroaE98/jzPIwxCAj+gUq4gpaS+voF0KoUMwyjJC7qumxRHjKLIZAqXYEqrBERoM6TroeCwc1cWi8XyOUMbmyS5lMd/VXTneS6pVJru7oLx+FMR+XwO6cikDIhSiorvI6vzSdXgkk5VywGLuNSDDToWi8ViWXk4jkOpVEZpRTqdJpVKoZWmUCjguUaqLp1FC4RlqVQkCo1fhxCC+oZ6qvZJnZ0daK2RTv8TVdVAZwUUFovFYlkaWps1Uq7r4EgHMJZKWutYHxEfpzSZjJm/ktlsLjEPVJGiUCgCGs9zjVOF7L/InIyHecIOuiwWi8UyAKRjppiCIDBBSBqj83Q6bbz/BARhgJQC3w9QSuEKQEXKVPKQAilNmWAVKSJlcoQq0vShULdYLBaLZZnQKqK7WMR1PcLQWPgJIYgiU49KRQrP89DaSNnT6TRSOg5CCry4qqrjODiOQ3d3N67rWrcJi8Visaw0gigin88jhHGhCMMwsfBzXRetdbKmKooi/EoFN/D9eERl8ndhENLd3Y10pDGhjUdZWimjDtQkoy9UrTuFDWgWi8XyOSVe0KtE38o/EVcbdlyHUrlEGIWIUBghhTZ+FNUCqkoppBBkMmn8IEA6rhlBRSpCCOOinslkkNKhs6MTR0qU1okVu5WeWywWi2Wp6L4HL0JB4Pv4YYjruIRRnP6LRXz5fA4SkZ7Ec11kFC1S/CkVkc1mKRaKKBWRSqVQqp/a8xaLxWKx9GLpeTWN56XwPC9ep0uc+tNxGtCMqiJlYlMYRch0OhMrL4xbbbFYQjoODfUNdBe6ARKrC4vFYrFY+iRWgAvNEjNwYRhRqZSTOSitzVopDWZwpBX1dXWmNqJrqnfISrkMQhAEAY4jicIQKQVBGDBkyBCEMAWsqsFsIPNQNj1osVgslr6QjmTw4CHGWEKQrKmKwoggDPB9nzCKjJDCD/ADH+mlPKIoiuWAmlQ6DUClXKFUKieWSP0FqJ7OFtY+yWKxWD6n9BBTLI1KpYzvB2il6OruolgskU6n8TzPLI2KIlzXBa1RSiPDMKxxSG9uHkQUqaQWlVFj9B+oLBaLxWIZKEopugsFoijEcUyJD+PtF1IsFsnn88mx0nFAg3Rdj0w6QxiECCGYP28+WiuiMCKXy+K6XqJtt6o/i8VisawInuviSIeGhkY8z8NzXfzAT4JWOa7egTBzV0IKZBD4VPxKIphobGpCKUU6k47tK8xKYYvFYrFY+qVqp6eWHC+01jQ2NlAsFAjDkDCM8GKXijAwUnXXcc2aK0caMYXrujiOg3QkUaTo6uokk84kckEhROIFaLFYLBbLQBCy75gRKUVbWxteKoUQgnLZuKgjiEt7RITKlP2IosiMrHzfRwpJda5KRQqlFa7rmsksllx23mKxWCyW3vQ3uJHCuFGgF+kgonhUlUql8IMAV0o81zOydaWRXrxDKyM/b2xqpFAoEAQh8+bNQ0AirFiSPL3qCWi9AS0Wi8XS0yhCCJGowmU8zeS6bmKXVC3aG8U+gI5j9kkhzYhKK0U6nUoa8n2fXC5HFIWMGDECTbwYqw8xRfUci8VisVgAE1ygdrmSXjSYiaKIIAhob29HSkk6XhJVrVMVhSFB4Cfn+5UQqat+TPEgSCmF4xhVxsKFC20gslgsFsuAqAap5L1cvD6U63o0NDTgpYyAIpPJxIMehe/7pNMZiqUS0pE4rgQhkGEY4Fd8UqkUQkiKxSLt7QsBEIhknqovlrQQ2GKxWCyfL5RepPgTskfGTfQ0hVC0t7eTzeZIpTxKpZKZp4oUmUyGIAioy+dpaZlDy7zZBEEFWZevM2qLMEJrU8qjubmZXD5HfUO9aVjF6r8BWihZLBaL5fNNjQivR+pPK0U2m0sMaL2Uh1KKVCpFpVIxlX2DgI62DiqlCjM+/BhX92gEwPd9iCsrFotFmnsEJhMdbaCyWCwWy/IhhDCesrH6L/AXOaULYXQSKdflpZdepLWjjXIxQpbLpZo8osBEs6qwAhbp4e18lcVisVgGSs8MnI69AIU05uc6iqj4FaSU5LI5oigi5Xlk0ymUCpk5cyalYpnNNtsUN5vNorRCxGk9ISVRFFIpV3AcF9njQtVSIBaLxWKxDIRFAgsTPFQUxVV9wXVcPM8zUvQ4gEVRhJSSMRtsRDmssP222+Ki40W+KkIpQUNDA67jks1lE9mgEAIboSwWi8WyvFRL0SsBbsrDcR2EEPiBydyFUUikFH4QIITDFlt8hUBFfPDhB8hIqcTKwnVd2tsXIh1JuVTGkRK9lCmpam7RYrFYLJalocKIIAzRsUBPK2Us/MIomV5yHMn06dN5443X2X3PcbgyLkGPhjAIyWayODL2/ou3R2GE65iKjaK3Tj5+31OWaLFYLBYLmNggqJ1CQmtUFKG0wnHdRA/hSEnK81BRxDE/OhY/VHieh+tHIVmliaIIx3UolUsEYUAURVQqsZiiD+VfVbIOi0ZVVmxhsVgsliXhSGOhJKUk8AOzXtdxcaVEChchXBrqGsnVNZCLz5Gu41B1STf2FmYtVTqdIQwCpBTYpVMWi8ViWRnoOPtWreIbBAEAjuPEJhIQRrVTSrK7WDAHxIqMbDZDGEYIAY7rIIVV+lksFotl5aC1Jp1O47guURSRzWaNWa2QRFFEFEb0Nl6SDfk6lArROkIITSaTTUwDo8gKJSwWi8WyfNQY08ZIKSkWSyhlZOgdHR1Upeuu62JSeLVpPBnEi3tV3Nj8+fOIopDAD4zFhdbJaMtisVgslhVBa40bZ+uCwKe5uRnX9VBa013oxnEkvl+pOUdGYWhUFY7RtI8cOTIxCbS+fhaLxWJZFQRBQCaTpbOz03j8CUF9fT3dXd3JPFYV6XkpolAjcIgizcKF7QSBCV6pVKrfi1SdcavDOqv4++9mrz324MlHH13T3VgqTU1NTHryyTXdDYvF0gdaQIQJMlXrvd4DHhUrx6uVOZQyZej9KEQpRV19HbrXOW4Yj6gQpkG/UqGhvp5SuYTnevHVF51g6oasmpvsj+efeabf0d1Ou+wyoDZSqRRTJk+mmuoslkq8+tprnH3OOSuzq6uVXC7HsxMncsDBBzNnzpzlbueLG27I+eeey9hddwXgZz/5CYcecgi+76O0pqO9nQcffphbb7+9z/NPPeUUDth/fzzPw/d97v/rX/nD1Vf3eeyE669ns003Nb9rvs8DDz7IlVddVXPM85Mn47ouURjWbL/5ttu49bbbeOCvD/Lg/fdzwEEHLfc9WyyWlYww/9fzWd3Xc9t1HIrFAmCUf/X19aTTaaQUaEzgSqVrB0mu1ppSuUQ2lzWlPByJkGbFcHURVs95rTUxcDr2+OMX27bffvux37hxA25DYCbxLrjwQlpbWxkyZAgnHHccU6dMYbc996RYKq3EHq8eisUiN918M59++ukKtXPDtddy6RVXUKmYvLDneUgp+dkvfoGUkg033JCfnXwyBx14IPvsv3/NuddefTVf2XJLzv/1r3n99dfZaqutOHf8eL6w7rqc8stfJsdJKXnxuefo6urihz/6ER9+9BF77LYbZ595JoMGDeK8Cy5Ijs1mMtxw4428Nn16zbWq93ndjTdw5BGHs8fuu/P0xIkrdO8Wy38rLRM/Za3d11nT3ViEBoE2i3tFbQX4moAlJfl8Hj8ISHsptNaEgdFD5LJZ2ha0Inrp/txqqfkoiswFtHmfSqUIe32jTXqzmkt9vPf++4tt23+ffbj08suXua0333qLlpYWACZOmsTdd97JY3/7G9/cffea4xzHYeONNyYMAt5+550+28pms2z8pS/xycyZzF+wgLXWWitpu0o6nWaTjTdmbktLn6OefD7PRmPGsHDhQj76+OM+r/OljTYilUrx7//8ZzEl5t8efTT5Zcjn8+RyOebPn89GY8aQzWZ58623lqje3HSTTcjn8zz40EOL7Xs9DhSvvvYaDz38MC88+ywnn3gi11x7LQBfWHddtt5qK7576KF8PGMGAE88+STvvf8+d91+O8OGDmXe/PkAfPfgg3Fdl30POCD5AvTwI4/gOA6nn3ZaTaACePf//i+5fl/8/g9/4PRf/tIGKsvnhlmfzGDEBqMRgXn+uu96a7hHfVONDlrrPiv8RkGAEALPc5FSUooHCVpp434kRWwMuAjXdR0cx0UIiQYy2SzZbJb58+eDANd11njqrzfbbbstmUyGx554YoXb+uXpp/PXe+/Fdd0kMO++225c9Ktf0dXVheu6ZLNZDjj4YGbPnp2cd8jBB3PqKadQKBRIpVI8/8IL7LbLLmyz3XbJMT896SSOOPxw2hYupKmxkVmzZnHQ976X7L/sN79h5512YuHChTQ0NtLR3s7e++6bBJ4hQ4bw6EMP4fs+QRBQX1/Pry+6iEceeyxp45EHH2S7nXYiDEMOPvBAjjrySHLZLIVCgXw+j5SSb+62G4Visc/7/9Gxx/YbiHtSqVT464MPctQRRySB6ugjj6RUKiVBqsr7779v+nPQQfzxuusA+PlPfkJ7e/uiUXrMXx96iL/2ESSXxsRnnuG0U09d5vMsls8C4aiQaO0Id6aLM9ep2RcND4mGRzgzXZwWB9WkUIMjkBCNDnE/8NB5ReNlTWhXE61rtiVtbxDgfuSBAl2nCDYKkK0O7sf9V2tfVfQlyqtm61Sk4ikAk8lxHEmlHJLNZhdrR6ZTKZQy1X21VoShkaanU2ly2SxKLRJL9IyO1Q5UO7E6FYK/Pv/8fudLlpVZs2YBJBN7juNw0a9+xYWXXMKue+7J2F135Z+vvMKD992X3KPjOJx6yilcf+ONfHP33dl+7FiGr1M7BP/yl77EEYcfzrY77she48ax7Y47MmrUKA4+8EAAxowZw8477cTOu+3GnuPGsd2OO5LP5zlv/PikjUcffph/vvIKO+2yC7vuuSdnn3su55x9dtLXvqjL59n/wAPZdc892XbHHYmiiCOPOKLf4zfdZBP+/vLLA/qsJtx8c837MV/8IjPjz683LS0tbLrJJsl7KSWvvvbagK4DJkiPHjWq5tWT9vZ2ALbeaqsBt2mxfBaYO2kOLZPm0HlGO59Om0X5m4umHebf2cLc5+fQ/us2Pp02i+JB3Sy8vJV5j8wFBfPvNRmbrh920XbNAnSjYu7zizI1wSY+cyfNAQXlnUvM/s9MFl7SRsvkOXT+rGO132tfREqhtSaTzeL7PkOHDkNKiZQOfqWCUpow7KX66+zsSoZcSimGDhlCd6GAHwRxkPpsqfnS6TT19fXcMGHCSm131MgRAPzkxBMB+NsjjyT7fvLznwOw4YYbArDnHnsAcPOttybHnNVLlHHO2Wczb968JO2mtWbaP//J/vvtB8DFv/41xWKRYjzS0Vpz3gUXMDtODzY1NSGF4Jenn560OXHSJHPcEgQgYRgm6UetNZ9++ilf2mijfo+vq6tbLF3ZH1qZXx7PM9/e0pnMYiOkKr7vk8vlarb1HNWdf845/PW++5JX7xTBWWecwf333FPz6otvfP3rA+q7xfJZQTdqRnxpNEMPXIvBPxzKwstaAfA396mMLTNizGiG7b0Oa+0+nIUXtTH4uKGkp2TIPp1jna1GAlDes0jm+QxyYTwai/98Wm9YQPPpQ9A5xYI75jHyC+uy1h7rMGLD0XSe1r767lHr2lL0fez3K5XYNkkl6T8pJYVCN67ba44qm83geR6OdHBdl7ktc9mwvg4pBV1dXSxScXw2AtaTjz7KK6++utJcM4zXIXwy04wMNtpoo8XECUqZkeYXRo/mvffeY+211koCTH9ssP76CCGYNnVqzfbWVvNLOXrUKF59/fWafZOfe47Jzz0HwPrrrQeQCByqzPn0UzbZeON+r9s7cAzkp9b7Gv3R2NgIkHhzdXd3LxaMqmSzWVrmzVvUD60ZNnRo8v716dNpbWsjn8vxnQMOWOz8X/zyl7zY67Pri+bm5gH13WL5rLD22OG0X9hGsGFA+MUA2WYeyq23zWPw8UOTP1rv/zyGb24yCeWdSww+YdHfj7+5T/PxQ0EBCtSgCCJBODogd2+erhM7kR2Szp93mPbW8OO7p2mEEKYSh+u6SEfS0jKPuvo62he247gumUyWUqlcc74bRiqZwFJKk81myeVy+L6P65kUk9Z6desn+iSfz5PP5xcbvawIG8Wjjer8VEdnZ58jEMdxaImFAcViMSkq2R9RFPGft9/muBNO6HO/7/sMHjSo3/Nn9ZgP60nzoEH9ii6Wl2w/waY3vz7//Jr3/3zlFY48/PA+j11rrbW45/77k/fz5s3j69tsk7x/OB6xjhwxos9ANVDmzp273OdaLKub9nMXUjiii8HHDSV/Rz3z72oh91AeAJVXuB/WpvVFxTx4dQbcD3uIJwS4s+LpinkO0bCItt+3MvgkE8zKY0s4M11EedGDu/Hi/p83KxOlFY50aqaGeiKFIF9XRxhFZFJp0ulU4oSkI4UQ4KVqPwepVITreUghcaSMLyCRQlJfX5+UqP8scOuf/kShUEjmJ1aUTCbDhOuv5733309GaHf95S9JQKyy7ujRCCH4OA4Q/5g2Dcdxao75yhZb1LR9/wMP8OUvfSlZFK21pqGhIRFK3H7HHYzqNe/y+9/+lrv+/GcAOuJ77Dl6yufzZLNZrv7jH1fK/QPMnz8/Gb0tiU023pgxY8bULBW4+dZbkVJy6CGH1Bx7xGGHIYTgvh6B6ofHH48Qgq2++tWV1ndYFPAslv8Guo/pYq291iHzfBbvbQ81NKLu9noARCjQmUUjj+5jOyl+pwAO4OpEdKGaa+dvGq5oovvoLoKNfbKPmC+dzmwH2Smpv7ah5rU6qMYLzeI+fwBCSoqFQpLuz2QyifLczL8LgqBWce6m0xkqlTLZbAaNxg98oijED3w62tuRn5EgVV9Xx7qjR/OteI6nNzffeCMbbLBBsmi1P3528smUSiVGjRrFlltswYwZMzji6KOT/f96800++OADnnz0US7/3e+oy+f5+U9/yuNPPklnZycAH338MZ/MnMnEJ57g8t/+lnXWWYfvH3VUzXWuufZaDjrwQJ6bNIlLr7iC5uZmfnLiidwwYQK33HYbt9x2G8d8//vcf8893HjTTWz3jW+w/bbbctiRRwJQ8X3+9sgj3HLTTfzx+utpa23ltFNPZebMmcskSlgaf3/5Zbbfbjuu+N3vFts3/qyzcByHLTbfnJEjRnD3vffyrzffTPaXSiUu/+1vOe3UU/nmzjvz1MSJ7Ln77my5xRb85vLLa9KQ8+bN44mnnuK6a67hueefZ8qLLzJyxAiOPvJICoXCYr/Qhx56KDvvvHPNtn//+988+PDDAAwfPhxgwPNrFstnAVkSdP60g9yDdXSethAA0Wke2I0XDmLBXfMYctgw/E192s9ZyMj11kU75m+jskOZzOQs5R1LOLMWjTjyd9ex8IpWhhw5LNnW8Psm5k6dTWnPIrLNoe26+TReMIjcI3lWNUmRRE3f66gwGawoDCENuVzerOGVgjAKAY3j1CohXa1NBcXqt36lzHu/4tekNat5RZMD7F1IcdVbKO211178/eWXWbBgQZ/7n5syhfaO/lUtSmv++corNDQ20tDQwKxZs7jkssv46KP/z955x8lVlX/4Oee2mdnZbHojdBARUYqABghFMICAdOkQAygggoCIgnQVpIgCAZUmIgRCCAKGnoQUVNpPpChgA5KQhCTbZ24/vz/unbs7M7ubDYQkmPPw2U+YW89dwn3nbd/3P3XHHnXccUycMIHjjj6aMIq46NJLefyJJ6qOOfzII7noggs4/thjmb9gAceccAK//+1vs/1+ELDL7rvzox/+kJO+8Q1c1+WMs87ihRdfBJI8z9hx47j80kv51skns7y5mf0OPLDq+a746U+Z96c/cfLEiViWxT2TJ9cVkbzw4ovZ7/7999+vM2J/e/XVpNWgF275zW+YfsABVdveefddXnjxRUaOHEkYBMyYOZNf33prj4UTU6ZO5dnZs7nisss49uijWbJkCft/7WtZ/1R3Lr70Uu6dPJlzvvtdJk6YQLlc5sZJk7hn8uSqvz/Pv/ACQghGjRwJdIXXu7cHHLj//ryvw36aTxijP7s+S6YuovWHzQz6wWBav98VHWq4p4hyFM1XL8N432S9zTaAGEQsaLi7kdbzW8jNyBM3xRQerDY4ztwcuZldZd3meyYjx41m2U1LQcLgs4bizM2ttueEREKpp/CfSEfQR2meaunSDwjS3irHydHc3ELoVXtUYt7TM9WQoUPJ5XPkcjleeuklttpqKzzX4+1//ZttvrA9xaYBSFGph09+4jhGxYlxi6KoTmF9221WbYhnbWPLLbfk73//e/b50osuYp/x49lp553X4Ko+HPfefTev/O1vXPmzn63ppfQLKSV/njuXgw87LKuS1Gg0q5f/+2t9ZEcIgRSyS+WoxlAppVBRzHXXXcc3vnEikR9w22238cMf/pAlS5YQBgFLP/iA5mWt7PHV8dl5ZhSGmYWTQqaaS8kNBgxYPTHNTyJ3ph7G5PvvZ5exY9l00005+3vfW9PL+lAce8IJ/GnOHG66+ea00nPt5qZf/pLZc+ZoI6XRfALJondRMo/KSCd3eJ6HkeatpKxtEhaCIAySeCKJdySlJFZxn+rp3W+6NlQErm7GjhvHjy65hJ122IFFS5aw/0EHMXfevDW9rA9FFEXsd+CBVaHLtRXDMHBdt6q/TKPRfHIwjUTtSEiBYRiZY5Q4SQa2bRNENcUUUkpsy86aOKMwIky9rEXvL2LMRhsCK1aeWFsqA1cXURQx69lnmfXss2t6KauEpUuXcuAhh6zpZayQKIqqxG41Gs0nCyEEQgpKpRIDBzRRLDagVJKvKnmd+H6AIauLKaRp2bS3tye9VEIwcNAgGouNSGkQBH7dDWrdp3XNQGk0Go3mIyAktmVhmRZRGFEqlRAiKU9PGoENVI0orQwCn1w+l42i930vmbYoBaNGja6+vhBou6TRaDSaFdJbIbhKRCY8z0tV1JMUk2VZ2JaVGavuyEK+kArMJvmmwA9AQEtzC++8+27mplVK1/UkX41Go9F8FKRhYDsOSsV0dHQQhAG+7xOGEYY0sqKK7PjmlqTpLAxCVKywbTuTUho5ckQmLlipDNShPo1Go9F8eASBH5BUnCcGyTTMpIgiDNOm35qqv5yTw7btrMLPdd1k7AeK5cuXr+4n0Gg0Gs0nnL6rwZPoXKlUwvd9cukUhjiOMVJnKIyCqjOknxZM+EGAUgrDTMoDC/kCQ4cO7dJtWonQnw4PajQazbqLEKLXMR9hFGFZJgMHDSKXy2W5KkhsWxhGSFET+jNNizBMBFkty6KhoYEwDCmXyzQ3r775JRqNRqP55BOruM/9pmnhui6+5yEEOI6dTo6PUQKUipG15emJFFIirR6EIW7ZxTRNFCq7wMqi81gajUazbtNbZC2OwnQWlUEQhBiGiWVZSQWgmeSqaisGTcOQmJaZDk40iOIovZiu8NNoNBpN/xGsuOiuS+BcpaM+FJ7vIYREIFAKgtoclYpjoigGQdb063ke+UI+mQ2iep4pAhCL5EdpB0qj0WjWeSozqFQfdqOimg6CMAwwTQvHdpLeKj+ZNl7IVw9zlYZpJnroQmIYJkqpRMqiVErmUUmJNGT93bohRN/7NRqNRqPpThgEhGFEEAaZkxSGEW65jFszUkj6nkcYpUOslMrK1E3DpKlpYFLXno5p78mli9NQoUaj0Wg0K6IyjNe0LMrlMipWWQGGYUjyhTwqri7IkLbtYFkGiohYJYmtKIoRUqZSSjIrFRRCdE1vBKQCAwnpRVfk8mk0Go1m3SZWiiAIUHFM08BkkK0QgiiOsGw7ne5bO+ZDimwmiFIqnQOSeFamZVYdnAxI1Gg0Go3mw+HYSTV5FEUopQjDIBu2aKZGqrYWQ0rDQAiDOE5yTcuWLcOQBi0tzanhqslR1XhLlQmO2ovSaDQaTYWeKv+Sij+FYRj4QYBj2yiV9E4Z0sD1PDzPRdRU6EnfT4YmJuE9QaFQQKEYMWIklmlWhf6klFUeWUWpQhspjUaj0XRHyHpDFUURUToUMYniQalcSo2VwjRMHCeHH9aUpzu5pCwwKSsku0Cp1IlhmJmL1u32yR+qy5sC3eSr0Wg0mr4RQoAQhGHS9BvHMbZlo1DZGCnPdatqIQBM3/eRUmYK6Z7nJ41XQiQn19xIqRhIRn8Qd3Ufa69Ko9FoNJD0U6GoE6YVQiAUWLaN57q0qyRSZ0hJGAZEUYyTczDNGq0/y7GJoijLQw0ZMhjPc3EcB8/zqg6O4741nDQajUajqVTd9ejACIEUgnw+Ty7nYKfFFaZp9SrbJ1WsEFKkJYGKjo4OpDQyl0yj0Wg0mg+DlPViECqOCYIAISVRFNPZ2ZnVOwRBgBAC1612kmTL8uWgwPcDlCKxbiSaTWGa9NJoNBqNZmXpyaMyTDMzSI7j0NKSTOlI5lCFiYRfPld1jhw0ZAiKpFxQAM3NzbiehyKxbhqNRqPRrCriKMLJ5SiXy0RRxLBhQ4nimDiOyefyAJkaUgUZpJpKcRynIUATKQSVIguNRqPRaFYVQkikEOl4KUFbW3tWzBdFEZZl13liUokkzGemyhSOkyhSSCkxzaQ8vad6+Mr0Rl2ertFoNJr+oyiVSlkRheu62TyqWCmUirNxUxWkZVmEYUgYhUgpieOYzo5OLMtKxQJVZu2qRGmFNk4ajUajWTmEIVEkE+WFFAwaNCh1jAyiMEIgyOXzVedI3/MxU2sWhiGFQgFpSAI/SI1R4vUkbAAAIABJREFUWhPfC7p/SqPRaDQrQ6Xyzy27qUJFjOt6WboprKmPkEEUEgRJk69MFdNt2wZBNhK4tks4uZM2UhqNRqNJSYfoxisItEVBSD6fR6GwLIuyWyaMoszDCqOIUqlUdY5syOexLDtr5s3l8gghcZykKqOSo1JKZbXulUXp0J9Go9FoVgYpDYIwxHEc/MAnDEN8zycIA4gVtm1RqA39eb6PUhGQzLAXoqJwm0iw99dn0t6VRqPRrMMoEOlPXwgpQCncsosUEsd2smKKIEr6eYU0qs6RiTK6omKkli9fThxHhEFlsq82QBqNRqPpHyuKs0VhmEXjDMPIqv5Mw8Sy7GwCcHekYRhpeC9JYjU0NCCFJAjDJPRXY9kydI5Ko9FoNCuJlBLf9zEtkyiKKBQKhGFIFEWZkTNEjUflei5RpJDCQCmBIQ2EFFiWyfBhw4HqeVNSyOSzzlFpNBqNZiVRSmHbDkolQhO2bXe1PgmB53t4vlt1jkQpTNPEkMkQq1jF6cWguaUFKWQ6nl6j0Wg0mv7RW8QtqYGIEUA+nyeOI0zTBKC9rQ3TMOtEJqRILVkURQiRuGWu66LiONFgiiLiqOuGsYq1J6XRaDSaXhFC9GioKgV6vu9hWhamadLa2pYN4W1oKGI7NlZquCpIx7KJ4xCkIgg8fN+nUCgQRVFWldHfhWk0Go1mHSXto4pIonI92QQhkoq/XD6P73vEcYxpmVUitL7nY5rVI6ZkjML3feK04apQKBAGIYWGAqZlpRN9NRqNRqPpH30V2gkhM/HZKIrI5/JkNi1VQupo76g6R0pp4DhOJl3heR6mZaIUhGGQyCdpZ0mj0Wg0q4LUq/I8jyiKsG07LayI8D0vE0TvjoyiMOmiypp7E/FZt1wmjmOkNDOldI1Go9FoeqTXht+42w+oOMIwTFSqhuT5yTRfIST5fJ4ojIipUU+vxAwhcZyEgHK5jOM4maySRqPRaDSrBCEwLRPSIj7f81FpG1QcKwzTxKiZhSijKCKKoiymKKXEMi38dKBiT+hG308mTU1N5HK5FR/4MXHCccdhGL00kGs0mnUCISTtbW1ImZapC4FMq/6SYYoQRdVOkkwarxQyHZzoeR6WbeEHPp7nJSXrhqyq4OipmmN1GC/Httlvn30YNGjQR6oyzOVyjN97bzbZeOOPbYpxsVjk+eeeW2uqIYvFIk899hgDBgyo22fbdq8GxLIsbNvGtm0sy+qXobEsC8uy6ra3d3Qw79ln15rfiUaj+XioHrgru/0kmKaJbTs4TiKI7vsBQggcx0HFCseurvozoyhMkllxjJKSAQMGYNs2juPgui6xUshYdb/HGuGRhx5ixPDhtLa2cklTE77vs8vuu6/0dWbPmFHlVSilOOf732fu3LmrcLVrH4/+4Q/89KqrWLJkSdV20zSZO2sWb771FsedeGLdeXfedhubb7ZZ1baOjg722X//Xr3uWU8/jWma7LTzzlXbH5w2jUMOOoirfvITzvvBDz7aA2k0mrUOpVTWQ6VihTB6mg6fVJj7nodtmkgpsCwLKSVBmBisslujTOH7icx6xQULgxDP9TBNk4ZCQ115uujWVxWns0fUx/wFebttt2XE8OHsvtde7L3vvuw4dixxHHPpRRet1HVmPf007e3tjB03jh3HjmXHsWO57Y47uPaqqz42z2pt4Ct77w3AtD/8oW7f9845h2XLlrHFpz7Vq6fzr3/9K/t97bzbbixbtoyZTz3V47HDhw/PlJB3+MIX6vafOHEiu++2G42NjR/hiTSadQ9vrIsyk8iVshTz57+zhldUT3+jJZWRUb7vUyw2YphGUnFumsRxjOd5VcfLKIwIwzB7UfuBn4T6EFi21fPQxNXM0CFDCMOwapjWv//zHzbffPN+XyOXy1EoFDhuwoSq5rLb7rgDIQRbf/az2bZPb7EFv7nlFqY98ABXX3VV3bVuuP569t5rL66/9lruu+eebPvECRN44L77uPVXv2K90aN7XMfXjziCyXffzZR77+Xbp55ate/oI4/kRxdcwLbbbMPv77qLByZP5pCDDqq7xlFf/zqTf/97Jv/+9xx95JErfPYzTjuNaQ891OO+A776VW646SaiKGLCCSes8FpBEHD4UUchpeQbPXhgv5o0iZdffpk58+Zxxumn1+0Pw5BFixYxccKEFd5Lo9F08cH9ixFh8j4WgWC9zTdYwyv6cFQ8LsM0iMIQRNLkaxgGQRCiqA/9yWJjMfsGXBmO2N7eQRQn5YFSCqSxZr2Nf7z5JqZpMmLEiGzbZptuyuNPPNHvaxyVvtCXL19etT2KInbaeWf+9uqrAHxxp5246447eOVvf+OGG29k1MiR/Hnu3CqPa6cdd+SKSy+loaGBl15+GYDrr72Wb558Mo8/8QRPPvUUt/3613VruP7aa/n2qadyz+TJ/Pbuuzn+uOO4+7e/zfZvsvHG7LfPPlx28cXcP2UKr7z6Kuefdx6bbrppdsykG27gjNNPZ8oDDzDlgQc4/bTT+PXNN/f57CNGjODhRx6p2/7pLbbANE2mP/44t/z61xx79NEr+jVmvP7GGxx+6KFV24QQjB41ip9efTXX/+IXfHqLLXo8d868eRx4wAH9vpdG879ENCzig3sWs/Dv77Hs1g+q9qm8YumdS1j42nss+1Wyr2NCG0seXgSQ/emOc2m+binRsCjbVmHJw4vABAS0/Hg5C199jyVTF6EKa74IrmJnpDRobW0jny/Q0tICJIV8SsUYhoFhVufCzUSVAoQwkNIil8tRLDbQ3NwMCuI4KRus+FVJKDD5JJMxVsTq451a9e5773HV1VfzyLRpRFGElJKZs2Zx19139/sam2y0Ua/7uheCfH7rrbn9zju5JTU0f/rzn3l2xgyampqS30nKvOee4+zvfS/7PPZLX+K7557LvOeeA2DO3Ln84cEHq+7T3NLCt888k1f+9jcAWlpauO7qq6uOMQyDAw4+GIA/PPIIe335y+y3zz7ccNNNbLD++nxh++3Za599aGtrA2Dms8/y+KOPssnGG/Pv//yn7tkcxwHgv+/Uhwl+dMEF/PWVVwB48KGHOP3UUzHNajmT3nhv/nw+t/XWVdv2HT8eIQTvpPcKgoCTJk7k1ttuqzru//761zojp9GsK7z/8nwGf2co+eMKfPDgYpY8uIjhh4wEYOEb79F0+SCGTBzG8puXsviJhYzYfxSYEI0KGXZY8mW9dFAHygZZFvjbdYXJWs9rgQgI4f0XF+D82WHUtmNoO6+VRbMXMOoLY9bEI2copaiMlho4cCBRFNE0oAkhRSqvlBgsKaobfs1yuYw0ZJajSmaCJFZPrGFPqoJt25x37rm8+dZb3HDTTXx1333Zd5992HijjfjPf//br2v0tyrxV7feyoDGRg7Yf3+222YbrNQFrY29/qcHo1AxUpBUuNVy6eWXs97o0XzzlFMYM3o0Tg+l4rUeXxAEDBo4EIAdd9gB3/czI1U5PgxD9tpzT35dYxAANu7DQG++2Wac/K1vJettb8d1XX41aRITTzml13MqCOp/pxf/6Ec8/Oij2efJ99/PUUccUWeoags6NJp1iTEbbJh9s2+cNICWy5MvwMtvWor9okPx9iR/O+jcIXzw4CIIBJ1Hd1CYUkT4yXvI+7JL00WDEB0ymQ1YUIiSoP3brYz+/Pr423nEjRGDvz0UgKafDKT9tNbV/7A9oJRCqSRHVUnpVFJMIk07hVF1w69ZKBSoeEhKxQghkYbBgAEDWLx4cTdL17MSbsUK9qaWuyr4/rnn0trWllWlPf/CC9i2zV133MGue+zRr2u8+dZb7DN+fI/7crkcYZhMNB77pS9x/bXX8sorr/DQww9Tdl2+stdeded0r0opFov9WsOkG25g22224aGHH2bW7Nk0NDSw+7hx/ToXYOjQoXg9VNqVSiUGDRrU4zlRzX/wCscdcwwAt9x0U7atNlfXF5tssgmLFi/OPg8aOBAhBF/ddz++uu++2fWSvjyToJuXpsvTNessEhbNWki4QYCIBMpR5B8vAODuUWboscO7Dm2TjNgryXWHY0IKfyxk+6IhEYWHG5IPMcQDI8pfL2G/7CCbJZ0XtqMaFPPfXfsKLpK2J4FpGhApbNsmCHyCICAMAkrlEkbNwF7TNE1c16VYbEApRWtrK77vEfgBeSeHqgn9VcbWV+QwVgef+cxnsjhmhdfeeIMv77lnv6/xwIMPcuYZZzBy5EgWLeqK6ZqmyewZMzj48MNZsGABF11wAVMffJCrrrkGoF99Qx2p9zR48OA6j6g7X9h+ew4/6qgsNDZ61Kh+rx/g7bffprEHozhgwADefPvtHs/pKRwI8I0TT+Svr7zClKlTs20CuOKyy9h0k03417//3edatvjUp7jiJz/JPp///e8TK8VFl15SddyPL7uMSTfemHluAKNGjuzz2hrN/yrvvzSfxl80Ubwz8ZoWvPUeDfcm/08rUyFKPUexlKMwFte8i1K/IP9MHm8Hj9YLWxi1fRLaCzcMKd7WyMDLBn88D/IRkFJiGCblcpliviHt03QwDAPLssg5ufp5VCpW2LaVCQEOaGxMBikaBoVCHsMw1rjW3/THH2eD9dev+iZ+1BFHsGDBguyzbdsMHz68p9OBxIq3trVx7+9+V1UY8bMrrySOYxYuXAgkHsg222yT7T9l4sR+rdHzPH582WXZ595yMNt87nNA4lX89vbb+3XtCrNmzwbgvHPPzbZ998wzAXikW8itOxWP6tOf/nTV9oaGBi65/HKeevrp7OfJp59m6dKl3NlDCLGCZVnMePJJXNfl0enTs+177LYbN918c9X1nnr6aS665JI6L+3zn/8cra1rRxhCo1mdREMicrOTkH88IEYVYnLP5IHEg/LGdkVqFv7fe5QO7UTZSR+rXJoYKn9rPwsBAgy8dDAtVyzHet1GtiTvtsJDRcr7l5J8VQTR8BCVX72SeL1FTpLtijAIESJJBVRST8noeDIdwApmGCWl6XEcZ/HCIHW/VB83q7A6FCl+d/fd7L3nnvxl3jxaW1tpbGzEdV3271a6/cwTT2Dbdl2TaXe+su++PDR1Kn+aMwfXdcnlckRRxOFHHpk9x5lnn809v/sdf547FyEEi9Pw1mabbsrzfXhLxxx/PFMmT+ZPc+aglKoyohWmTJ3KBT/4Aeefdx5SSu5/4AG+fvjh5HI53JoGt56IoogJJ53EHbfeyoH7749SCsdxOOVb3+o1xAfwzrvvctCBB/L3v/8dgFsmTQLIjHN3TjzpJB596CEai8Usz7bpppvyl3nzgOTvw5y5czn/gguy39lnt9oKgLt///u66z0zcyaXXXIJ22+/PS+99BIAu+y8C/dNmbLC59Vo/tfIzcyzaOZCjAUm8eDql/HI3dZjwd/fpfOodsLREfYbNoWpDUmoI4b3/7SAUV9aD+9LLtY/upRfjHdM4kExQ3cflm1ruLdIy4+aef+l+YhWSbh5wOhtxyDqU+cfC9XKFNUYRtIzNXDgQDzPY8iQwUl1uZRIQxKGUZ3OrHh+zjxVyBcY0DQAx3H417/+xZgx6xNHEc+/+BJf2W9fMCRSqCqjFccxcZQYqq7x9V1Ga9tttlvlD29ZFp/ZcksWvv8+H3xQXdZpGAa2bVMul1d4ncZikU022YQlS5bw/qJFPR6z1Wc+w9JlyzJD1V8+u9VWLFmyhCU166tQKBTYfLPNePW11z6S6O/mm2+OEIK33nprhcfutOOOXPuzn30oJY9VjWmaPDd7NrvusUddU59Gsy4QD4uIGxTmf81E8afmNRBuFmAsNBGlbi96AeFGIeZ/qqvhVkQ0OgJDYby3cuf1h//768t12yo2QgqZVPdVahxSlFKoKObKn/6UY449GlMIHnvscU488URc16W9tY1yucx7773Hl7+6X3aeGYbJPBDTNLOqv4aGBpYvX0YUxanxUVliPKnYWDOhwCAIstLuWqIo6peRgqQir7frVHj9jTdWen0Ar73+ep/7S6XSCu/dH97uJSfVE395/nmam5uZOGECt91xx0e+90fht7ffzuT779dGSrPOIj8wkJXvsT18VzX/Wa+TiWKljRSAsXDNiEBXiut6EoywLCsL9SmVFPFJKQnDEMOQBIFPHNeM+fB9jyD0iaIkXmgYJu++8w5KKQYMaKwyTLVGqlJWoVn7OezII/nGiSey4QZrrpv91G9+kwGNjVx3/fVrbA0ajWY10UvWKAwCAIw01JfL53EcJwkXIrLQYHdkLpdLu4ElcZyM/Bg6bCiBHxCFUXZyT56UEl0/mrUbz/PYdY89eOfdd9fYGt56++2smVmj0fzv0ps3BXRNk/c9ck4uGzMlpSRWMVJIGhoaqs/p6OjEMAzCMEyT8zadnZ2ZOKBI54RUQn+6B+aTy5oehPnMjBlr9P4ajWbtII5jLCsZ8VEul/F9P50ob+B6bp1IuGwoFLoad4EgCMnl8kRxhNGHMkWtwdLDFDUajUYjhexTAEIplThC6dDeQr6QjJpSijAKMQwDKWoMVUWItjI8MQiSfJVt21VqAhqNRqPRfFSElHien7Q/SUEQBAgpMEwD3/OT8fRpHquC9INEXj1p7E2qLxzbIQojXZml0Wg0mlWLUhiGxLHtxHMSSXtRHMXkck6qVFFd+WjmcjmEEFn+olAoYFomQkoGD1r75Dc0Go1GsxaSFtbFAlZUFC9EIjyrogjf8/DSnzhW+J6P69ZU/YVhWJVvKpVKySgNIapUujUajUajWRUopQh8H9O0cF0PgcC2bVAKIUV9H5XnedmMJ4C21rZUzTYg18MYCl31p9FoNJqPipPLIaUgDMNM3ShOy9RNs7q5WebzifBsd9WJwA8wTIPmGsVyAJRAKYGKqw2WNmAajUazDqNAqHSgbj+IohClkvyU4ziZDJ6UEr9cU0zhOA5BEOD7PkIIBg0elAjYCtlbY7E2ShqNRqNZIT1K7mU1EUkJe7HYQBiEWZ4qDEOKxZqG3+bmZvKFQiaFlBitgDiOkD30USktmqTRaDSa/qB6dmwqBXxRFNHa1gYoLMsiiqJ0e7U4gbQsC9/z0mFWBp7n4zg2nufXyVhkdyYGsWZVDjQajUazdtOTs0MqMCFTA1bIJ1PmhRBYlonjOISqJvQnZZqfimPiOCafz6XWTHtOGo1Go/nw9CTbJqRMdf1SLyqO8HwvDREKfN+vCxfKXM7BMM3EWJHEFF3XpampidrQYhJvhEQWV+epNBqNRlNNrYtTa3TiVIQ2qigfKbKwnyKmoaGhXkJJkEhYQFJ9EUURuZyD53qYZnXbVtcNtWS6RqPRaLrRyzSN2hyVkBIhJQ3FIkJAuVxKRWotbMumo6MD07SrzpFLly2l4jpFYZio15ZdbMehVCpVH6zV0zUajUbTT2pV0AHSaYn4noeQkjBKxkm5rgtC0tTUVBcylBWZJMuy0msohJS4biK9DgIhE+OUiNfG1BZTCCG1erpGo9Gsy/TQR9WjXRAChCCKY1QcM2rkSCzTwjQNzHTklOM4VafIUrmcnBQlkhXFYgOGIREIWlpa0mv27UUppSsANRqNRlNPT8ZKACqOEUISBEmuyrJsfN8j8IPEu+qGNE0Dx7YzV6tUSuKFCBg6dGj1wb2G/oQOCWo0Go2mChWrOtsQp6E+IQRRFGa9U57vYZpmqvVXE/oLgjArpkjq2JPqi8rFVRpP7DHW2LUcHfrTaDQazQqRhoEQEmkYSGlkQxYt06Kzs0QcK3K2WXuOzPJSisT9siwLgcAyrSqD1aMchkaj0Wg0/USltQ5xHGezECupJ8exEaK+/0rmnFxiqLpdoFQqkcvl6Cx1ImWS+NJGSqPRaDT9JZkaXx+Jq4T9pEiU0z0vDfkJkeSs/IBSuVx1juzo7MjCekII4iimWCzS1tZGIZ8njhXdW7h0Lkqj0Wg0K6IykaOWinCEZVk0Ny+nWCwihMAP/ExLQtQYOFm5WBAECCEIwoDOzlLqRXVdtHJD7VVpNBqNpr/UKVOoxPnpLJUYNmx4Fq0zDRPf83Bsh3w+X3WOrMhXWJaV9kkpTNPA6GF4lUaj0Wg0/aG3dJHMiidMSqUSQRBgGIkKkmVZBGFQr/WXeFFhtiOfyyOEBCEwLTOLJwoh+lSm6H6cDg9qNBqNpqcxH5UqP9MyMwNVEaINwjAp5qsZzCvDKEKl1RdCCDo7kwIKIQSdHZ1V1X4Vj0uj0Wg0mlqUUsSqy05UVI1qjzEMg1JnItFXMVZhFGLbNmEQ1ntUtm0l+SiSkgknlyMMQgwjqXPXaDQajebD0NvQRADHcTAtE9M0sSwT27KJoyiRT6o5zxRCIA2DWCmESGUtpKRcLuM4dt1NNBqNRqPpCdWPCVCV0J9hGgR+QBRHRHFMFEeYpknZLWPWNPyaURSnc0CS8F4+nyfnOAigra2tK++EyMoNdfhPo9FoNLVUeqEEXUIRdRJKcYyUBqZhJvJ9UUwcxRjSIEgn+1pWjTJFIgwoiKMIy7JoaW2h0NCAAuxUUb0ikdRXjqp7LksbMo1Go1n3EAroYapvT7S2tSGFJAwDTNPM7IZt2yxZvLTqWGmmxkhISRRF5HN5gsBHAK7nrcpn0Gg0Go0GAN/z8DwXy05STFJKAs9DxYohtYLolml25a0UfLD0AzzPx/Vcig3Fft9Ul6RrNBqNpj8IIbBtuzKzlzAdS285NggIU6H0CjIZ6VHR8osZOXIUhmEwYMAAgjBIxgvrSJ5Go9FoVgGRionjCNtxME0TQxpImdigOEpmVNWaHNm9CziOK/klhYoVhXxhtT+ERqPRaP53Een8wsD3iaII3/eTAox0PpXnuoRhjUflez4yDdslzVmKMExObu/oWAOPodFoNJr/VQwpu1qgcg7DRwxHkSitG9IgXyggRY0obb6Qh0hgYmKQzKu3UumkKI0bAiuUUNKVfhqNRrNuo5SqMzK9kc/n8T2f9rZ24igmCqO0ujzCyVlVx8rAD/ADP5WxEMlcEARBENA4oPFjeBSNRqPR/C8ihCBWKy5PF4CTczLHJ5ksH2JaFr7v09nZWXW8zBfy5HI5fN9PbySJVYyQgg4d+tNoNBrNx4Dneriuy8CBA9PGYEkUheTzBSyrWhXJDIMQFas0rAfNzcsJfJ+Ro0Zm44H7Q0UWQ6PRaDTrJv0J/QkhsCwryUWlikednR0IITANkygq4blu1TlSyGRYopASEBiGSaGQVPsVCg0f1/NoNBqN5n+QihzfiiiXy0gp8TyXxsYBiUQfSQ+V7ThVx8ooSkRokxHAinw+R6FQSObWl6rjhHrMx+rnkIMO4uyzzlrTy+iTcbvuynnnnruml6HRaD4JiES5No4iTMskny8kerOpUK00ZK14ejLmQxigiIlUhGM7DBo8KJv6W2FNG6hNN9mEJ6dP5y/z5vHIQw8xePDglTp/22224cnHHqvbvt7o0Tz52GNV04zXHzOG+++9l7/Mm8df5s3jiksvzWamVJj59NPMmz2bJx97jCmTJ3Ps0Udj2z2rzReLRa6/9trsepNuuIFiccWqH5tvvjnnnXsuN9x0EwBPTp/Od7797brjfn3zzdx8443ZZyEE3zjxRJ6bPZu/zJvHU489xvbbbVd1zkNTp/KXefN48rHHeGjqVM4+6ywGDhzY61p22Xlnnn3mGf4ybx5zZ81i/N57Z/tmz5nDPl/5Cl8/4ogVPpNGo/nfRYlUQb0Xkl6pCMsyyRcKBEFAc3NzljqKowjbsuvet9LzPHzfJ45jUIqyW6azo5M4jnHLbtUNqhbUgyrux8WI4cO59+67mfvcc4wdN47W1lYee+SRKuOyIkzTZGBTU912aRhV29cfM4ap99/PosWLOeDggzntjDMY+6UvMe/ZZ5GyK/baUCjw0ksvcevttzNz1iyOO/ZY5sycyQbrr191fcuyeOaJJ9hoo404ceJETpw4kTHrrcfTjz/e53qFENx9550ccsQRBKmcSFNTUxaW7c6AxsYqw/fE9OmcPHEil//4x3xlv/14esYMbr7xRo456qjsmKamJhYsWMCtt9/Oo3/8I7vusgtPTp/O2LFj665/xWWXce3Pfsb9U6aw8267cefvfsdll1zCBT/4QXbMoUccwTlnndWrsdZoNKuWZb/+YE0voVf6amOq9O16rks+l0d1G7QYRRFBEFAul6vOk57rkbNsDCkxpYnnediOgx/45Av5PheyurysC37wAxYvXsxlV1xBFEUce8IJ+L7PhBNPXOX3+ukVV/DBBx/wnbPOYsmSJbz08st8efx4pJRsV+OVzJk7l/unTGHSLbcwfr/9+NOf/8wD991XdczsGTMIo4iDDj2Uv//jH/z9H//gwEMOQUrJDddf3+s6dtt1V4QQLFy4cKXWP7CpiYFNTey599489sQTtLa2ctXVV3PHb3/LGaefXnXsm2++yf1TpnDr7bdz8GGHceHFF3P9NddUGZsRw4fzlb324qhjj+WmW24hDENuve02rvjpT/naAQdkfyGbW1qIooiLf/SjlVqvRqPpH/Pnv4Nyut655fGlNbia3hErKKaI4hgpJc3NzTS3NBMEYdanS+pxuW61ILqsm2ePwLIS/aXaWvY1xee23prX33ijattfX3mFfb/ylVV+r1gpGhqqi0iUUhxw0EH84x//6PPc76Z5ml123hlIvDjDMDjuhBPqjn10+nSaevDwKvz0xz/miSefXNnlE6dfHoYNH161/fY77+Rrhx7a57lPPvUUAN86+eRs2zFHHYXnefz7P/+pOvaRRx/ln//6F1ttuWW27aJLLmHvL395pdes0Wj6h/C63tdjNtxwDa7kw5M4OckI+qYBA2hvb0epOOm/SiN1TU0Dqs6RxcZiFhuM44ggTGKGCkWupvKicpPVTUtLC+utt17Vts5Sqc8X/Yflu+eeS6FQYPrDD7PbuHHZ9sVLlqywr0wpRRiG7PiFLwBQTA1eS0syKTNgAAAgAElEQVRL3bGXXXEFx0+Y0Ou1DMPg6uuuW+n1t7W18Y833+SByZO54rLLyOcTr9jzPBYvXrzC813X5dBDDsk+f3arrVi0aFGPxx593HG81u0LxIxZswB6DE9qNJqE5b9cyvz33uH95xcw/713CLbws32t5zcz/713WPjqfOa/9w7+ji5L71rC/PfeAcj+bD+5jSXT3ycaFmXbAKL1Qua/m3wONguSa73+HvPfe4fSQWuH4yFI6imGDB1KEITJJPnUo/J9H8M0MzX1ClIpBUJgGAZxHFMsFrEsO63EiLN4IpDmaAQggS45JSHkxxoG/M3tt/OpzTfPckkbrL8+u48bl+VuViXLli1jn69+lXfnz+fqK6/k+eee49ZbbqkqLOkL13UZMmQIkOS/IKmWXBlyuRwApdKHc+2PnzCBCy++mN13241nn3mG2TNmcFg349MXzc3NmXEDcHI5gpq/NL1R+TsweNCglV+0RrOO4O5ZZsxGGzJqx/UY9L0hLL0ryTWFY0Lav93GeptuwOitxzD8kJEsvf0Dhh4/nIb7ijhz8oxZP/Gi3PElnD/lMJorFdvJtZfdspSmqwahbMXiWQsZvfX6jN4q+Vl+49JeVrTqkIgVDk40TBMQuK6LYRpYloVAoGKVvvvq6x9M13UxTZMoirBtJ3XLYjzPT6UwKsao68Rao6T6IZnxUfjj9OkcdsghPPnYYyilCIKAt95+e6UakleG5c3NfOu00xBCMG7XXfnRBRcwd9Ysdt9rr7okXy25XI6ly5YBEKfr616E0R8qhuqj8ORTT/HkU0/RWCxy+qmnct6557LtNttwwUUX9XneoEGDqgyk67oMGDCgjzO66D6hU6PR9MyobcdQ3qtEPCTG3bWMcJN36wdTFzHwwsEIP/lsv+gwYp9RAJT2KzHo+12Vzt6OHgMvGgKhgBjigTGiLPC38Rh+4Eg6j+xALpP4n00Vh9airqKKnmy5VEINGoxlWVlxXuVdaRo1o+hN06Iyjl6IpEot5+RwHCcb81FbOCGEAFV5Ma2e38CEk05ix7Fj2Wnnndll990ZNmwYz8yY0e/zvV6mFRs1RmTbbbahKX0xK6V4dvZs9t5nH5RSHHLQQX3eQ4hEK/H5F14AoCPN8Q0fNqzu2HO++11+ce21PV7HrenK7o7dg2dnpF80AEaPHs3nP//5bF97RwdXXn01V197LXvvtVef64fESE6dNi37/PrrrzNq5Mgej73pF7/gU5tvnn2ufJnxPwZPV6P5X6D0tU4WvvUe/hddCATul8vk/5i8Z+OBMc7z3dItCoz56Qs7p7Bf67ZPgvVG8i6QHZJ4SMTS3y1m4IWDQUH5gE5ELGg/o5X2M1pp+04rzryP/gV4VSBTe9LQ0JCK0HbZkTCt+qMmwyQdx8nig0JIli9fjlKKjo4OOjs7iVVMHMXpBasbfpN/X/05q+222YYhgwcz+f77+33OW2+/DSR9U93ZcYcdUEplL/pJN9zAMcccU3VMMlRS4fSQs+vODddfTxRFzHvuOSD55uB6Hr+6+eaq44QQfP3wwwl7cZErhqr2fvMXLGC7bbetO36D9dfnb6++CiT9Zr+5+eY6L64/YcRKePA3t96abbv3vvuwbZuNNtqo6tivHXggO+ywA2//859VzwVJ+FCj0dTT/PNlDN9nFE2XDqZhSgOqoCjenbSWiFhAt/ahYGsPf2s/GV5rK4xFyU6Vr3YOGm8cQOcRHXhf9CjelQiJi3aJ/ZLDsK+PqPpZG1BKYRgmfuAjpMjevXEcYRpGovVn1ihTKBUTRxFSymTqomXjpQK1uXwuGXIlezZGq7OwoqGhgUMPPpjHH32UWyZN4gcXXliVcLv8kkt4qoeG3gqu69LW3s6DU6YwbtddcWyb7555JueefTZTpk7NDPDV117LiccdxzVXXYXjOAxobOTJ6dMxDIP7H3ig6pqf+9zn2Gf8eE6eOJF5zz7LDl/4Akd061UC2G3PPcnlckx74AEaGhoYPHgwjz/6KHEcc873vtfrepVSnHfOOVXbzjv/fEaPHs3999yD4zgMHjyYGWll4HVpqfucuXOJoojnZs9m++22w7ZtDjnoIC668EL++sorVdcbs/767DN+PEcfdRRPP/445517Lmedcw5uN+/z/UWLeHb2bO6/5x4OOeggbNvmiMMO44Lzz2fqtGlVX1wqTcVrS7WoRrPWocDfwUVZiuU3JDkjY2HiNRWmNrD0ziUoUxGNDln82CLsv9soK/1/LH3duuPKGEu6LFrjpCbaT2tj8JlDswBX441NlMeXULZCWYrFTyyk47j21faY/SGOFSgIAh/fD5DSIEwHKZZrokpmJdFfiREWGxsxDJnMs1/JIoCPk1GjRnH2WWfxzIwZ/OSqq+rDY0Ks0HDuNX48J02YwDVXXQUkxuv4CRP4x5tvZsc8+NBDzJo9mztuvZU5M2cC8NZbb/G1Qw6p++WN33tvxu+9N0uXLuWXN93EA1On1uXNlFKM23NPfnPzzcxMy79ffOklzjz77D7X+sMf/YifXnEFF192WbbtX//+N1/Zbz/uuuOObG3znnuO751/ftW5Y8eN48Tjj2fSDTcksvtxzOU//jGPTp9eddwWn/oUl118Ma2trTw6fTo3/+pXPYZIv3f++Xxxxx355fXXc/555xHHMad/5zu88OKLVcddfeWVzEjXpdFo6hm13Rjef2U+zVcuZ/DpQykd3PWlbuCFg1GOYsF/30W2S0ZvvT6EacvQ320WvPUuY8ZsiPdFF+u1+jxwYVpXW439qs2wI0aw4N/vAjDo/CE03L1iNZzVhUjf152dnTQ1DcQ0DcIwQKYK6laNmIOY/dQzatSoEeRySV7qv/99j1GjRtHa2sqMmbM48aSJKENQmWKfVPhBHMWEaRFFHEcQV7uj225T3RyrWTmklPxpzhwOPOSQfpWVr2mKDQ3MeOopdt1jj17zgRqN5n+H//vryz1uF0JgSCMpjjBkti3bHytuvfVWdtppBwYPHMQjjzzMiSdOwPd9Sh2duOUyi99fxNi9u3oyJSppEjVNkzCKaG1tQUqJ7IeHovn4iOOYb5x8MtOmTFnpqsE1weR77uHGSZO0kdJoNH2ilEoGJcZRWh8QMyBtPYpVDAKiqKaPKoxC4jgmVslMKsdxiOMIy7J6LDNWqr48XfPx8Pobb3DjpEl8ryZXtbaxx+678/wLL3DX3Xev6aVoNJq1mOpivOTPxsZGymmxl2VZuGUXVdtHZVs2SiSWTAoD07RwXZcojnupcktyWWo1laWv69wzefKaXsIKmTlrFjNTVQqNRrPuotLm4+6i5bU9uJVoXSXd5LplDMNIFZKSdJJZ04Zj2radlgsmMcUwDMjn8kjD6DOMo70qjUaj0fRFnZasEEkluRB0dnQwsHEAtu1gGInSkWFIbMdO6h66Ibuq1ARSCDzPwzCNxBVL1JV6HPHR0yI0Go1Gs+4iERgkOfVK/2ktle3FYhFEok/q+4lIgIoVhjTq+j4lJOoMFe+pUChgSAMFRKlVq72ZEF29VbWWT6PRaDSaFWFZFmEQUiw24DhOEi6UibfV0FBdSi+DMLFkTs4Bkrr2MArxfT89ObFydYoUqhKHrC8/1Gg0Go2mJyq2pOy62LZNQ0OROE5FJxQEQVDXJystyyJWiiiMUCrGMExKpRJxHBMGSYlgrTKFNkoajUaj+TDESmGYZirwrSiVOulMbY5IS9drK86l7/uJAkWai3Icm0KhQD6fxzRN+muTdHGFRqPRaCDth+oFQxqoOCYIEtkkwzDJOYlgbhRHhFFYpyArTdPEyeWIoog4Vti2TRAEBIGfzlHS3pNGo9Fo+o/sYxy9SMvXm5qaCKMwG53Ufb6h59eMovc8j8ANMZSBiBP59XLZTeY+hUG3i9fXxEuV/KxNs040Go1GswYQSR9VnPbl9pYiitOxUkEQoOKYwUMGE0VhanNCUArPrR4VJIVIytKlITFMk46ODpqaBiQX096URqPRaPqDqpSex316VHHaDGyZJqZl4Xs+MtUGTC9D08CBVedIx3bo6OxEKUUYBliWRT6fz0bTazQajUazKqgSp03Fa9va2gjCACGTwbOmaeDWTFKXpmVSyOcBkSqjK1pb27JZT/Vj53WcT6PRaDT1iH6kggwpk6ryKMLzXJycQ5wKT8h0erw0jKpzZEtLK5ZtUdHwi+OYKB2kaJhGD7fRaDQajWblqUyJdxwH27YwDBPbsmhK1dMNaRCrGKNmYoS0LYtyuZRKJSnCMCSKQgQi0/+rkPx7N4FB0fVTGYRV+dFoNBrNuodMI3M9IYTIJJTaWtuIVUyh0EC5XE4EaWWiql6b4pLFYhHHsVEqJo4jisUihUKBIAx6lk7qZoMUaA11jUaj0WQoVJ/OSnebYRomnudmsnxhEBGnEb3uyM5SMgo5M0oKgiDENE1KpeqElkaj0Wg0fdHfOgalVCKCbhhJfUScjACxbRvPq5FQ8v2ksdd2HAzDoL2jgygdplgbJ1zVC9VoNBrNuoVpprkpOxnnEccxYRgkXpgQhFGIY1fPQpT5XD7V9QuIlSKXcwjDiHK5nMiwazQajUazqlAxoGjv6MBxcoRhlIX+XM9NBNFzuapTTNM0s+SWipNqjMZiEcuyaG9vXzMPotFoNJpPLN1HQdVS6c9tbGwEwDANgiBExYpCLo9QsGzpsqpzZBRFGGnNukiHWEVxTGdHB9KQdTfoHtbrLqGUGTsd9tNoNJp1mhXZAyEkvu8D4Hs+ppU4TGEcEiuVjp3qQkops5JBIQRSSnzfw6qRWddoNBqNpt/04rPE6YDEynT5YrFIGIQIIcjn8kRRRLlcXUxhhlGIYRiZ5ZNSZv1THR0dH+tzaDQajWbdZEAa+kvGSSWGy3e9tFWqWr5POo6DFwQoKQhVjOM4CESar8r1dH2NRqPRaHqlP6IPrusiBLS0tCQaf5ZJHEeAwLatqmNle1s7CLp5VYIojgnCANuyerzBh12YRqPRaP43qaSQIBmAKGTPKkWmYWBISVt7O5Zl09hYxPM9VKywTIsoiuomd0jbsTEMI9kpBGEYYKThv9q59RqNRqPR9EQcx5mihCENojDq8biKMRs+fDigcF0Px7arCi9qaySklJIgCBAITMPM8lJBEKDSbFivA7AqQ7LQ1X4ajUazLtPdo6oU5/V2jDQMBFAqlVNHKclJRXGEYUg6O6vrI0yoJLMgCAMGDx6MUop8Lo8gHRvc7YRkHT1oAK6qp9VoNBrNJ54VOS+e72GaJmEYZpM6lFLYtlNfTJFdTAhsy2L58uUgoK29DWmYdSWGQtR7WDo/pdFoNJrurMguSCFxXRfTNHHTcnTLsvB9P2sGzo6Nozj1nARxrGhoaADAcRxM0+inOro2VBqNRqNZMZVRUJ7n4ThJY69Ke6uCMMS2bdrbqlWRpJCCWClQijhONP5yuTxhGOJ7fnaRvtH5KY1Go9H0j0RiSRJGIbZtJbmrWBFHEb7n1Q3tlYVCAdMwkm5hISgWG5PxwLZDrOKq+VMVFYtaustlaBkljUajWQcRgBTQzU70Fv4zpEQAURjhui5RHKGUolAooEgG+HZHNjc301kqpReVtLW1Yts2nZ2d2JaWUdJoNBrNyiOESKb21lDp1zVMA8dxsCw7C8qVy2Usy8pSUBVksVik2FCEVFi2kC/gOA7FxiLlsh6cqNFoNJp+kImTx1lkrTcFdYAoiimVSlkpulKKfL5ApWWqO9IwjKSLWAhiFbO8eXlqoASmZfa5ru7q6RqNRqNZtxH9sAdRlGj5SSFwHIcojjEMA9M08H0P3/cxzWrbY1Ym/CKSHFQ+X8A0TNxymUK+AIgkT6XzThqNRqPpg0pFX2+5KaUUUiZTOsIoSkbRSwPf95FSolQyAbjOo0qEAdPEFwLHsSmXy5iWSVt7Gz2VnutiCY1Go9H0RF/yDxXFiqTKL6ZQSFJNtm1nUT1DyqzivIK0U02lSiew7/up0oSoc780Go1Go/mwdPe4nFwOy7aoVFJYloVtWcQqZkCxqeo8CRCGIZZlEUZJSaBhGEhDktNjPjQajUaziqhE7ypOUBzHFAoNtLW14fs+sUpSUK5bXcgnVVqpUSqVsEwr0f2TArfsZhMYNRqNRqP5qHRPG5mmSalUSo1VAcsykSIRRHdy1U6StC0LVEVCKcIwTKIoIl8oUK6xanEcV6niVtTTlVZQ0mg0Gs0K6G6o4igin8tj23bS9BvFhFFEGIS0tLVUnSfbO9oxLTNzxTzPA2D58mVabFazzrH9ttuu6SV8ZHbYfvs1vQSNpkcqYz5M06BULqOUwvd9rHRIrwBsx6ZQyFedJy3LSrwkkpSW49jYtk2hUFhrc1QVIcOeaGxsZOutt/7YjOywYcP6LDIZNmwY06ZMWWX333TTTdl8881XybUAdtpxR6ZNmbLKrgfw4P33890zz1yl1wR4cMoUzjzjjFV+3d645667OPDAA+u2b7zxxmyxxRarbR0flc9//vM8PG3aml6GZh2kLxm97rJKQgh8z0uH9YZJEZ8UhFGEFJJcrlB1rmlZFkaq9aeUIggCyuUyhmHW6S2tSUzT5OuHH84pJ52EaZrsvNtuVfsNw+DxP/6RpgEDKJfL5PN5pv3hD/z0qqv6fY/TTz2VE447jh3Hju31mEemTeP5F17gO9/9bo/7DcNgvfXW6/c9e+N755zDYYcckv3HVUrx+3vv5Zc33pgds+cee/Daa6+x5IMP+n3dXC63StbXnfXWW49Bgwb1uv/n11zDzr38Tiu/65123JHGxkaefuaZruuOHs2ggQNX6Vp74zunn47tOFx86aXZtm+fdhrHHXNM1X+DaX/4A1f+7GcA/GXevD6/kOyy++74vs/zzz3X4/4777qLSbfcwp/mzMEwjB6PATjg4INZvHgxzz/3HPfcey/X33BD1f7NN9uM3991V/a7vPX229ll5525+MILufSKK/r3C9BoVhEKVVeiLtJ/ulNsbMR1XQzToKmpCc/zyDkOHUFAZ0dn1bFmHCcCgKZpYkiDMIy6BletJZG/rT7zGe649VaWLl2K10PXMsAZp53GgMZGvrTrrkRRxGabbcY9d93FLb/+Nc3NzatsLWPHjasb6rWq+cyWW3L4oYdy+JFH8s677wLw2a224vbf/IaXXn6ZeemL74pLL+XCiy9mxsyZH+t6VgWe57HrHnv0uv/0U0/l01tsUWWoVifHHnMM+x90UPZ5xIgRHH/ssUw85RRefe01ADbdZBPuvftuXnr5ZZ56+ml22nnn7PhfTZrEsKFDOeSII3q8/nnnn8+s2bN73PelXXfN/v073/42xx59dJ9flvrDt04/ndkzZnD1dddRSrU8NZ9sovVDjAUmxIAB8995hzFjNlzTy1opusrTJX465iMMwqTx1zTw/GTafFArSluRWK9U+FmWSRQlrljSHbzm1dAXvv8+O+28M/sdeGCvRueoI4/k6WeeyZ7jn//8J2EYcuLxx6/StRx5xBFsv912Vdu23247fvnzn3PyxIm9hiW/sP32XHfNNfzw/PMZMWJEn/c4YP/98X0/M1IAr73+OgsWLOD4Y4+lsbGRE44/HsMwGLfLLpxQ84xf2H57fn7NNVxx6aVssP76fd7LcRxOOP74Ko/Htm1OOflkfnHddXy5B+MydOhQLrnoIq76yU/YYIMN+rx+fzjh+OPZaMMNs38vFotV+7fcckuuu/pqfvj979eJVQJstOGG/OTyy/nJ5ZezYbf1GIbBCccfT6FQ4LxzzuGs73ynx/t/65RT8DyPJUuWZNsOPfhggMxIAfzr3//mnXfe4eSJEz/8w64mXNdlwYIFnHv22Wt6KZpVxPt/WpAYKYAIRn++7/+310aUUqg4UacgHcLb2FjEMAwMKZGGIIxCoqim4TcIAizTzEIPYRgRxyqdS5VjbZg11dzcvEJjKYTg2ZpvrAvff59PrcL8DsBJ3/hG1Uv9lz//OTffeCM5x+GLO+3Efb//fd05D0+bxg3XX0+pVGKrLbfkkWnT2GP33Xu9xyOPPopt22yy8cZV2w8+/HC+edppOLbN9ttuixCCT33qU1UFAI898gi//PnPWbR4MSNHjuSB++5jt3HjeryPlJLH//hHDjrwwMxLs22bOTNncuD++9PS0sJll1zC1Pvuy85xHIfpDz/Mzl/6UhKO/O1vP3I+bvttt8285O233ZZKEzrAvvvsw43XX4/ruuy3777MePLJqnO/fvjh3H/vveTzeQYPGcKUyZM54KtfBRJDdfq3vsXMp55in/Hj+XQveaYD9t+fPzzySNW2KQ88AMB2NcUVhx91FEccddRHet7VxYMPPcTuvfy316w5lKlo/X4Li15YQPs326p3Smj7TiuLnltIxzeS4YHlPUs0X7MMIPvT/5xP+ymtxIPibFuF5muWoezkfenuVmbx3IU0X7487Zpd8wgpiWOV5aekYaROkSAMksGJA2tC/mYyd0olB1g2UiSRREMaSCkhK7PoQilVt7lSzbEmae/oqPochmGfhRcflcZikS/utBMHHXYYCxcuBGC3ceO4+sors2O23HJLRo4Ywbg998R1k3HL/8/eecfbUZV7/7fKzOy9zz4lnRCkKyBF9FVBCCgoKljwKqCoiAXl2vAqSL9XKV6UJioWuLZXXzuooAJKlwQBCyg28KKUkEZCknN2m7LWev9YM3Nmdt8nJ8kheb75nE/OmVkzs6atZ56ynuetb3kLPv2pT+VMR1n++re/4Y4778T3v/MdRFGEm2+5BZ84//x0/Zq1a3HKRz+Ku3/9a3z1619PTX8LFizA6OgoDn7pS9N78bWrr8ZHPvzhFiEOAL+64QYYrfHGY49Nl91y001Yt24dXnv00QCA8y68EPcsWYJ5c+fiqTVrcOsvf4kNGzbgiCOPBGDv+z1LlvS8Vp7n4de33ZZbdtoZZ6T+vm994xvYc489Wnx/K1auxBve9Kb0WPcuXYqddtoJjz32GAqFAk796EdTHw4AvPMd78A5Z52Fn/3iF+k+zj73XNzaxTw6d84c3HPvvbllT61Zgxtuuglf+eIXoZTCHXfeibPOPbfneXbiwvPPbzEZH3r44QPv57hjj8UbY20vwb6nrTz08MMol8sz4t0kJnnykccx/LURLDhke6z47TL4BzQw993z7bqHHkfxxhIWHL4Qq25fjtprqpj3jgXQixTqR3GMnmd9wbU3VxDtEgEKqL6lglmnzQEAVN41Af+ABljAsOqWFVDzFRYesAhrvr0aq25egQUvX7hJz62fj9YgCCAEh+NIFEtFjG8Yh5R2WhTnHH7DR6Ph57aRWmtEUQQxJOw8KRhwIdKKi2kEB893xBgDbpJctRzKbHuTgxctWgRjTCqkADs4ZPncZZehUqmkQgoAfnTttR3NUAmnn3UWRkZG8L73vAfHHnMMjnz1q/H73/8e7+8SBbdq1SocdOih4Jzjda99LcbGxjA0NIRisdjS9qfXXIORkREcdOihuUGsUCjgrHPPxbN33z3X/s3HHYcrv/QlOI6Dk04+OV3e7wAYRRG+dNVVuWWPP/FEz+3+nDG9JccaHRkBgFTjHBkexsjwMABrqmseuP/44INdj8EYQ7VabVn+yfPPx6WXX453nnACTnj723Hf3XfjL3/9K9510kk9+93Mzbfe2vJsTIW//PWvLUJ3wfz5eFsbLW/t009v9PGI6We7ly+C/F9rQZj9kblY9xmrEW04ex3EkxKzT5kLAJj/uu2w4r4nwaoM1TdXULqmDD5hn+36K+oY+fwo+Di35TUKBqzBsOHcddju5QsR7hEi2jXEol2tKXzeMQuwbNljm+X8OOuuujmOBOcCtWoNfsPHrFmT2hMXAlJKyKYKv7JSraI8OvnVVa1WbVLAJKt6B7IDlJkB5kEAKJXyIY2O4yAIgg6tN57R0dGegRWjo6P4x//+b25Zkhl4h0WLsOzJJztuOz4+jks/+1lcdsUV2HefffDVq67Cye97H666+uqO23znW9/C7rvthtvvuAMrV65M5yc0s/322wOwkXWJLywxuV128cW5+6uUwujISOoIrTRprv2glML3MybEfukWeZr43771jW+0HCuL7iPDSieBW6lUcOWXv4wvfuUr2HOPPfB/v/51nH3GGfjvAaJJAeDOO+/sGEwxCH/5y19aruOzd9+9raDq57yJzc/ESRvQeEUdesTAFDW8JXYaUPVtFcx5z/y0HV8jUkET7hFi7D/npOvUogila2N/rQb0mEa4rw+xXEA86mDigqdhOLByaefxZVNgjLFRf120eK01GGOQjgOtFQCWRmobraG0aqmFKIvFAsDsy13wPIyOjCIIAnieLUXfb+dmgnnhkIMPxq0Z89KC+fNx329/u8mOt3btWpsXkfOOAuvRxx7DLjvvnFs2EmsEnYTU9T/+MX5z771paL0xBn968EEse/JJHPbSl3YUVM/day88e/fdcxFjO+ywA/bee++Wtoccdhg+/9nP4jvf/jYWx6H+iVB/10kn4W9//3vbYxhjsMsuu3QVsJuLxx5/HMaYFq1wUGzBtrzWef2Pf4y//v3vOPPss9M2f/v73/HPf/0LhyxeDAwoqLYEzXZ+Ysuz8vblcB90sfBFOwAGWP7HZRj6gQ0eMo4BX99eGzGegVie1zJYw1q3vN95CPcK8PRlazH/36xpL9wrQOknQxi9aPM/A+3C03PrY3kRhiGkdKBUhJGRkfijlKFQKKJYaJrwK2Izn+DW9Oe4DhjncD0XybpslcZkQOjWkS3BDTfeiCNf/erU7DN//ny4rov/++1v59pN58ubaCJvyvgM3tA0YfT9H/wgHMfJRcd9/NRT0wwg7fj7ww/jda95TS4M33NdLNp+ezzyyCPpMmMMypkouMQfl1wDxhj2f97z2tqNfd/HyR/4AMIgwNf/53/S5atWrcLXrr46N6/n9FNPTf5MiGUAACAASURBVDWz5cuX49Of+lS6z5FY09pY/Clovv/817/AGMNJ7353umxoaAgf/uAHB9rP+vXrsd9+++WW/eH++3H4y16W09Idx8EuO++MxzPRmDOZXXfZBb7vb/EPSGKSaLcQI5eNWXOdZ6DnKJSus+8wq3GEz56sw7Tql8tRee84jGNdL2K1fSfDZ4eAmnznRi+cjQ0fXw9e45CP2DHD+3URwYsaEKsFxGoB1mAdheB0klTe6FaTKqFYLEBrhUbDx7r1cTS3MajVqgjDvDVAci5gtIHSCtpI+L4P13UwMT4O0cFJOxMf/AsvughHvOIVuGfJEixfvhzbb789fv/7P2DlypVpm59fdx3mz5vXc45K8wRNrTUOXLy4pV0Yhvj0xRfjzNNPx3+ccgo45y2Tb59etw633Horrvn+97FmzRqMjIxACIFju0SOnX7mmbj2Bz/A3b/+NRq+D60USqUS1qxdi3M/8Ym03erVq3Hu2WfjtI99DIcefjjuf+ABVCoV3LNkCYIggOu6ePrpp7sK5+OOPx6/uP56vP2tb8X/++53cfSb3oTbfvUr/Oauu/D4E09gh0WLMFGp4OLLLgNgIw+X3nkn7l26FBOVCspDQ1B9zCvzPK/txNfkXlx11VX40pVX4o5bbsG7TjoJ/3r00Z779H0fp55+Oi67+GKceMIJeHrdOmy3YAF+ccMNPbfNctfSpXjj0UfnNNVPXnAB9txzT9xxyy3wgwBRGGJoaAjr16/HyQMKQgC4OBNgk3Db7bfjzHPOGXhf/XLUkUfid7///SbbPzE4zsMOVt2xHO69HoID4o/VeDhd8MqFWPH7ZWi8Ygj+AQ2AMZT/Z8TGBxjgqR+swrzjFsA/qAHnH5Mmffd+F+F+AbY7eHIi//CXRzD+sQ1YddMKyEcd1F9bxYKXbw/nofaugOnE9DmlyRgDpTWklCh4hbioIofrui0uC/bbJXebUrmEkZEROK6D+3/3AHbddRdEUYTb7vg13nXSe6CYAU/9UAzGAEabNEltYiLMdu75++fnGk0XnPPcvK9m9tl7bzx3r71ww003tfhSOGNYuHAhnswEP2RhjHWMoEqOZ6tQ5m8E5xxv+rd/wz333osnli2DEKKlf4wxvP51r8OKFSvw29/9rq8byTnHq1/5ShsSftNNbbWwV7z85dBa5yb97v3c52KP5zwH1/3sZ7bkM+dpf5JzzPYvOees+XLRokVYfNBB+PWSJVixYkXLuRx80EEYKpXwq1tuSc2+nc4puWftyPZjp512wotf9CL8+Cc/gVLKZkyJn7GETtf20EMOwayxMVz/85/nzqNd+2aSaMKDX/rS1sqinOMVhx+O8nAZN9xwIxodNOF21zDbh3YYraGbrlm7+5PdT/P16LRNck5Hvf71WLNmTdvjE1uGcM8Qeq6Ct7QAOACyxgQGNA6vw/2jB74mMxZJwH9JA95d1lUDhsk5VQAgALR5zIMXBIBj4N7nTftMo/sf+EPLsuQ9TwIqpCNzWpbSCkZp/OH3f4Af1LD7rrvh/vvvx4te+EI4joug3kClUsFTa9biJYdNZh9iv7nj12bW2CyMjY1BSIHf//4P2HfffVCZqODGX96M95z8XigYiDTqz8bAG2MQxS+NMRrMbB5BRRCbgs9eeim4EPhIh9RYzzT+85yzsesuu04pQpEg+qGXoGKMQUjRIqhUqPDnPz+IamUce+2xB/704IPYeaedsGDBdqhNVDAxMYF//vOfeOXRk24U3vzlGoWhFUZGQ2uV+qi6JRskiGc6Hz3tNOy3zz54YyaN0jOVA178YrzmyKPw3n//9y3dFWIbppOskIJDcI5avY4oilCv1TFr1iworcAFBxccTmbSPwBwrTWUUohUBM4FIhXBGJ1W/QXy5YPbMRMi/ghiY3nlUUeBd0kO+0xhh0WLcNgRR8yopNIE0czoyAjCMMLo6CiqVZuPUikbut481UgmudOsjd2g4BUQBAFkXEAxIbHBJxWBs9qV1nqGxQASxOCEYYhrrr12S3djo7mWSnwQM5gkPD2KIhQKBYRhmMoSLjjCMEQYNuX6q1arMEh8T9bx7rkexifGwblIBZLWOu/INfn6IgRBEASR0CkwLQkgqtfr0FrBwMBxHRht6yKyNpktuOu4ANNgTIMxgyAMoLTGyMhIy8z2bPQW473j5AmCIIhtk6x8MJiMDrdRqiI2szM40oFWGowzBGHU1jrHwfL5ZWu1GorFAmq1Wt+ZKQiCIAhiEOr1Omq1GhibnKbiug48z2tJJi7DMJxMNAtg1qxZqFQqtj5IF8ey0VZCGhJmBEEQxIAUi0UMDQ1BG5MKJsZsOXqj88F53HVdcO5AMAmYOGO6Njbiz3T3P5HpjyAIgkjIRn+3m5yexZESExMTaQVqow1UFKVR6NnJ85yBIQwCRMrOmarWqmn2W6U7z+hPfFTtHF8EQRDEtk0S3deJhu9DOhKlYgmu69hgPiEghWgJxOBhZFPGSGkj/DyvACmlTVDboUREuw4RBEEQREKv+bXD5TJUpFAo2ClRnHOoMIIxBo7Myx4eRTY8MDHzTYyPp/bBKGqvUaVpMkz8Q7OoCIIgiJg0OryTbGCA1oBX8MAFUKvVYYyBdCTCKIRoKpzIPc8FYyy1B5aHy3BdF/V6HVLKdB5Vu5j4rGpH/iqCIAgCyJSD4q1aFWcMgnNUKjVblaBUAuccnHMIISCFxNNPP533USU7taHoBkEQgHGOUqkE1SEFizEGWlG0H0EQBNGZdqY/HSs4jmtLzjd8H67r2rIfce7ZYrGY21YKLiAlB5jNgj5n9hzUazUYbSYLJ7Js+YJJDSqbRon8VARBENs2JilB0gXBOTgXkIJBCAdGTyaP0EYDDK0VfoMwgDEGIs46sX7DeiitIYRA0KY2TzYzBUEQBEEMQlIa6ul166CUgu/7qNfrcSS5ravW8Bs5d5JMsqLrTKJZwTm0FDYPkzFtJWTzhKxcugzSrgiCIIguzJ0zB1IKCCms6S/O9QcAnDdF/QFJnftJc56UEoEfdEwqSBAEQRAbA+ccjYYPR0qAIRe8J4WAykSd89THFC9oNBpQyhawmqpmRBGABEEQ2x6DjP21Ws3OnVIaruMiDEMoZd1OkYrstKkYnqZJSoMiACEEJiYmIKXs0iMy8REEQRCWrGDpRpLRSEpb89AYgyiKIAQHj8PZGctnteDZAAlr9hNoNBoYHR2jCqEEQRDEtJLEPWitUSwWobW2xRNhhZgUsjWFUmmoBN/301LzYRjBde0kYNdx2x+JIAiCIDIwtE7ubQ66SxCcI1IR/MCH53lppY4gCKC0gtYmty+eZqAA0gwUSfqK5hD05gq/hjNoZmPns+XpySRIEASx7cHBwOLhv1vWImNsij4pZKooGW3geh6UUqjX6zDZzBTJRF7OGLgQWLRoe2htEAQ+opBMfwRBEMTgdEoGkU0iEYYBKpUKqtWqTYauNKSQcJsSovPmDLfr16+HUhEY410LJxIEQRBEV9rNwU1SKDkOhJAYHR2F7/u2CG+8zg/83KYcsPHsSttGxhhEYQQpRffsEwxg2oAbpKoeQRAEQXRDGwPGOQLfB+MMXHDMmjULACAdiSAMMDRUzsUQ8iiKbHSfMQAYJsYn4LouNmwY75yinSAIgiCmAI99Vn4QALBBGFxwMMahtYaUDgLfzxXu5Uk8exIO6HouwADP8xA25fojCIIgiI2FMwZH2rRJSkWQQk4GXRhjI8+z7R0pwWIhZYxGGEbgnENrhV6TjCkDBUEQBNHMpNDpJCdsDUQhGKQUcVwEA+McURTB95sSomujoZVK51E1Gg3U6w0ILuC4nedRNZsFSWgRBEEQ3Uirw3MGziWq1RrAbKh6GIVgjAOM2SS1me240ZOJL4wxWLjddnAcCR2nteiGZvYHfOp5AQmCIIitj/bzpxI5wRAEdRRLJUSRsimUuIBWNpWS48q86c8reGmePwBYsXIFpJQQgnfP9YdsnDxV+yUIgiAs/SR+mD17FsIghIoUPM+DNjreDoiiECqT1YJXKpXYJ2WFje8HdqKvaTXvdesUQRAEsW3TkkKpQ6JaxlkaD1EuD9vsFPG6KAzhOE5OgeIjwyOIoihOnyQwd+6ctMxHtVptzmCbS2DLDQCtwSmMnSAIgmiik7LDGYMxAGMGYejHySVsnMRQeQiNRqNpHpVSNr+fsBV9pXSgjYbjOCiXy5vlZAiCIIiti04BdjZLOke1VkO93kCtXkMUWe0qDEJEkY0A5FklKQyDtLIiAKxbtw6lUineIZn0CIIgiMExxrSVITaFktW2RkZHUCwWwTmD1gqu5yKKIlSrNZstKYaXSkM2KzqsBFwwfz54HMvOGZWiJwiCIAaHMdbW9MeZnUPFuYDf8OOaVAZBEKaCbWxsFFkZx5WK0kAKxjgq1Qpq1RqkdNBoNDbLCREEQRDbBjqOhxgbG0WxWEQYhrZgoiNhjM2qrpTK5ZrlyURfW2tKgzEOx7VCSjrdw9MJgiAIoh2dosET059SyiaYqNUhhEg1MNdx4ft+bhterzfgOA54XMeeAZDSQcHzoCKVO1iucGKyg9g8mAi85IcgCILYdklKzjfDwADGEPgBhOCYM2cOarUqOOM2OS1nubgJAOBCcARBACFsvqUwChGGAaQjIR3ZMTy9XadoPhVBEATRDc5tRJ/SCsYwaKNRLg/bbOlxmSnXdaGiTPb0pPx8Uswq8AMopeD7AdqKQ4IgCILYCBjjGB8fB2DiJLR+Go7OOLMTgLM+qkKhiKTKry2gqOA4DvxGA84APioy+REEQRC90MaACw6tDZRW0FpDaxsfkcihIK5VlcDr9Vpaj4pzDs44wjCE63lpxor0AE0+KhJMU8POwt56jnndj388o5+F22++eUb3jyC2RhIFqDWugQHGYGR0BDCw4elxvljGOTzXS6186TaO48BwhkBFMJyh4fuAsfmW0jpV2qSSrpePalP7qoaGhvD/vvWtrm0OWbwYR7ziFRt1nJPf+1587eqrN2ofnfjNXXehUChskn23Y/68efjNXXdtksH6O9/6Fv7+0EMt93yHRYtw3bXXtrS/+KKLOl7X5++/P77+1a+2XJsXvOAFbfc1OjqKr3/1qzjiiCNa1n3+iitw1Ze/DAD46fXX45e/+EXf50QQxDTRSRQwBhVFUEpBRQqccRijoSOFarUKwZ1ccw4AYRBCShs4USwUJoMotGnad/sJXJsaIQT+65xzsOSOO3D7zTdjl512amkzNjaGb3z1q7h36VJcdvHFaXaNqfKuE0/Evvvss1H72Np5zZFHYuHChTjjrLNa1p3x8Y9j4cKFOPGEE3LLf3r99dh3n31QLBZbtjnvE5/As3fbrWX+3pVXXIGFCxdi5513zi3fsGED1jz1FD513nnwPC9dfsCLX4wDX/xifPriiwEAn/vCF6C1xtuOP36qp0oQM46JUzZs6S50pZM7KEmPZIyB53nwfT99f202CwCMQatMZoowDMG43SgMQwRhkO4s1ZBg0r+3BHvtuSf2339/nHnOOXj00Ufbtjn91FMxPj6OE9/97pYY/EHZb7/9wDnHunXrcMF5523UvrZmTj/tNFzx+c+3XffiF70IN996K9721rfmlt/9m9/AGIO3HHdcyzYL5s/HhRddlFs2MjICKSX+9eijuOjCC1u2OfOcc6C1zmlpV1x2GR7885/xr3/9K132yQsuwCkf+tBA50cQM4mnvrcKxovHYA5sOG39lu1QDzqlUMomNldaoVgsoN6oAwCEFBCcw3WaNCrGOEykwA0gwKAihSiMUCqV4oqLVosyxqSplhKSwolmEytZf/7LX/DGY4/FkqVLO2qS5/zXf+EjH/sY/v7QQxt9vP/48Idxz7334sKLLsJhL3tZbt2ZH/847rz11tyyz156KZbeeWf694c/+EHcu3Qp7l26FPcsWYLXv+51XY/38sMPx5I77ki3Offss3Pr71myBG94/etxy003pfs8/LDDcm0WbrcdfnnDDek+vvj5z4PzfAqsw176UtyzZAnuXboUS++8E3Nmz86t/+gpp+CeePtbf/lLzJ8/v2OfZ42NoVgs4mc//3nLuqOOPBIAcP4FF2BsdLRFu/3t736Hd7z97bllL3rhC8EYw+133JFb/t73vAdBEOA973sfdtt115YaaVprvPM978Fznv1s7LP33rjgvPPAGMNJJ5+ca3fPvfeCMYbn779/x3MiiJmMf0gDzI8HWw3ssGOrZWnG0WbATiLMq1UbHxFFCq5jq8lrY2J/lc5tzAXnYLHvSQgJFScGHB8fh+d6rUeZoYlqp1Pb22fvvXHll7+MpXffDddxcgP6FV/4AorFIoYyg++BBxyAi2Iz01vf8ha87fjj8YZjjsEBBx+MT5x3Hs496yzMmTOn7bEKhQIuuvBC/OcnP4kDDj4YbzruOLz+ta/FoYcckrbhnOO0j30M7zzpJBy4eDGWLF2Kiy68MKdW//Taa3H/Aw/gwMWLsfhlL8P+z3sevvLFL+aO9aEPfhAvOeQQHLh4MXzfx7e/+c103Qff/34ce8wxeMWrXoUDFy/G/Q88gJ/95Ccdr9Fb3vzmthPAAeBD738/fnLddfCDAKtXr8Zn/vu/c+s/c8klGBoaygmwz11+OVavXt0S7XPcMcfgE+efj0qlAt/3ceSrXtVyvL8/9BAe/sc/8LWrr8arjjgC511wQdt+rVm7tkXAE8TmpnLCBJYtewxP/v0JLHv8Meg5k/OFGq+o2XX/+ziWPf4Y1PYR1n7pKSxb9hgApP9X3z6BVb9aAbVApcsAQA9rLHviMYABeo7Csicew5OPPI5lyx5D8IKNszRNF1ZQcYyMDMPEleSVstdAcgEprTaVK/Phem4av66UQhiGqNfr8AqFnLmvUwTH1sYJb387tNZ4+OGHobXG448/ju995zvp+kajgfHxcXzg/e8HAAyVShBC4NbbbgMAfP+HP8RBhx6KFStWAAB+efPNAIBFi7Zvezzf93Hg4sWpJrHsyScB2AE6y+e+8AUsW7YMxhh8+pJLrD8x9vO86d/+DYwxnHn22akJ9wMf/jB2avriOubNb07v4U+vvx5z585N1514wgm45LLLUKlUYIzBaWecAcYY9t1337b93neffbB8+fKW5YwxzJ07F9/69rcBAJ/69Kfxohe+MNfmiWXLEEUR3nfSSQAAz3UhpcT7m0xzez/3uQCA226/HQBw6+234/TTTmvbnxPe+U4wxjAxMYEbf/nLtm1WrFiBffbeu+06gthcbDh/HRbtuiMW7fksjF48hlU/XwkAMEWDNd98Coue+yws2n1HzD1pPlb/YiXmfGAeylePwL3fww472He6/qoavD944Otjq0n8zfr0lWtQ/uYwwIDlDyzDdocswqLddsTCAxdh9XUrN+t5mjgMvb2fCojizEeFQgFDQ0MAgDAMEUWhrfabrfCrtUEjDKCMAeIJVp7rYWRkOI5tZ5md2zRLAFK/1tbGCW97G66Nw60ZY/jIqadibHQ0Z3L60lVXpeatD3/oQ1BKoV63NlatNQ45+GDcd/fd6Q/QuYCYMQZz58zB7TffnGvfbLZbu3bt5DZpEmG7z3333RdPr1uXa//HP/0Jr3rNUS3HSqjVaunvIj7WWWec0dLvnZ71rLb9LpfLqFarLcs/df75MMZgxcqVYIzhnnvvBeccezznObl2P/jRj/DGN7wBAHDooYcCsAIsyzlnnZUKfMYYzrvgAnielxOwCVdcfjkAYHh4uKMwqlarGBkebruOIDYXi3bdEZCALmugzsDi13LVzcsxcsUo2Lh9Hwu3FDHnHdb8XjuugqHvTtYH9A/1Ubp2yJoCDaBHNMCAxuF1jP3XbNRfVYN4SkCsFDAFA75GbPb8DYyxNGK8eVqTAVCr2cK8jLN48i/gFjy4rhtbVia3kZ7nQggOMFt/yvM8VKqVNIMtgHiGcFOJYb1lAyw2FWOjozj2mGNwbJNGc9SRR+L6n/0MAPCTn/4UZ3784wCAN77hDTjhXe9K273/5JPxrhNPxGuPPhrrN9ionCVNfpcss2fPxs+vuw6nnn467vvtb2GM6dq+HUbrXNnmQXFix+Urjzqq5X4mAriZRqOBsbGxluUve+lLwRjDvUuX5pZ/5YtfxGGZMPIvfeUreNvxx0MIgQs++Unc/8ADLfvafbfdAKBlXx/58Ifxn5/4RG7ZSw44AGedey7e+Y534OovfxkHxcIvi+d5Hc+HIDYH0c4hVt65HM4jDrzfFFA5cQLlr9uPJzVPoXhjxp+rAfdB67sxRQPvt5OuGCMM3OTviEGPaay7dC1GvjAGGKD6lgrUfIUn//fxzXZubYmFY/JRbYWXhuDcTkMxVotiEOBcIAqiTPtJySrXr1+PZ+20Q6pmeZ4HzkU6Z2pTB0rMJK783OeglMIrj8prIhd96lM458wzU0FljMETy5bhsosvhjEGDz/8cNr2tUcdhVtvuw2rn3qqr2P+5znnAADuWrJkyv2+/49/xGua+rzTjjvi/E9+Eie++909t2/EUZJHvfrV+O73v9/XMR977DHsueceuWXlchlSSrzm6KNzIebP2mEHfPNrX4PjOAjDEIB9ODds2IDLL7kEnHN88JRTcvs65o1vhNYaR8Saa8JxxxyD9510Uk5QLb3zTlSrVdx6221YsnQp7rr9dlx04YU469xzc9vOnTs3d68IYnOz6lcrMP9N28H9nRUylRMmUP5/iZafH2z1bAXjAGK1gPEMxKp40n5TwqDh/xlG7fVV1F9dw5x/n2cXGqB0bRmzP9LeN7456DZv0wZTVGHz0zJIIRGpCIiD9oSQ+RRKUkoEfgBmDEScYr1UKkIKCS5iM99WojS96ogjcHFT+HOW//OCF+Azl1yCiYmJ3M9/fOxjYIxhuwUL0rYXX3opDlm8GMuXL89pIQ//4x84ZPFi7LzTTpgzZw5++L3vAeicGeKGG28EABz2spfB87w0HD6x2fbD9T/7GZRSuPJznwNg55R951vfwvr1/Yevfu8HP8ApH/oQDjzgAADAQS95CX5z112YN29e2/a/uPFGFLxC7mH84fe+h3q9jqeeeip3/f76t78BAE5qEpqXX3EFXnLggajX64iiKLfuQx/4AJbefXfLvfjaN74BxhheGmtM/37yyXAcB0e/6U0ArM/v0ssvx8sPPxxjo6O5fW6/cCHuatLOCGKz4gB6ljXdT7x3HOCAfNhaNLylHtafZ034elhj+f3LAAkYJ44TqNnxuHFwfdI3BWDksjGMn7Eeo5eNAXFcxvDVI6i/dtI0v/7Cp9F4+ea1JhhjUstbO1zXhVYanHPUajU7tyq23AnBoTJjAhdCWFUsHkjLw2U7U1jwra7C7xFHHIGDXvKStut22XlnCCHS4IcsSdLEj/7Hf6TL7r3vPgDAvzcFAJx6+ul45J//xA+/9z3ccP31uO322+H7fsdMGTffcgtuuPFGfOa//xt33X47SsUiHvnnP/GsHXYY6Nxe+4Y3YNGiRbjv7rvxqxtuwE2/+hU+8rGP9b39Zz/3OXz9m9/E5y6/HPfdfTcuvuginHXuuXiqg2b4wB//CGMM9tprLwDWfDh3zhyc8tGPtm1/2+23410nnphbllzrH/zoR7nlc+fORalUSifsNvPII4/gQx/4AEZHR/HuE0/Ej665JrVxA8APr7kG4xMT+Mk116TLhoaGIITAjTfd1ONKEMSmY85J87Dmq6ux7InHEO0e5tbNffd8GMdg2ROPYcX9yzDn5HkQTwqwgEGsFFj2mI3u8w/04fzZTbdLQtaHr5z8MPPuLqD8zWEse+IxLHviMeg5GoXbWifZb2q6uYcmJiagtUa9Xke5XAZjtrK84AJKqZyzid1/z31maKiIkZERuK6Ln/zkeixefDCEELjjzrtw7NvfCgaAsST6T9gkgkpDIXGUaSB2miXS8/n7v2ATX4KZTXZS26Zov6n2M8j2Z51xBvZ+7nPx9iYBNBP50he+gEqlgtPbZNEgiM1Oq9u/97pu23Q7DqawXR/c/8Af2h+SMXCWTHkSORMeABilEfg+rvnRtVh88AHw/QY8r4j58+ch9AOMj49j5crV2HmPZ2O7hQsBALzR8NNByQZQRHFtKpWGD3Yiuy7JBUhYBg3ln67Q/43dzyDbX/SZz2CnHXfE/s973pSPtzmYO2cOXvD85+PM2B9IEFucbq9Yp3VTea3NFLebBjppUww2+WylWo1T9wF+YOVQkl9WcAGdDU8fGirB87y0Ubk8bMt8+H7PJKbNoetbWwQg0ZvXHn00vnzllTM2OzljDD+/7jocHQdnEASxeUhSKLWTC1nrW61WA4Od+hT6ARzHse9qZjvZaDQwNFS0kRacY/mTT0JKJ84aQIKH6M6G8XEcdOihM/YjxRiDlxxyyIztH0FszbSbP5oIqLGxMRgAXqGQTpHxigVMrJ6A4+ZDG1tsdbPnzEG9VkMSZEEQvZjpQmCm948gtib6ed84Y1i37mkUPA+Is+kAtpKH47oIfB9ZIw13XTf1L0VK2ZBAZtMp6S7Ha/ZHzVTTD0EQBDFzSMx+hUIRURQhDMNUozJawxgN6cg04QQA8CAIJoWMMVi3fh1UZHP+2Yq/nVP/dPubIAiC2LYwDGkqvl64rgMDg1mzZ6cZY5gQUJFK4yYSJGeTJX+FEJg7dy64EJBcQgoBg/x8aWPIHEgQBEFsHEEQwG/4CKMArmvnhTEAUkrUa3XMymamEDIWRnGiQCFsuGC93rD5/0hTIgiCIKaJJOG3MQbSkSgWimmxW+nYVEqFYiEXpStVpCDivH4wQK1ahd/w4yzT5HciCIIg+oOZWGr0ITocx7UaVRjA9axGFQaBjZdoSqnGueCoVifTrddqNYRRBN4h6o9tZWmVCIIgiOmDMx5X6e0MYxxKRXBdBxOVCURx1B9ibcvO452UNRywNkGtNThjDHaGaQAAIABJREFUKA2V4lpDFfAOiVQJgiAIYqoklX21MRgbG0MYxuU94nXlcjkXDyGFEBCuAw1AwUAKCa0VBO8tpLixk4e1oanBBEEQBKCNThOaG5iWSb9J3IPvByh4BUgpoKKkGKzdrlarYSQTH8G1sjtlnEGrybB0pRWkJI2KIAiCGBxjWoUUECet5Qyea1MlBUEA3w+gtUoT2QZBmJuby7XR8Q5tuotGowEGBq11i0OLIAiCIPqlU9Q4YwxcCIRRiFq1Bs5trj8Dg3q9juHh4dy2PAojQGtwMHDOEUZhXK+eQtMJgiCIqcEY6zrFyfd9CCExPFyOq/oKSCHjpLT5yh3ccRwwxqCUAgNQKBTheh6MNpRtmiAIgtgkqMimSKrV63beLoAgDOB5BWil8/OowBh0nPZCw0o5zm14YKFQyKVQ4px3jJrI2hNJEyMIgtj2MNaHlFmA1sKJxhac9wMffqMOzjikFEjS+fl+A1LKbJUPcK0VgiCA47pgnKFSqaBWraE0NAStWjUqbTRMt2y1BEEQxDaPMQZcdJ53O2/efLiuB6/gYcOGcUhpS3tIIQGGXDAf11qj4BVs4IQBikVbG8R1nVz22oRkYjBBEARBdKOd+4gxGws4Pr4BBgZDQ0MYGxtLk6ArrcBYPjsFdx0X0BomUtBRBCkdOK6DRsOHoPB0giAIYgok7qAkTJ1nMk0k62zJeQ3fb8RV5hkcx43nVmXKfAghoI1Ja4QMDZVQq9ZsfZAuoYUEQRAE0ZUuXqIgDCCEQKPRwKxZs2xzY4sqqkjltDFuJ/ZKcM7BOMeGDRvguC6M0R1TKBltBRsFTRAEQRAdYa2KTSI7SsUSarUapJDwvAIAQCuNMAyxYXxDTv7wKFIIoxAQHJGKsHDhQhQ8D1GkOkvD+LidNCvSuAiCILY9mLE/WWyUn0kT1U7KB4ZiqYgwCjExMQ4AcBwJIQUc6UBnK/yWSkVwLhCFEYSQ2LBhA5TWcKRsG0xBEARBEH1h2isudu5uhDAI4bpumpQ2DG1Qn+u5uYhBXqlUEKkIIlazatUaatUqlFJp1cWOfTCmZzp3giAIgmjGdV3UG3V4nocwtNmQhBQIwgClUinXlnPGIRiHYAwqDFEeHkZpqASlFZTurlEZzgDO7SQvgiAIgogxxtgkER2YmJhAuVzGxPgEpJRp1V/Xde222XpUBgaC8zTXEmM2O4WUTtsJv62dIY2KIAiCsCRBdong6RR05zgOGo0GCoUCtLb1qYw2cUBFlJoDAUC6rgvDktQXHFrZrOmMKRui3oWs44wiAAmCIAigfR2qZpRSNk0fTwSazszdzcsTHoWRXcQYmGAoFAuQUkJKp6vaBqBHNwiCIIhtkV5CCgA4F+m0qEqlAtfzEIYRIhVBK50LwpBCCJsAMM7ft3DhwjSIopePiiAIgiCy5BKUI+9ryhIEPpRS4AwYinPLOlLAJqHQyAYLculI+A3fhgtGEVatWoX169YjDKO4ngjpTQRBEMTgtNOskixIIyMjgEGcKd3E1X3t71I6aV1EAOCBH8DE/wDr4Jo7b67VqsjtRBAEQUwRg8lgimbNas1TT0EIgYmJCnzf1qOqVCtgjMHzvHwpes45pBC2FD1jiKIIa9euRa1WtROuKEiCIAiC2AgSjQmYjAYslkpQSqE8XEYUKXDBUSoWAQP4jUa+HpXNp2RNfIxzeJ6HYrEIznnP8HQdRwvSPCqCIAiiPRqMGRjkYx6iyM7VZWAol4cmE9EyIAjDXFsppY28MMbAaGOLKEoHOiMBCYIgiK2T2bNn4/jj34y9nrsnxsbG+t7uL395sGcbx3FQLpexww47wPM8ACydCCwEh9Emtt7ZsPREi/I8L1ddXoZhBK/ophOz1jy1Blxw1CtVij8nCILYipk9ezYu/+yl2Hff/TA8MjLtyokxBhPj43jkkUew2267wXVtlnRbct4HGFAaGkLB8wAAnDMwxqC1ArJlPhizVRilsJrVwu23R71eR7FY7NkJbtpnyyUIgiBmPscf/2bss+9+GBkd3SQWNMYYRkZHseNOu+DJJ5eny7XW8LwCpJDwfR+VSjVebrUtrU0ulo9HkYJ0HHAhYIyBiiIMlYbg9EhISxAEQTyz2XOvPTE8PLzJjzM8PJyW8mCMgTGOIPARqQhSSAjB7XLOoLWG1goimz1da4UwDNOSHqWhEoIwQBSFbQ9IEARBbB3MmjXWMwPRdMA5RxgHSGQjAAueBy5sdgoAgLYThB3pIIoyuf5KxVI6KYsxhtWrVqPRaEBr3dP8p7MRf2T+IwiCIHqgjYGIBUaj4aPIGNasWQMAYILBcR04jgNfTwoVHoYhwJBGWOy8y84oFUuQ0toONc2jIgiCIKYZpTR4PCVKCmG1LAM0Gg0oHYeqx3DHceKw9BDGGPgNazdkYD2da4yCKQiCIIgBsEqRDVMXQqBWr2E0DubQ2mZd9zwPjGcyUyit7HxfzmCMhuM6cB1bBtjo7hKIotcJgiC2LT5z6Zc2anubQxbQWoFzhmq1CqU0GGc2PJ3zVHFK4NVqNY7CYBBS4vHHH4cf+NBKgwuem3RFEARBbNusWfP0Ru9DK1vv0BgDz/OgtYaKFJRSCMMAjUY9Z/qTruvaPH8AtNLYZedd4EgHRph0trCwTqyuB6YsFgRBEEQvkswUjUYDjuMiDEOMj4/b6VFKw3U9O5cqm5TWdVxorcEYh5DWXmiMwfjEOJX4IAiCIKYdxjgc14UfBHAcB/PmzQVjDI6UqQ8rF0wRhiG4EHaildIQXGCoPAQpZVoPxBiT24ggCIIgpoJ1NQGu4yIIAgRhgBUrVqb1D8MohBAcjuOk28gkI0UYhvA8D2vWrsXE+AQ814MjJQDAxE6uZrLzqCjyj5gqnufhsssugePILd2VbZYwinDaqaej0Whs6a4Q2whhEEAKAdeVWLRoUZqRQkoJIST8TAZ1yRhy0RXlctk6uWBg4jIfNmEt+aGITcN9v/3Nlu4CAeDe++7G8/Z7wZbuBjFD+MylX+oYOPHxMy9sWTZ37myccdoH+t6/gfVVhVGEer1m61TFYeumyYInAUBwnqbRCAIfBnY+VTa1hqGyHwRBENsMnYTOx8+8EJd8+tyN3r+IJ/lyJuC6k9nTAUDpfO0qDsA6tKQNFSyVhqCURhiGMLwpTVKfGMpmQQzAZz59CflAtzBaa1xyyWVbuhvENoTrelBaoVgsoFKpQGttAykMILjItZUqUiiUCohUBCEFwjCAMQbl4TL6mdJrTYL5ZaR5EYPw3e9+D9/97ve2dDcIgtgMJK6kDRs2wGiDiUoFQRCAxYEUSisIKRFW6+k2PIxCcM7AGQcD4LouCp6HykQFgrN+RNUmPCWCIAhi68TAK3gQnKeVhaVw4LpuOiE4gY+MjIBxDgOrGjUaDZu91nWgle6Zy4+0J4IgCKJfsnWnVKTBucCaNWvsRGDBUa/X4bouomjST8UD36pcDAxGG4wMj6BRb4CBwaXiiQRBEESGuXNnb9T2NqrPwHU9Ox2CIU1Ka7SGlE48l2rSTyWTDbWxSQEnKhM2QS0MYEzf0X4UQEEQBLH1M0gIejekEJBSQGuNlStX2mzqUoAxwPd9RCqjUbGmibye50EpBUc6YIyTB4ogCIKYdrQxcD0XjuOgWCwAAIIgghA2XF2bTFLaJCyYMTvRqlarW9tgrE0RBEEQxHQTqQhaG2gVolQqAQCM1oiiCFEUQcrJTDWy4BXSUvSu48L3fVu0ijEopajMB0EQBDHtBL4f+6QEwjAEYwzSkRBcwBhb9iOB1xt1Ozs4zkKhtYLv+9iwYT1kJjyQIAiCIKYTKUUc5efllruuDVtP2xWLRURRBAAIoxC1ag1SCkSh2CjT3/0P/CH9vTkYY7pMiu2CPMhcOXU21X2abroF98zUPhPETOQvf3lwsx9TGwNuDMIggOAizi8r06g/W61DpXIJALhWGoCBiiIwMAyPDKNQKNiktEZDZ158He9kY0kqCmd/iJlHu/s0E+6Vif2n7X4IgpjhcFuI13NcGK1Rb9Sxfv2GXBOldK5iBwcDOBcQUgIMMNogCiNs2LABUnQvu7CxA0N2+5kwABIEQRCbCQOo0AZOFAo26k/HIqFQ8JAVLzwKIxijAWPAGUMYhqjX6xgbHQMXvM3eY0iuEARBEFNEOhKRVnBcFzKuRec4ElwIKKWhsqY/MMBxXLtCaxSLRRSKBSitcg1bmIb6VKRFzSw2tQmtkylxppgUCYLY9PA4LV8QRSgUi9BKwcSqlGAcSkXwPC83DnFjTFrAymgDKSW01iiXyyCT/5ZhWxu0ybdEENsOSa4/A42GH6BUKmH9hvXQWiOMQkgpUatVwdikRY9LIdGo18E5B+M2zboxBlpNT+AEQRAEQeSIS304jkAYhJBCQggBAwatbdo+6WYm/GqtUXBL6Ve867pgjEMj2mRJaZ/pAjCr8WyKc3mmX59OdDuvrfWcCYJoA2Nper5IRRmXgwHnDGEYQWcn/CqloI1VubTSYGDgjMFxHARhsEXOgSAIgtg6UVqnskZrba15zP7OAESR9VEFUZhuw13PjSda2VogfuCDcYZqpZrugCAIgiCmC8asQFLawHVdrFmzBpxzCCFhtJ3wa3QmKS3nHDCA4zqAMSgVS1CRgoGJ61QRBEEQxPTAGYMxAOcMUggopVAoeNDaTpMyMAjirBXpNkEQQBsNpRTAGCrVKgwMisUiek2WsrWqusy1IgiCIIgmjNFpflkVRfB935r/jIKUDgpeIVdiSgphcywJIeL/ObiUiKIIQgAMGpwxW5vKaFh3l0WA2ZohBlaXIwiCIIguaAYIzq0GpQ2Gh8qYNWs2ABNX8jAIwjCXcIIDBo50EIXWceW6LmQstACgV+VEitYiCIIgBsVxXQRBgGq1iqefXgtjDMIogtYanuciCicTTsgoihBGIYrFAgQX4JyjUq0AiMMHjYHRALiOtSqgp/SK6beMPUEQBDGzuP8Pv0O9Xu+7fbFYxPNf8MKe7ayJz87TLZfLkJLD8wrgXKBYKKBRqyMMwpzskI7jWHWLMRij0ag3ILhAtV6D4zrpLOLE9Nfst0rCCzt1iCAIgnjm0Y/QmQoCtpq8UgrKaPgNH9WqjTL363VEKkKkIuyz777pNjyJ67MmPAbpOFBKYXRkFIEf2IlY2pb8sIETk8JHaQUpJDgFVBAEQRAD4LkugsCHVgpz5syB1hpaaziOi/JQOZdwggdhAAMTW/MMCoUCisViHNMuOh4EAAkogiAIYko0Gj68QgHVWg1r1qxJo8gZA6q1KrTK+KiAxERnoI3B+Pg4gihEo95o2XE70x8AG/mH9oEVm9v8N8jxKBCkP8jXSBDEdKFgAAYIKaCCCLNGRlEsFsEYSyP9BBeo1mqYHW/DVaTAGINSGlJIjI6OIgptnj+7UW+tiTFGg/5WDAkpgiCmi2Q88VwXxmjUajVEUWQFFecwxsBxm6L+CkVbWVEIAaUiRFEIpVVcb6q7kEoEFAkpgiAIYhDqjTo4EyiVSggCH0opO2cXDIwhP48qDEMYra2UYwxhEGJseBZ0pGEMg+EMOhZYzcEUxpjU7PdMgYQqQRDEloEzno7BhaILA4MwVBgaKkMIAR2nUPJ9H9kEfjwp62GMAQPAOMOG9evAGEMYRYDprlU90wIqyIxFEASxZcgqNjbKz8B1PRij478VGONwXQ+VSiVtK33fh1tw4oYG9XodhaJnE9NqDQMNMEAD4MkYP4BSYtikFpMKiWkSFu26MZDGxOLJZ0qDxSfXSZDl9ktaGUEQxJRIYxoM4EgZCycW+6gEtFKIwhCloVK6jRRisoqiNhqFQiFOs66tr8om8ut64GeyOU0pDSH4M/ocCIIgnmmEYQg/8KG1wVNr1kwKsDgiUGR9VDltx1ihIx2JIAxQnah0OkaOqZrTZoJw4DwfsZgEh8yEvhEEQWytGCBN27fLzrvEZaUYOOPgnCPyJ6P+OGNIa9RzweG6Lmq1GjzXg1fwugohzeyPYQA4s2a+Ds0ZAGbyPxwM0GbyZwB03L5ZoJAPiiAIYubjui6iKAJg8MQTT9hs6hl3jFf00rY8iiIwbudRGW1Qr9WhlEIYhagnk35jWWA1jcE7xBgbxK3V5z6tMy6LMdZkSdoQQRDEzMb3G/DigomOY+MkVJwkHQxoVKtpW54kpeVxfRDpSHiuhyiK0slXeXOYyTi++ov409p0jA5M9gUMbgps3i7Z13RpVWQCJAiC2DQUi0UYY9JaiMYALE7dxzkHl07aViply87bNDmwyQA9F0oraKUA2JD1dqoUT6socijoTFRfUzvObGl7xEKFtxEkPcreZ9P4tBMeUxUo2X1mM2x0y7aRNW+yrUiONV9fEtIEQUw3iQIwe9ZsGIM0ExJgXUBGG5tCqZLRqFwnzlDLrDRT2pb6KBQKYILHEYAdBuwp5ICb6T6kRCNrDrAYlOka5LPXq5PwHOSaZrXOdhpoP0KquR/ttNiNuc/TuS+CIGYejDEMDQ2hWq2AcY56vQYpHTDBwThDEAbwSlkfVZyhNhkMhBAYHhmGMUDBLeR2PJOYaf1pZrr6l/XDdav9NdV9b6xA7rZvYNPdp+k0784kZlp/tmV63YuZPgbNdBzHQalYQq1WxejoWJo93SafYFBRJtdfvVaHcEXG9GUHmCAI4HrWRmhDuHX+xnS5R1lzWNZMpuOQiqyRr1PbLL3MclNNittun8k5bopEu+3Or50209QgDWZhjNlryPLXLVnWsl9tWs4j2wcppFXDm0JdkjbdzJqJ/zL9m3FE2iaWNMz2O6kQ3Ymk0mfLBHA2+YwYY1rOz27Xes4Do03LeTTTz7XoRsco2Db762ShGMTUPFV/73SYszvto9M16Pd4jDForfsWDO3u2SDnZ+LIM8547kOx7T0D0uewn+u2sX1rt69u2/W69luSsbExGACe66Faq0IpBaMVjDEIwgCuLKZtuXQceJ5nqy1GCiMjo1j39DpEUQjpOB0j/aYStNBrm+n8ujfZJ2iKtDeNJUKsd4KKTueaNS/2mrc1lXldWaHbaVtjDCIVpSWhs/1K+95rgMmcn27+kMm06XTfky+n6abf5zIZAGcS7a9T/9s33+9uZt5ufZjqh1+nY7Sa0/s/r81RZqZ5/0kF2uT3bttNaaya5sCvZxJJMV4woFarotFoYPbs2fA8D0YbSClRKBSh1eQ2PArD2HnFAQYUPA9DQ0NwHAeCC4AN/qAMcttM5meqtPfbTFumppb9JoEnvR5QnV3P8kJHaw0RazTdSApYMt5bcOT7mdE6slptXEUzaTMojPP8PUuEYYf2/d7bTn7Q5jbG9Ddw9LO/pH03eo1ByTU2aNOvTAxS2/6wJh9kG+3OwHR9jtset2l9S9usxtsDxnl6jjo2zehuxzMG7R7UZrN18g61bpt5dtNOtN3lRpGLNs4cu1lztz+2383nbd/lzHkxDNTXjR33cjB0Pf6msBBNlaR78+fPR6QURkZH00jzpIdaK5S8yaxJMlLKxq9rDakNxmaNQRsNz/WgjYZW2s4KHuBJMbZGSOf1HS5YpyCG3Fd+U/ukXbvf2+2zUz+agwj6GcRtNGMPMloNS6+j/V2pqLfpyRjoeGCJF9j/ug1emZcuFSZJdzL3MTXFJvtOVpn2Ly4ARFGUS20y2aa9KS4RYVkF17R5PLJprLKCL4k4tX1MPhA6P16D3L++zCIG1m6O9poXYzYAyT4LdoDlPPv8Ie17u2Ob3HXLX8MkdFcpNfl8tzHxGsNazLdNJ5Dub/IemJasLNm+GWavvTY2D6bSBkJwREp1fu6z7oO2/cyYijPXKD2n+Dk1MGDtjjGgsOroSohfw9z1yPQz/3WSuD2QBpvxXNRy5ryylpceI0On9e3uL9DpY7zLGJt5tyc/jEXelLkFtDljTGqmZAZwXBd+GIBznuZbjcIIggs8sWoVdt17bwDxPCqtjU1AawyGh4fTGcOOdOAH/pRMfM2d25TSvFkwbcpj2hdc9L3vpJ0VSEh9gElfe2kHmxLGWNqvhESgdjLfOI7Tsnzw43buT/NPVnhxnszfm+xfklVlsv+xYNmIe59/noBmIWNNhsmyScHEGJoGsaRPpu3yfvrRzTeTzH2cynd5s0Uge07NPmF7LNZyHp3MuUByX3jPZ3hKWn2mr/2az5ofh/7fX515XjfmPg5mum8+r0FNuO22TZ6l5ndrS8CAuD/2XsxfMB+Afc6EEFi3fh2KpUkflaxMTKA8MgQWq6/lchkrV66CEALlcjlNazEQmcEjdR4O4Ddopp3psflCZ/0ym4pk34lWoZTODFI2u0cykDb3bbJtO7NI+xeg3/PppmH03jZvgsn3tbWtUlHPJL6DvAR28OMdz7VZU540n9qHWkoZT05PXt7EHDMpyAZNOtx879r3eXqfs15fzu0ElhXIqqNm1LzPdsfIXtd21yl7rZvp9JwAkwFYnZ7t7P479a0dSV+TfXZ+z5q367zPQd+fvKDs3taYxOyZ/5jqdM/s+rw2lPzepifo9pHSbvtBx8gzTj8t/f0zF1868PpOcM4BxtDwfUghUB4qQ8fZkbTRKBVLGJ47Z7J9kqk2eyKVygSkFCgPlVCZqNhojClK380htTuZDKebSe2o/UsrpWg7SLd7ebIPSz8vcqe/7b56972Vzl/D7QaBhHYvWPbFtX6k/lJtTX7Z9TBjtDlewqTvg7U9ZvJBMQjdBGan9bYvU3vukgF2kH5Omo43VmBmB9B291t0FUa96NSm+Z7bj6BO55+936bp/mf8WvFHyaAM+v7YD9L+tmunZXM+XUE8vZ+3TfHhfsbpp+UE1KAwxhAEIebPnw/XccE5x3bbLci1qTfqmD13bvo3ty+ItYEbGJTLw1i9ejUcx4FWGo1aDYJNplJqPmCnjmR/39y20H7V427bZ2lrx2/6qp58+NoP7vltWwe1fvs6ffOoej/k1rTUu112gJBSxoNJ923yAj0f/djpo6PZFGWd3KbpJ89UtJ9OvsusubEdUzULJaVmOm/fXhPvVwsBOve5t0awaaIis6bHJEim8/mbzDvd+hwAk8JjUF9Oy5H6uJYb+3HQv6Wk90dqt+XZY2X95HmfeXcSLalT217rO1Gv16BUhEhFCMMI5XLZ9klwRFGEglfAcLmctpcjIyMouSUwzVAsFK3DNIpsBIY2mKhUkJSkypqJGGMwrNWW3Q+dTqr54vVjBui1z3770o+vqN/+tD5g+QFh8oXqLOg7DdCDmFCTAbAfwdHuWM0mi87Hmvy936/8dh893bTids9FMoj2+8wMMrC36+ukGaW9eTNrfu73GNbJzbv6orRWLUE3WV+ivdeTxeeS9e18TJ3o5m8anO4mqWZ6PS+JttTsH8vWkms2W04OyMlHpGm5b8k17GUe3tQuhX5ofgb7Jen3dN7fQUx87YiUwtq1azHkDUEWBf76tz9jv+fti9D3Ua3UAABBGIALkW4jH330X3jooYfAGFAqlbDddtvhT3/6E/784J/BmMD/efGLrPkkflmyJFpY/Bem4tQdnNavqm70atccqr0xD6TN9ICWF8oegzUJq6kdZyoDYHLfpuuDInm5s6uztvDk672fAahTv9p9tPQSAJ1MkoNe6uwg12nbTv1p/njqNVG1m38uMY/1et6Te2yM2eQZQXoxKRCmb5+dtOJ2z19mbfphPfk/kB2jkmskpWgxxSWC0b7PU/dxEq1IKdHwfVx51Regwwhjs0ZgjEKtVoPW1qQNMLzokMw22223Her1BjzPhSMdFApFLFiwAKtWrUJlvIL169cjDdHt4kvoNohMRSNot4+8Oc/kBsdex+3EIP3p9eWeDCrNfeg2YOednBw6O8ttI5jK133/++YA7MPUjv60sLxzt5dZOfsh0ckk0ixYOgmJXpqV3Y6D9UgT0MsCkOwHMF0DZib7nv/Y66UF5bfv/i70Irv9IJaM/HEZGNO5e8AYQxSpgXxH/Vhcej3bSUDN5HoGzjtr8s3nZD/u+psvmd2uF9363I/LYSaQ+Kemolkl57R61SrMmT0bHAxz583BjjvuiPHxcYShQhAE4FzktuNcCAjOwcDiulQRisUSyuVhFDwP69atS82A3YRUJ5/QxlxsO3A3D0q6b7v5dPvHsj6UdgPpVM41bzvWPfu8MSbOqV6P7GlZLUFt9HXNDrDdTCvtzFmdzqN50aRGlc8C0on8NWo3oA1wgsgLnt7aJVqOabfrHOI9nQNZct7NJsV+tksGlXwo9+Yh29dsn7Na8SBBKknk7lSsQ52uW/L3ZPh/++039n72er7b9WlLYIzBypUrwThHsVhEsViII6ltMJpSCl6xkNtGDo+NoVGrp+ahIAgwMjKMer2O8fXjWL9+PRg4AA6Y2Hmd/WLiDNCdna4bc0GUUn2FFk+HDXmQL8l2D0TyFZYs7xaWmz1W8xdi8nuvL/BOfevUtt0++zFN2Xb5MO/EP9ArWrGTNpP9Gu5llmzWxhO/RDKQdLpOyXLrc1VwXTc2KXQ/Vqd+d7pOnawFgwwYnbSDQQaedvschOZnJdlPL+xzkA80SbQnu27wMaCTptr83mSvT2fN2UAImaZDyq9r3Xc/WmzybPXSzJv7n51v19yPfvbTi0Guc6/3txsb46My2oBxjlUrVqbvf6k0lDFZ27yhw8PDue3k+MSE7bhWkExCComhoSHE9j5Uq1Uw3vn7grFus+I3jn4dwIPe4HbO016+j34egvyg1alN/0EKg/Qj+WrMvkDNtIs+7Jfsvcg6sQcl+WKdFH79fbUbY1qElF0HtPOPJpdAKQXHkVAqajENdjrWIMs3Nf1+QG0KM1EyT6sdnZ7FxC9qzGS2kfwcov7fpalp/63vdCdNL9+2/2Mmvquk6SDXv5/xbLrodj6DjD+9BNOggisIQlQqFQCA53nwPDcVVMZY5Wd9tZLv7+7PeU7cYLKM+6xZs+DsLwwqAAAgAElEQVR5BThS4v+39+bRlhzlneAvInK/976tSlUlqVQqgUqFhEGSxSKhzYABsRi7DdjtM54Be7rbY097aPr0zPHxmZl/ZsZ/+Mzpc9zTPZ5zGsw6MG2mR2DA2AbcskECbCwhsIUoLaUq1aLa3nKX3DNj/oiIvHHzZubNe997UomuT+ep3svM2CO+5fd9EZHnOQb9PoAcIJObf3VTl3KAcgIKccK3+qkiHYaZBadVmdPldOVn5bL0/IB2e2vK9WoDHZXrXv0cUwu3Km29hlhNlJKJ/U/t6rkYM2ijdTYtEELGvruquuppdSagf69rwlVFjfPQtfD29WxLAvqiGvxVP5f138tKVlV/tmGcec6nAgHmEVpNEF+qXbNQLnPSup1sh+iTKtQAU/3Uro7TVnfTOi+3r+7Z5Ji0nwuije14jiqnjpc1UVOa8rsyTyzvN6tL+1JQHEVIkgS2YYIyhpWVNTBmIkt5gVwc2H9gIg1dXlmRwkcycYPBsmwAHJSJA1HPnDkDYHyg6dSkaGxv+85oa+E0dbB4N7lXoIxdA5haYHq55XQ6nNc0+M2LZbxYq9qoNsqOy6lt4lzUdoG0X6Szn7f5prmMSQVkVh6z5sosa7k+XYvKQq0LddL27Dq1JQXNNlGTBa3no/6tY3B1eVe1R1c0qvZnjdNM7t8SVrSKgG2vjLXxSSuLqC6vOqZeV2YT1Skh8yqy43Fph06U13FTeWqMmmg3rPA2dO6FF0A4FyfKEIJer4c8y8GMsRJz6PDhiTQUgDyoVFpUOUeeZzAMA6ZhwTAMPPrYY6CsHv+b6PTSxQ27t2GwfnLleTbX6dltv508OLVVEvkth+o8HS6YsEhLGxfHadvmv3PUdKNz+SgY9a8uWOogxjZMVVGVgNFDhttSecHOI3zEeE+/a8qjnnnrz4j2sxjpln6bb3VFSFkobUiNWRNCMF2vseJVfi/+rg/HT9P5o15163wR0m8UeClI7JNjsz/8CSBCCI4dOwbGGCzLAmMMju0gjhOEYVTcKG8YxkQ6CgCdbgdpIiL7kjRBnuVwXQ9ex0Oe5zj1/PPIUnmMEp+N4xMQEA7xs0vmpdrNXlePqhMcmjTHNiQ0GFXG9LtJeHJ2XlVpy8EOejn1cFo7xtPWsmCsetHUQXKiDmTi+Vg4lU5FnxOW0kkxo6YpVZX9JPTUXlDq5zPWjdd0+fo5dLW1lAocn7I62pJSsNquLx0WnmcLxKJjpqDouj1IdXnO4/vULUV9TMoWRxuYejt8ahKGnrZe29RDjElzHeogxUXppYD+0jTFsWPHAA5QxtDtdeVZnQw8V+eoGlPpKAB0l5eQ8xxxEounBNizZw2UUDAQZEmKIAwAtB/87dJsOKPa5zCG7aaZaZuBGU+wMTRYxrLbUJ1mXVXfOpiyXKemPNqUMYvyXGneY8dmU56K+VW1VVV30cCRWVTfH/WLuQ0coqcb99vkHGirvTfNAb1OymqZhMna+AGr82xD5Tm3W1QHr5XnerntbfMu158QsW+ryhqvK3u7tAj0V04v8qj3dS3Kb18qeK+OCCHo9/uwbAumacDzPMRxjLQ4xg/Yf801U+koAHhLywAReHgcJ0iSFEtLS7BMA4wxcHA89+xxmaJ6AVFGKzWKspOvPLna+FCq8gDGPqM67HaWJtdUbpqmld+KPGb7yTgX5mtd+9oskrIl0qTJ6zQtNJotLr095buUqqhch/Ip8vPUTX/WJKj13+tgwaryy/OgLdRbBWHWUd0cqspDWWplxYTzyQNV9bGex+qa9Z0oa9KXtigzm4fhl8so+4iqkAN9ztfNkXL91eHQ03UdR8a2s3B4pWZf1ea2Fpu4Hqj+uyqLqS01KbdVvPOlotFwiCRNECcJDMPEvn2Th9FmaY4oT6bSUQA4cPXVCMIASZKA8xxpkhSTw3Fd8DTHX37jG40VqJu0dcJiOxDQ5PPd0QabmVQ7x6cIi53/+BXlU5h83k7LLpPQLisCYKZrvNAZfcD2D+mcl5ohzOYFrkeqKdIFgqJF4Di9XnXpq8rX61D+Xfzd3Mc6Q5p1AsQ8J3/XdXOzdT+/ZQfoEPH25lKTtTuPAUUpkcpq/TdNfKzqufBF7R7PejnQDx5/XLiGiIhl6HjCvZQmCUajEXLOcdNNR6fSTagMp0+dBpF3/FimhY2tDVy4cBEXzp3H86dPIU0SGMQs7q5SpBgooQQ846CEIpfwEWPGFCbeRhvRF1/dpk7xbD6G0iz06v+e9MfQ2rzK7UnTFIZhFMJCb1c5vX6xmWGwCQGjTmdvwwT0vtI36daR0DazSu2/esFV3Y1EpjZ4thVqdXcLzUOT91HVz4kqRqYsQv3w0u0IXzV+Vb6gNnd56f+2UTAUtYUj2xAh1fNN3/tWHi9lQdZFrSrlt8p6GgevTPuey+tmVr3r76Sab79T2SopE2MG6pRA8WjSytcRprYK/bwwaFN+lwN9+ctfRuj7MAwGy2Q4dfp5jIZDjEY++v0+PK8D13Wn0hWC6trrD2N1eQXXX3+9uOXXtDAcjXD69Cns27cP65ubeO74cRw5ehQ852J90OlBUL9TyN3pfHqyNzEkHe5SpE86tVlXaKzVcE8dNU2QqglZp+VWLdCqPFXdFcMq91GVqT+e4HnR3nEQQXM7VdryaQ/zCDdCBMZvGKxxwU+XzeUVH+3uLpt1oV4VFQpRxVgpBio0+ur0gpGOFQClxeuCkpCxJTGr26qE9dgizuaCD8v1LK+rOiZLiL6doXqsqi70rBJEep+U26feKR21vj4EYu7WKYQSfVHQY87ByeyAIH2TbfX6m9yfNw/pc6Y8x8rljKHI8ZU+1UK5vryq9VOlwDZZ2epb9a48Hu0VnReXfvu//U1QEBjMwOkzZ3D77bchz3OsX1pHGIagllWZrpgdrzxyBGmawvcDBH6AIAxhOSaefe44+v0B0jTBj/7hiXEYZ0v/xU6T2qy7y8W0plkToQlCqp6w1X/XQSp68TvVJ2ohzrvg6zaIlklBVG0X0fj8tXoaM5rGr6ACRSit3vStGHpbn1tTfYRVXK/ENFHb7/RxqquqshCbQrD1MxHVJmLF+IVSQaVvrbk+6rqROlq0P0U9pq2XcZuqg0PadGNZ+M0ifT5eLnyoLe02f55FI9/HYLCFZ48/jSNHXoEw9BGGPuIkxNkXXoC71KtMVwgqx3FAKUWaJsh5jjRNYBgMyysrMAyGpW4P1113HcIgEJpFccBiKeCg5cnZuhZQh/XW+bwWhWXqNJmy5lJXrq5Rlb+rCpdXTK+sLekMoa48/Xug/mZdgJeEVX3ftFmLqn+rtLpZVAUdVlGT1lo1L5rPFJzMs4n04uryLc/HWb6q8vd6G9pAtTqCMKmxT5+8Ut2mKot+Mv+q/i7/Pb0tQo2/2PQ/Pt9uOmKwjBQ01XM7Gv5s63581JZeZh1VrZt54NPd4Pmz4LuquabaXbV+JtMufgv1TlHgi/umnnnmGSwtLYExhjiOkec5LNPEvn37KtNN2Ns33nILtrb68H0flFKEowi3HH0VNjY2cO6Fc2AmxTNPPw1WMaiUjKP+9KvtZ0WcNTHqnSKdCeh1Lj9v+tHrOq3V8UIL53wavizDVeP8qiOQZsGJk4yETC2YeoYgIJJ5mIUSqGWaZw/PPGVNMufpd/rvuiIwZu7jNIQDFOJYrzqhOIuqP6ljBNVzpqm9+r/686YDjZvWzCKQapkmw+rFdoUmptlmPuljSghFmufIIWA/Pa82JOpWjUbo60HvxzIfElDx7E222xWueh6zlI5ymipFvpoHTSs7iiaV8Hqe82JRx/GwsrKCa665BmmaIss40jRHFCUgxnSUpaKJ0fM6XSRJDNMwkcQJOOdYWVnF2bNn0ev14Fg2Tj//PABSnGKhGpyXJvPikMn2BFeVhVR+v8gAlTFqfaCZDM1XC2OezcZVMEWz9jytfbclcbV8Xlm/JirvEhd57c5BqDrNaprSnlW4txiH6W/Uv5xPLvR5+0/LdaIPlVZbV8dFSQnfcRnjPOvWGqVkAtJcZC2VfZP6iehtqKnNhEBu8JwF5dbDdzqMqStRql/U1SiTFsbYyiJEnao/CVU39VXdXFmkf9spSPVWUllhmzXHZik3LyZZtoUnn3wSd997L9I0K36SOMFP3X57bboJDuR6LkajEba2ttDt9WCYBtIkQZ7nWF1bRZpn6HaXcObsGezbv78uTwBiX5XowNmdqF8w14YWFTZAvRa7EzQPfFCVdrcYP+djuGIRAbNbx2AtLijGNOuA3+I50QXfJISlU9txmLbMLx9/RVnITFoWs9tXFiLKL7xI8IueTvXTIhZfud7btRqbrNZ5SFcKXoxtGrOgwcudNje3cOrUKTiWhSAIkCYJkiRBEASw7OpACqBkUQHAnff9DLb6GwjCEQjhiOIA999/L06efA7+YIQ8y/CDx74PJrXzrOJsrklYalLbLHeumMgM+mkIOnxWJgE5VZ/BVlfGTpCu3ei/q3eLmtKTmnGbOkz7cmaRgnIWPc9spyzlNs92kjgZ/0yWV98XTcKuqb5kqoztk85MyzByld9pXP6kf3HMQOsDKqq0bn1+t2HC5XQq5FwRpbRyM24VlYVS3bhsVzhUrePy86o66eXrwTe7TWU05XKwkuYhz/Pw+te/HmEYIssypFmKzc1NpDP8uVOYjtf1MBqNsLa2hiAI4LouTMvCj3/8Y9x77/3gHNi/fz82L61jaW0VwLRzVRGhRDvvTz2fXCgiHDafYCK6dlqeHCrcu2lsqhfvYgJM1wD1Sdw0oRchHVKcJgJAXVWflyK9qtOU+1BYEC/NhG4Hey6uXFTdL1ZV1iTzm/5+EmprV0eVhpDyHqPFLSw15+rKaxKaZUtv8rOxb6ecR/UcqoYd60jfSlFOp94D1XusVLbV75rHtWzt1YXjK0GtlD09//J47ba10kb5U3OrbnvKdhXjWbSxsY5nnn4KcRy3+t6yLLzyxiNYXV2r/eZ73/tbfPCD/yX6gwHiJMFgMECSxHjt61/XmPeUoCKEoNNbwqVL6zAME6ZpIwxCPPDAO7G+vgHP9bC2uoK/+7vv4a1vfxsynstBrt7tL7fGApCLQ95XNaaqxYjiez2/pr/LQqRqcc2zyNX3CiJaVBjNcm5XaXNVi0bUQywy4WtqPpxVMU5dESh/P4Zd27dN76NZbZvlB9oJZiAY0uTVKG0YrG6hKH+T7r9rgoj1R7ow0De76k2uUpSarGERZZdVflOu17wWoC6AdQFfFhRqbkynr58zyneklAAlmNpEyc2zvHThxPmkksL5+AqfMuyo6lKFfpQt1XmoaR2otVzFv/Sy69qpLqIsz6EJg2AORXyetf7sM0/j6KtuRq+31Or7waCPYz9+Ene87g2133iehyiKxQG0SSqP7YvR7XYb8670kL7x3vsQRTHACZI4QZZxrKys4YknnkC/30fH87Bv/1UY9LfkZtZxuLpOhBBQqdkom4rs0vEhhNApYblzeS/GyNt+Py0gy+VPp2lTJXVyh+74n2ay7dpGKZvYPzIvHNSWVP3qu3Eyv3Eo8mSZbQJGlJY9top0BtuUrh7yqbMImvYgTWvKOfKcV+7z0tPUWfNV6EYVTVock3UfR3WSiWdN0Z56H6r8t+9Lmn4mjqGahhDHCl39toaq9VkOFplnCRNCZyii2/epv1TQXhRFrYUUAPR6S4iiqPGbX/mVX0EQRMizHP4owNbmFpxOZ2betfGAy8urOHfuHPbt2wfDNDEajfDa194KQgiiMMT+q/bhO498G+941zuR5pkApzRpT6XQyCGZWw2U15ZmpStH9eikM9cybFfOv8kSq8pznjq+lKTaoKLC5mUgeZ5NaK47sXiqYBtVvyoor2wR68yorNW2GQvF2BQcJHwqDGV4ui7tPFTu77LPqa5dZVJMehYctkgdJ/OY/Bdo4w/a+flfNc30o9NUW/XDaBcZm8nxaC9c2l3quHP9UmVZtVVMtkPffuRbRZmu6+L2n26G6upofX0dlBIMRj6iKEIUR7jvZ+6fma5W7bzuyCuR5RmyPC+E0MGDB/Gtb30LjuMgCkLs2bMH586dKzSYcrh6rguPiU2k9dpu2albNnHLQqduoKoslSYqQ3BV+Ze/V2HRKl0VVW2CbcKkOa8XAroPZRGqEgxtadbtxvNcVNnEkJUDvgp20vu63N/t4NX6uiifxrxQ6HZJL78NCc2fF3NlEZiqPKebyp41rvr7ebc9tKFZsLGaC+oUEJ2Bb2etTG4aHtelrUBoWi/bEVzlNs7yXSmkabtoE+ccb7r7Xrzp7nsXFlKAQGaiKEIYhCCEwPXaWWy1td+zZw9GowCB7+OFF14AwJHEMe6446dx7vw5EEpx4OoD+Pzn/xjQjs/X/9VJCavxga67A9Nth+omYdWzNM3m2ltyudC8VoeiaThyfjijzQKf5Ufc7Z31CjraKdLr23Rzctu8tuMrLSt9yjdVdUTVPP3cZMFtV+i37Zuq7+bZq1Vu73ZhbRXSv1s0j8WXpmlx3uhuoD6PPfq91t8mcYzBYAAQ4MzZs7jl9p9qla6R0x4+egQXLl5AnucI/AB+EODIkSM49uNjMA0DaRTjgbe9Az/84Q8mD5nMeUmqaxaSFFbi71n3JFWfJDEv6RbSLDNZOdfHC3k6ZFV35M5DVdZh2QpsYpRt/EJVZdT32/Q9P+Xf9bz0PMYw2bhes5jSdq/7HgeHzJdO98Poz+aZF+XxaqvQjA9Qnvx9XlJtV32oQ1SzSFiL483eqj8mT1SZrJeqqwrcqaNmhkzmHiu9zm2e181bvY1VVFYg6pRO3R9cFQzRzEdmuwfaKB86r6xCkeogct1XuF2FoepEc0VBELTOJ05iRGGE06dPo9vrotNpDqJQ1Cgpbjp6FDknSNIEFy5eRJal2Nrawt333I1jx44hSVLYpgmTmej3+yAAMnDkZFKo6McrEUJAOcBA5A8VR9zM5cCchOmqfi9/rw9oWQCVvy0LprLQqvM3TOZRtg4m81COZ5milN98/VBXlypBP5l+co9NXbqqMqsOdS1bQtP1m33eW5PAUL6JnUHmpi3LRRUhPZ9q5WPaj5bns/sB0PtbtF0/dUGnpssnRV4cwNi3o/KsmrsqjXrfpByVfYNlYbFof85KVyWwdKJUKFF1Akjf3lGlQIwh0qmSAczfvjookpC250lOrrVq63j6+LGdmtvbgft0UkItSzMcvumm1ulmYldHX/NqvPDCORBCsLGxgSRJsLqyiv6gj7U1ES/f63bwhQcfRJZl4HkOaMcrAbKz+HgSU0aLw2ubcN8JS6zmfS3MWGMVtNWE1fOqE5vl20ZtSr2qZuiq7uOTnyffTdahSpNT5ZSFXFWaNpTn2YTwbLLqJpnndLn1mt7setRZgM1jNNk/bZo+r7DT5/I82qk+nlWabR2TUgJJpzJD0udzGxi6TbX19glLrNnXU85TRQaqdteV2WS9tqHybb3q9/Ez3fKsX6fq2vqx1ST+Ve0uC2GRb/W+0SbSv58e1+Z0TUr49PeTWzUmy9m5028ee/R7eOThb+KRh7851zhubmzi7Atn4XY87D9woHW6mbP70PXXwzAZnnrqKQwGQ2RphuFoiHe9+z34whceBCEUjDL83HvehYcf/hYMxgDp5C1gQBWhg8lBL66vl//NSwKC276fqA6SmpV/20HXo5QANTGrrbqqMW8upk6gtKqaVq7S9MfXYOzQnG5Ni5RXFe23W6cELLLIywxQ/a6E1k74OXeSAZXznO7fWemaBZQidUbjvKTDWVXv1Jpt0x+c86mTMiaVxGplcF5lpSpvlc/8ecza2F7f9wrK3Qm6/adfVwRX3PWme1qnsx0bg8EAN99661zltar1Xfe/GQAwGg3h+z6SJIU/GuL+++6HPxrBMAxkeYq9a6u4cOEcQCa1nTzPp6MAlWah4ex1ESp1FkUZuqjTxsv5NPkbJjXWpslUDS+O/66fUPMwFgVBlK99aKK2zLpKsxsz1tkQW7kuagHrGn9bEv3Xviy9zm2/3W2qm39CMNHC2tCfN83V8nxtQ23nSNMcnLTYyulaVWMmtd1jVW636LOqb4QfrryFoqmdbdZheSP5TkGbev2akKPp9tdHwza1QeQ139qwbRuDQb/194NBH7ZtN35z5swZHLn5ZiwtL7fOF2jYR6VTt9fF4SM34vixp3D1gashIgAT7D+wH1//+tfx1re+FZv9DfS6HTz0tW/gF9//vuK6ek4E7KdEYhlbrYd0KPS9UW1oFnNsejfPAFbtRJ8WppNQESGkiBRsqichkyHkhIwXYrmc7VzpoIRfW8ajJvusMHC9bU0MQrWxSbkow6B1eVSREgLKYikfjVRX96YyFyfhI1JtVHOgTUBOeV5V9W11383Od2xFj/tpVr6z+n07NBYcQkCKPWNlHlHdVl2YTL8bz7G21pYi/bQNPU9V3zrargBTeUwrwPP3+6Jj9YpX3ogfP/mjuY9QaqL19XW85V3vmrsuJAjj1j364Gc/h063g6WlJezbtx+GwXDkpqP4P/7NH+DtD7wdURzDthz8+49+FP/j//Q/iwJkZFgB81V0tIIJU01b0HHm8reztKSq76tIfzfP4msrEPUJPave6nvOUbnZta6c7S6IeSw7YNrPUmXRzhJUbRnGIoJKF97qG91Z3rTO2wrvun6b1Z9lYT+rnybznjwTU82VNsKu2Xoa57GoNTyrjLY0htnGRzqVodGyojZrrehzbRFBpahqzo8VyPaKQlkINVHbcZi3PXqe//DDH+CNd75prvSL0ne/8wje8Ma7FhO283z89p9/L8IwQpZluCjD1k8cP46fe8/P4bG/ewwdp4MwDPGhD34Q//pf/+8gFCKwgk9uBi4TISJs3WRMiwYcRwSWvy3S1JjNbbVUBTGKXe2tjMuJspvyL2tdOhOvS1uGLvSy6tpaBxnMqrtgyu1O0iZk8rggHR4tt7ucT13+Y8ZY359NTdLhTb2ejNEi4ku3WkgLv8msMvWylVArP2+iMtxVJRSq+2G8EXkS1qpPo5eRZdM3HIzzngxCGJen2tIUTDF+txN7hlSb9PmmzzV9/aixbjqaSuVZVhirSM1D9R2lrHJtlcerHGwl3jf7tfX504ZXzfqpavMsviG+e/H3gS4ipIA5BVWn04Hlubh44SJs20EYhhj5wkd1/fWH8eijjyKJIhDO8Y9+/hfwZ1/5iogChBZcUdPBqgHqduBxp4o9BG13WLfVDDkfTzJxbE/9Yq4rp0xVzEu+Kd7rTuRyFnUTT9VzEYin6ntdu2yayFVltNXw9PrW9RWACWZU9U19mHA16aeF1Ndv+lmTlVRHsyzw+g2+5eCKMqOrg5XJ1Nyu6zu9/lUO9FkW0LhtvDiySVlxWs2mrMPdpjKTptq+zOlvx7/PUubKAjvPs4ly1BoU+SgLfSxYlU9a9Gu90FZ12snAhnlpzEtfnDHbCZq7px54z3vAKcEzzzyNixcvwvcDDIYDXH/oEGzLgmmYYIyh63l4/R2vxzf+4mtCq8szEVSRiWsq1E+V9aHC15sWmU7zMGsdXlDZcF4dal3+va2prv+I9o21Pt1qEky6Pr8xM6mG2toyq3KeZeuznH5ycU63cR6ataFxFmyjhHtVFpN9PGZcahd+FTOuGuumeujh1uXns0iMc7kcaNZCdbq6/TZZlk3MsSoLfZYA0ufMZP7l2wgmUmlKY3W+gtFXa/Oz2la1btqS+Fa3MnUre7LceY/50vPTT9VXEOz4wlexvWO2Ej222MW/24NK5yHCxQ8lAqVSPy8XWkikv+3d78alS5dw/PhxBIGPQX+AjY0N3H3fPfju33xXDDCEZnHkyE34y298HaV5P3OMCBFwoBJYk5N3sQ4eL8Qy3DKbYbYVBvVrbFz2+ISFSX9IPVQ2s9iFaJYQ0ZnAolTehzKLyl1MSLVgabKU9Wsmyt/NGutyXoSg8or7NmNSHl+9/Kp3TXnXCdgyNW2pmLQGJvtQT1ce97EiOav0SaVqug3VwT8qIlKN2bzKUBVVQZGLrqMqxZgQNZZ6wNcsX+Hk3zvRzrZECB0LKTK+1eLlQgsJqk6ng3/8oQ8hTVNsbGxgq7+FJE1x+uQpvO8X34dvfOMvxZ1ThMCwTLzi8Cvw1T/5EpDngA7/zYACSdGhVRCVDgdOa5S61lnOF2jrwF5My6sjVa8mB7jOXMuWpp5PGY6bbe1NptWZxk61rw0pJlm2pIvxps19rsOA1VCdrqFvr57lCzPnSTurP/V2VFnvZRrfddUM/TXNLfF8LCD1OkyfID5/5wnrN6tcz01t04X2NDOfrw6q3Omxmw91qfq5nKmeN455pFL+QVAYAKZpbvtoszaU5zksq/6q+Vm0MEja6/XwhnvuxtnTZ7B+8RJeeOEskjTBqdOn8Wu/9iF8/I/+CIQDoT9Ex7Zw+2234jOf+gSyLAZyDsKlo1f7qRNWBqXFz2SwxTjoQv9RRzIRjqnf9Xxn0aITdDJds5ApU/lW0llQjp5nM4OvTlfOY972zivI9ahBnTHWlVsH8+rCoFx+GS6tq3PTc3XdyHw0FrbzWN/lcaii8rXuTd+qd23mTZthm3d856EqeFsvUxeqwHSb64SJmh8ComveDjJZ3jiN/k2VglWuQ3X9Z//MIxjr8qj7VvFISsQBC5TSCcW/11sSh8TuMg0GA/SW2t9tVaZtefNe/ZrX4lU334IwCLG+voGnnnoaeZ7hhz/8e/wv/+v/hj/4N3+ApaUlWLYFRikeeOCd+P3f/33ESVzJpNoMEGU6PHF5UDP2zVt8U332mwq8aCM7VPpyMEFduS9F/+njrJh6W5oUTLNhnHmbp+aeLpzmOQBY5jKXoG+aE+V3VdbTrDrt1BiX+2UnSbQJ0P1MepmqH5S/VIc1p5WY8e969GzbcVTfj+9Dq6rv/Fbei0WiHdr4Q/j71U9ZuFFCcVyR6tQAACAASURBVN3BQzh54jj6W1u7YjVyztHf2sLJE8dx6NDhhfOZax9VHX3+U58Glwdmrq2tYW1tDXmW4zWvfQ1+7/d+D7/5m78F3/cBcHBC8NGPfwwf+ci/RK+3jEwesEQIAQHAag7drCLOOfKKBdS0oLMWl+LVlVVHAvLIUY6AKkN3s/JoO1F0eFMvo2oPULlu5bLmgUKb6rPdPNqUMcvqmqf/yt/P0/+KtrPhuq5Oql5V49aGKGUQwTvbG8/t9s1OUdPYqutJxjBf/Wk1bcqZTtfe6izXdTb0S2UAxvwWKDRkqFxn9a/qF4rma3MAII4jnDp1CsPhAEmSzFWfWWSaFpaWl3Do0OFtQX87IqgA4Ev/7+dx7oVzWF1dhWM7uPbgtYjCCEePHsXHP/EJfOAD74fv+wjDCN3lHp5++mlESYyfffvbpegQmhKDhqVC91XR4gimMk1YEDPCkye+1ZyhbansI9gJ2sm8LjeqgkT0d2LZyQU+owsW6ScRidX+6Km6xb9dejHGeDfn5E7Xn3NeCNVF6rNTafT3TZdmvhRrtCqKkGqnouZkzI8MMj7oe5x+/Hdx4zrPC15awIylC28BgDGGH37/B/j4xz6G3/3d38XFc+fhdTpgjOKjH/33+J3f+R2sr1+C7/sIggD9fh/+yEeS5/hHv/xLO98XOyWoAODzn/kMLl24iNW1VYADh284jDiKcfiGw/jmN7+JvXuvws033wzCCJIkwcj38YUHv4Df+u1/DrvjAaBgHOL4JdLsS6gjvePr3itS15HIN63aOAlbzU6jJv/lLIgW1ZZntalstZVSj/+vIMGGqKj2/SeiTdsw2ab6Ndd9XtJ9jdP+jXE5qqzp8djZ+sxLIuR/nn0/s+aUOFWivaBSCsciNGseze5bfS7t/A3Q82y81QUVLwKPhA++kleCFIeCA9NoU1lIUUKRxDE+/alPwGQm3vqWt6K/1YdpGojjBF/60p/gX/yLD+P8+fMYDPoYjUYYDAaI4wQrq2v4mXe8beF+aKIdFVQA8JX/70Gcev4kut0uOp0OVlfX4Ng2LMvCxuYmnnzyR3jfL30AmxubcG0bjDF86+GHQU0D7373e8EYQy7vtAIASmQwxIxoMEVVWrH+Thdi+ZzzbRZ0V/5mNzTSqkU1a6HN49fQ06g6b6fes+pGgCKwRo3HtO+h3iqrK7NpPHYS9mxLOlxbVy9FsyDOKqqCgueFkuvzzqX1c5k6Z17mVB7XJj8jgeCJwKRiVyeogIqgqYpTgpSQevyxx/Dgf3wQv/FPfx2EEPijEGmW4fizz2JzcxPveOAdOH36eRBCMRj0sbm5Cd/3sefA1XjHu965aBfMpB0XVADw1S/+CU4eP45Ot4s8y7Bv3z4QSuC5Hg4dOoR/++/+LX71V38VjuOg2+1iOBxgz959+Hf/5x/i/b/0S3jFja+cGIRytB4p+YKmGlXSIoBJTaIuXZ7l4BD3zYhEk5pO3YKeeN7O0NpRIpQ0l9lUp4p3BUN9MdtSVRYRGh+hBDyfLXAUVcFWU8W1YORN470Q6W0s/V7An00dzucTqsJvObYAijEtUS73UL0crP9do3pjdueLmuF31Odv01i0Hacq4TT+NwfhwIULF/DJj38CNxw+jDe8/nXY3NiA5zjo9Jbx4IMP4s1vfjM8z8P6xjoICDY3NxHFEc6fO48777sXr7ntta3qsijtiqACgK/9+Z/jkYcewp49e9DxOrBsC9cfuh6+H+K222/H5z77WVx78Brcd++9yLIMYRTB8To4efIkvvSlL+G//qf/BAcOXC0kvTzYdsJZWCOstq/96/DMzh5xspMa6SxGvN288ywvIixfykALJaimX6CS6dZ9vx2LdjeDCeZhNtMPUdkHdWU0WWpXrKXqftiNvmk75ov45Mp/cy1qsuCf2meDzU189nOfQxQE+MAv/zJGgyGyLAHAwdMM//dn/x/8q//hv8fTTz8NcIg4gygCAJw/dw7v+y/+MZZXVuaq5yK0a4IKAE48dxyf+aOPI0szHD16FHEcwbE9JEmCvXv3Yu/ePfjUpz+JD/93HxZn/DEGf+Rjz949eOzRR/FXf/VX+Ge/8RvYt28/CGW10BAgzgisezcfXRFUu5n3TpEKsMnybOKZIt3aonP4AHTSHc8qr93YHLkT/T0PtHiFpqmuv3ZDULWdj3rwmErDOa9Ei/R/ARQCqrLuOcdwOMSnPvUpnD9zFh/5yEdw8eJF2LaFjfUNrKwu4Ytf/CJ+6pZX49Zbb8fTzzwDzjmiOMb5c+fE5YfDAX7tv/mNudq9HdpVQQUAaZrid//lv8La6hr27NkDZjBkaSaiA10Xt9x8M/7sz/8U/X4fv/3hf47nnj2ONE2xsrIC23Tw6KOP4otf+hI+9MFfw6tvuxWWYyPLs6nBLk8uyur3W8xLesTMS0Oq3LHDXW//7HrtnvB9uVJTFOl2iXMORlnr/Ocby59A4vIYpcu+7Xr95H7Ouv2ARPuWj6PsmhQnpRjVvSvTVGAE51PwcOG7lOesPvfss/jUZz6DA/v34e1vfRt63S42NzdhWRaW11bx3W9/B4899hg+8pEP43vf/S66yyviiLzNDaRpis2NTbzpZ+7HbXfc3tBPO0+7LqgAcZjm5z7xaZw/9wIIGOI4xP4D+7GyvIIojtDtdHDo0HX45Gc+jTfdeRfe+IY3IIojGISBGQw5ANt28bGP/xG8jov3feD9OHDVAWR5jmzq3L5qKLAKDmpKd3mRfk+XdnqCtCgoobW+DSrvMeJQfoj2pRIizmych+Huxrc7RaqfZmnIVXVr0xc71SY9n5ein+rq0ubbKo2/KY+ypVD1bVO+irbTR23nRZWgUjRtkdV/q76fGb1cExAGGVxWjm6e9DuNA89G/gjf+Po38K2//mu87W1vwysP34AgDGFZFgiAAwcO4Nlnn8UnP/Np/PoHP4Q8zzEYDhD5AeI0xWAwgGmaOH/hIv6rf/brWNrGCROL0osiqBT93ff+Fp//9H9Ax3PheS7yPMeePXuwsrKCKIqwtncPrjt4Lf7w//pD3HfvfXjLW34Wg0EfpmUhl9dwuJ6Lp59+Cn/6Z3+BG2+8Effefx8OXHsNuII+isCL5roQFU2oCbI2UX06VU223dlvoU/GyTezLoIbQ2CqbouFGLcNRde/rYvWK55LH8uLpSTME+JdF5ChFn8dE5mVt0rfBCGW+3I3I0bbfN8mzSKh/m0DVdqkX9TvowuE2eH3k+uwGRZs6UCsS60HPig/E8Z8LS/NCSIij5BlGRgIhoM+Hn/8cTz00EO47uB1uP/ee2EwBsZMrK+vw7IsuK6LZ555Bn/61a/iXe98J/bt34/Tp08jzzLkPEcYRoiiEDznuOFVR3D/m9+8cHu2Sy+qoAIEFPjZj30Sp06eQJpm6Ha7YIxh//798MMAhALXX389kiTGQ//pr3HdoUP4+fe+V1ySlqfIsxxRHGNpZRWj0QhPPPEE/uGJfwAIxZ133YkjR45geXkZjDFhBsuAuKrNpFRruR4R1XohS42GGWxqUu0azcHYi4g5TQubh1S6uauoTgooHwOkXxqo3rVoTyWjroiAK0cHNr2bGXmlThivypM0C6xZ+U4wRi2ysVy2Kmt2phozL/e9rGvbeVnUY84IwyK9XEd6m3ZjTahyWglQZYFowQVTeWE+JbPsD9xJZatKSSr4S02aMAhw4rnn8Ld/87e4dOECDh8+hNtuuw2cc+RpBtu2EIYhTNNGHCd4/PHH8YPHH8c999yDg9ddh/PnzgEAojhG4Pvo9/uglGJpdQXvff8vwnXdHWvfIvSiCypFx558Ev/hE5+BaRpIkhTdbhcZcriOi6XlZfijEa659lqsrqzga1/7Ghhj+IVfeC/W1takFUHADAPgHDmET2B9fR0nnz+Jp546hs2NTRw8dB1eeeRGHH7FK7DU68FwLFBmFJc50pqjEOYNAZ6HyvtcdtOaqNpbc7nQTjn7y2OlcP6q/n2pAwzaRt0tUrfyWOv5qHfqfVvkYF5BVWfxNAV6zJtnG1pkS4EOPdZ9W4eg7LagAhFbCLI0RRxG2NrYxAvnz+GZZ57GiZMnAQ688oYb8KqjR7GyuoYsSZDzFJRSjEYjuI4QMs8++yy+/Z2/gW1ZuOeee+A4Dk6fOV1sTxiNRhj5PsIgwMrqKt7+c+/G1ddcvWPt2g69ZIJK0Vf/5Mt45KGHQKkBy3Xgui7CIMCevXvkviZxUvt1112HHz/5JB7/wffx6lffgjvf+CYcPHgQYRRhNBrCMg2AAL1uD34QwGAMlm0hDEIcf+45PPXs0zj53HMwDAvdXgdX7b0K11x7LfasraG3soxOtwvTsGCaJgCAUgOMGQA40jQr9pmkaSovvhP1L/xFxcVqEkqUZ2xleQ7GxK3FlBKkaQbTNBHHEUzTmsDyMu3GYYBoN6vKwzkF3gBGqXTWjuGjXMVLEAK1/4sSIrGCDBx5EaKqNgxmeS42VBdtELvPTdMo2gEASZIU/TJplVBkWQomr34v8lT7ugqNlwB80mpQIfB1J5AUmrDOOFVb9XYITLN4TwlBrvUpU9AoIcjSFMwwxEnklApLm4/7lRKx7UGM8fg6+7YWH6/R8JMkgWEYxaZ1ZVUpCLAsUJpgx/LfOqPM5Vwrp9O/bap/XVmcc5imiTRNi3IM00CaiL+TNIFlWkizFLZlF/NF3ZqtYE6xBiiSNIHBDBAirgXRlYuquos1QavrSQmyNBNrTPPbEEqKc0AJIUUZlNHieZIklefPlYW5KjPPc+gXKKo6la1ZlX+WZcVJ5eVxUvXLeY44jpFEwpIJggBbm1u4eP4CosjHhQsXMBgMMBwNQAHYrotbb7sVV1+1H1dddRWYwXDp4iUYhoUkTYtrkUzLBCUUW/0+vvYXf4HnT53CXXfeiTtedwcuXryIS5fWYds2kjjG1tYW0ixFGISwPRd3v/k+3HLLqyvnyktFL7mgUvTZT34Kf//9HyCOYziui163iyRJ4LouHMdBHMdYXl6G13Fw9dVX4/Hv/xDHjh3D8vIyPvCBD+BVNx/F2bNnkGU5HMeEYZiI4giZMnvjGExOkn379iNJE8RRIiYRgCRN8aMnnoAfhIijCDkHzp8/j82NDQyHQ+R5jiRJkKQpCMQkzHPB+NIkgeS5AMQCcBwXPM+RZikMg4nTzcGRpVnBFNM0FczFMCB4LgUkU4iiSCxsxpAmCRhjctKLG4LTLBGLhajDM3PJEOg4gkoKC56LylEqGLtazKZhSidyLizTnMK2baRJIg9cFVkYpoEkFodVEhAQeV0A5xx5lkEdK0NEIYUgJJQK3yIXtwULoSkXNSgyLjdXc0wyIs5BGBORSpyDUTp5uy0g7jtTRxPJvA3GkGYpKGFgjCLnHFmWQo0MYwx5loFRhizPYBiGEGpc5EWZduturlz343LULa5joSDOV2OUIc0yQAq5wu8pgy8sSyhASZqAEorA90GpDBTKRN2LC/i0ze3KD8GYDORQDn9OCoWGc3HZoMEYDIMVyo7aUMxl3yqGLsZK98UIv65hGqU2UtkvQtnKswyGaSJNMwHDpxkoE0wxy0RBaZbBsuTai0LZ3zmoIa7egew3x7ERxUlxgZ9QeHJRNhVRcZRSqTCMb0tQwkFMGTE6aZrC8zwhFIWbBnkulEGlgMRRBBBSCE+RdwLLssVQa/5CJYzynMMyDWTyHedKCcpBKIVlmvBHI5i2LQSPyodzOK6HLEth2xaSNAMBYJomDMMQ8zwXa44ZBq699lrwPMeB/QcQRxGuPXgQnu3g4MGD2NzchGEauHTxEro9D2maIstzGKYJCiAMQwAEWZai11vG5sYmDh06hB8f+zG+8+3v4MTJk7j77rtx662vxYnnTgAAgjAAYwxJnGDkj7C+vo6O10EYh3jv+9+HQ9dfPyfnfnHoshFUir7wx/8R33n4YZimCdd1kSSCIadZhrW1VVBKEccJGKVYWVnB0tISsizDD374OM6ePYtrr7kG99xzD+644w6srq1h0O9jY2MD6xsb2L9vH5ZXlhHHMXzfB+ccURTB8zwkYYSR72Pv3r2IwhAcGTqdDpIkRRSGIJTCti2kaQZAHKjZ6/WwubkJngtB57oWgiBEt9uRwoNjeXkJly5dguO4haZJ5KIZDAbYs2cVURTB9wN0u11Ylo00TQHO0e31cPr0aViWhU6ng42NDViWCcf2wAEwyhAEQWGxcWTFoqFSsPW3BiCEwHXFYs6yDMxgCIMAlmXDdR0QShHHMWzLLTS/MAxgmiYoFQKH5xx5nsGyLFDKxLjIE/MZZYjiCOAchmkiiRO4roMoiiSDTgumFYYBXM8DAZHtHqHT7cJ1HKSZYDBZmiJJUhBKMBwMwBjD0tISDCnA8zwXQizPYdt2oZQQEMH8peVrmSaGwxEcx5E+zhyWaWHkjxAGAZbXlpEkiWSeLpIkRpII5SUMQziOU1hpjDEYhoF+v49OpwPDMAAQEClMsjRFTsS5a1meF8qFYZhI0wS27SDLRf/HUQTbtoV1kSSS8VlyPoawbRt+EMCT8x8Qc0kJQUop1jc2sO+qq7CxsQHHcUCk4tPr9eT4iaNv0iTB8vIytra2sLS8LPwUhoFQzmlKKWxL+C8453AcR9QxjgW6EYaFMkakUDEYQxzHci5QjHwfS70ehqMRuLQQhbLmAEChZEVRhDiOBaNMU9iWhSRJQBlDHEWw5JFqPBdWhm3bGI1GsCwLURSh0+kU45IkSTGfARTvKJXKVprC9/0iQm04HIJzDtd1C6UnSRKkaYqlpaWCFxiGgTiOYRhG0QalUDqOU0TAdTodZFmGIAiQJAk6nQ4AIAhDgHN4nocwDGHZNgLfR5IkGA6H2LdvH4IgQKfTQb/fh+d50tqmcEwLvu/DtmzkOcS88ToIgxBJGsMwWKEkuY6Lbq+H9fVLePjhh/HsM8/hxMkTOHToEB54xwPYs3cvNtbXMRqN0O/3RYQfIbi0vo4wCMT88lzEUYx/8tu/hW63++Iy+jnpshNUgNBMvv/o9/HHn/4skiTG3r174Ps+mMFAKUOWplhaXiocvpRSdLodOI6LbqcD2zFx7tw5PPnkk9ja2oJhGLj55ptx8OB1uOWWm3Ho0PVI4hhJkhWLOs9zmBZDEITIsgye607sfUgk44niCIwScC60b8NgSJMcpskQhiFWVlcQhoIBKwtIaXemZWI0GgEQMKDv+1hbWyk0rX6/D9tyYdkWNjc2QSiRk1ZYRGmaotPpFJqm7/vYv29/sQgpo2CMod8fgOc5LNuC7wcwDAbbsmWdOUzLAiFAEAQwDQlvZqlUAmLYlo0giLC0tIQkTWEaFEkqBHae53A9F6ZpIgzCAgYyTQtRFMI0RcirEmSmYRZM5+LFi6CUwut4sEwLOc+RphmyLIXruoUC0ev2AAIYhoBIKWVwHBtxFCPNUnheBwBHFEZwXBf+aIRur4vRaATbdkApQRwnyOS3eZ4JJg+CUGr6OhRmmRbiJAYghX8YoON14LgONjY2xdUzlIi2JAls24JhGBgOR/KCxQy27cBgYg4o05oxA2maFBYcOETwkCH8qZRQxEkCxigcxxFzW4NSDdMsFAbGGEzTRH+rj5zn6PV6iKO4gBUt2yoYrYLM4zgq2uZ5HgihGA4GoIyh43kYjUZFWPZSbwkjf1RY4WmaoSf7lBIqINMsg2VLgRpGsCwB9yVJiqWlHsIwAsBhmlYxRzMJB6p+B4iYcwSIIplHkgoFRQryJBHQYM6FcAiCAJwDnuciiQVcNxgOYVkWDEP0Oc950U+ccwRhAHDA8zxwuYUlCAJkqVC21HoGQSHsHNsBY0zwDNMohFQQhHBdRyguOZdKGWBZQunpdXsCAaEEnudhY2OjUJZ63R7CKMTm5iauueYabG5uIc8zrK6swg98gIvDClzHFQpOKgRwr9cTc4JQvHDuBZw8+TwuXLiA488ex/kLFxGFIVbXVnHzq27GTTfdBEopgiCA7/sYDocFWmBbFuIkwaDfRxRHMA0TYRThhhtfgbe84+2FgL3c6bIUVDqdeO4EvvLgF3D61OlCu+x0PARBWJjUK6urSNMEhmEK3DURGpHruHBdB16nK835DKPhCGfPnsHFS5ewtblVaIm2ZcG2bXR7Xdi2jU6nC4MxOI6D3lKvYAAgHJ2Oh06ni/Pnz8N1O+LQXduC67gFTCisBuDSpUs4ePAggiAApRS9Xg+j0QhX7bsKg8EWPK+DSDK3rc0tuK4HwxCLdnlpGX4QCIiJUMRxhKv2XoX+oA/TtBD4PvxgCM/1BLxkCT9SngGpZHibW5vYs2cPklgwNIXfe66H4XCIKI5g20K4eFIrjaIQhmEJv0OawjAMMCbgLdu2EccRup0uQAhGwyEoY2CUIgxDuK60yoDCr0cJETh8ksDrdIT1IWE9AhFq69i2sKgMA5ZlYXNzEyN/BM/1ZNkpTHO8TcHzPPi+D8MwsLG5WYyfYRhFYDBjDMPhEK7njn2GWYbhcCjGyxOMIMtSxHGMVMJCBmMIowgdz5NQqWD8aZLAsh1wrvauAUmcSN+HAUYpRr6w4MLQB5N+GM5zrKysFNZBHAvhRAlFFEeFf4bKPuwt9ZDnvBDgUSTms1CY4mIzMaW08M8YpoHBYCCtK9EmJQSUpRrHMTodD5xzDPoj2LYJECAMI3Au5nUcJ+A8h2naAq5WUCAVkCwHMBwMYNkmeC6tPEpAqQHwHCN/JPIfDLBn7SphlUWhgIgh2jQajQRqAODA/qsRxTEsy5bworAyoyhCFEboLS1jOBwgzzNh3TGGLBMHBmxt9YVP1TARRiG63S7OnD6DlZVl9PsD9JZ6YJRia2sLOc9AKRMIAiGwTBtbW1uIkxgjydg9zwOhDKORj6WlHi5dvIggDOGPRmCGCce20O12kWZCWPKcwzCFBRZFKbIsxfqldSRJDAHJSSiTCr+YgtCTJEYsLfk8ExDqcDgEgILHmaYFxiiWl1ex1FvC/v374Lgeut0OslTcY+X7PrIsg+/7whLOc2HRS2E/HAwLC3I4GmJpaQn3ve0teNXNt7wovHsn6bIXVIqyLMO3H3kEjzz019i4tF4wEEJpAUssLwvGvrS0BNu2AC600lhCDp1uB3km4CIQYGV5BZTSwoeg8HAFH4VBWDBEdYVzlicSi4bUgHNkeY5Bv19YRowxWJYloSaxiJIkhWPbsG1x/EgSJ/A6LoIgQLfbQeAHgoklwqmZZZm4ullz9IdRBCphw5E/QhzFcBwLrif8eEqjDvyo8G90PK+AXFzPAzgXsI1twx+NQCgkpGeDq2P+0wQEgvkNh0NQQgtoIEmTwk8mXBjS95ZlIuiEEHQ6HfiB8MMkEiIisv6GtGZMS8ByBmNghgHTMISVMhohk5ZjFMfIshSO7SAIw8LHkKVjCywIAziOWziGLcsSDEJCYYZhIJP+FeFHERp+lufIslhazBRJEqPT6Qjmm6XIc+FXM6T/cDQaYXlpGUEYwTTls+EIjusgS4Vl6Mq+FkLCEOUzITiVpm+aBoIggG3bME0T6+sbBVRMqYAclcZvGiZcz0MuLY0oimFJX5dpWqBUj+QDlpZ6AlqjDCN/JP1ohvBdZZmE4MTVGkmcIUkj6QMTELJjO0gzAS9alg3TsORcIMKnxwy5BlK4roOtrS2hPOQZKDHgdRz4fgDHcaRSGMAwDCwvL2MwGGBpqSv8LBKycxwHpmVja3MLpmXCYAbiRKy5JEmQpRk8r4uNzQ14niOsBl/AZpubm/A6HrqdHrb6A9gyKEJB6iurq8IXyBgIgDgJwZgBLvcamYaNLMtg2Ubht4rjGJYprCjbtsEBBL4PwxTKk23ZGA6HYIaYW6aEnBkzQEDFXJMBLVmaAkRYaQpKVWhCEARQAUZZnsN1beTyKLAoEt8NZHh4nAg0gEmlL0lT8DwX/WUYiMJIfhcjSYTLQKFMQRDAtCz89F1vwJ133SXh6pcnvWwEVZn+6j89hMe/9yhOnjghfDKUAoTAsW0BgVFW+EgMwyh8Q67ngskrC9Qi5Zwjl/g1gYDEmMHQ8ToIQiFA0jQtgjss00QUi4mfZxxZnkntykTH84SQC8MiwshxHSRJCn80Qq/XQ5qm4DKk3rRE5N9wNAIhRPjBkrRwJoMAntdBEPhgVGL9EtJR5TiuC0YFjGQwVkAqhmnANEzknCOJJVOWQQuKiavgBSVkwzCUUJaNOIknorPCUPhPKGMwGCv8OSqCSQlncHG3jWGY4DyXMB9HJC0u0zSxsbkJ0zDEGY0qQhBEW/gQvpE0QRIL355lWegPBuh4HuIkFrCQH4AyBse2i/oAAj52XbcILlDBgQTC2jSYgTgOkcuFrQSSHqElIsIIojAuhIdyvFMGZNk4nNmyLAyHQ/R6PSnMAYDLsbDBmGBkaZohzzIkqQi4GQ6HBWNO0wS2ZRf+xVz6UuI4BmUMS0s9bG314di2VDyEoiOgtkT6J0kRBKJ8LQoNoGwMwxqMoT/ow3EsuQ4E1NXvD4sTC8QcFkyXcw7Xc+GPfBgmk/M0LywqEZBBkaXC+lQBMoQQDEfCyjQMA2How2AmTMtCEsewJaRL5by1bQOmYSMIQ9jSN2VaQtASEHmlOpNWhAvf94v1r/xLTEb8KiYuAimE9ZmkufDJRRFsy0KaxaDUFPM5TQq4lnOg2+lgOByKACoib8xVgSiEI8/EvBEQaIZIro84jotDCnI599QcTrNMBlcJZVcEgYigFRX9mmUiwCVNU0RxDEPjUaFEZoSPUdSHMQbGmIByOcfBQ4dw9DW34M677nqx2PGu08tWUOl04cIF/OmXv4Izzz+Prc0tpHEMnvPC2dvr9ZBLB61hGAWskyQJMhkhpDBxg4mJl0trzZa/UxkxZpgSPgMRpjZQROclcSyFjV0IC6WtZXkO0zAKBg7OBf6vrDg52UBQTGJlaSRJIpkVlQEDgvkoiz96bwAABjdJREFUHxPnXDqok8InlqUC90+SBMxgSJNURm2l6Pe3sLy8XASlWLYtfCvSz8U5L2A/5Qgvh9QaTMCBOedIkhimYSLNUnQ6XYxGAv7kHAK+ctxCWFq2LYRKKjRmZjBpYTiFtssoK6Aq5RgnhBRMXUGYcRILnxgRIftJkghh6jhCW5UwIWNMKA259DfGsdCqGYXruhiNRoUyEwS+cOpT0Z9pkoBSswjPV1FxURzAMm1wIqwNBe8owS18IASWaYk5Jv1bKlLPMEwUWx9kmiAICoXBtmz4gY8ivF9arcqSLEK9k7SIGKUSZopjqWBI/9k4CpEJS0FawYP+AIZJwZgBxmjxTaoiNWXUpGmYBRNVCk4QBjANs6hTGEWFlc15LueOAUPOETUepslElCBQIAVifWTIUsHYVTAR1NqiYk5znsG0ROShiO4T88X1XOETI6LtgPDn2o4DLqP4FNqgqFhLEkpUaz6KomItj9cjL+aYQmiyPIHjdBDHkeg1uY5F1Ok4JF2t6yAIJK+xCqtHrSnFe+JYBnNEsYi6lH5kxxZCPopjcNlmEGA4HGF1ZQVet4tXHL0Rb/nZnxVo0U8g/UQIqjJFYYTHH/s+fvT3f48L589hsDXA5tYmer0ewkBoIgq7jeMYjq2ik6g0xd2C+VLKxOI0zSLMW0xACtO0kKWpuIaEi8UhztUDsiwvNL04jtDpdIXjVkYNEqkBKsenaZiFpQUIp3uWZRgOhoXzH4TDcVykSQpmCK3Sth2huUmYSoUSC+bJRGRVmgBc7EcLgqBgOkxGb8VSs1URfCoiTCyoXPo8BDNmhghtZYbwSwlBS2TdAce2ZMSe6AODCaZmWyJi0rQMKcDFXqYs50iTGFnO0fFcJEkqAzEA02CC8UEwr263iyzNkOVpMS65jP7zXE8GTWSF83x8ugJHt9uVUGEo/VU5DEYRBCEMgxXQqSWjFJWVI6DlrPALUEZkeG8E03KQSF+gsszDUAjdOIlh20LYqoAABQuL6E+hcduOI3xkUVxYrp1uF1EYCktIjmsUR8IfxmgRiKKgOA4RwebYMtLSMosQbpVGBfYkcQrXc5FlOaIwgG1boLIfhNIDceWO7QCEIPB94QdeWUEQBsizTPrYWBEsk6RJAbEyygqGy5iB4Wgox0ZsReDI4Toe/CCAZVrSIjThdTyMhqNCiBoyylL4bIiwRrMYURSDUQrTFAw5SZLCclP9K2DSqEAfRJCFaD+RQp8xkbdlC8tO7W90HAfD4VDCl8KPapoGDGbAD4IiKpMxgihSVrAjBamITlZbLrJMbIHwfR9Ly8tIkhhZKgQrz3kRgBHHMVzHEWOcCKuO5wKpSZO0ULBd18XyyjL2X3st7r73blx/ww0vLmN9CeknUlDNopMnTuDM6VN4/sQJnDl9FuuXLhZMT2k6gNx3k+cwDCbwX4w3m6oAAxHKLEK9lZXDGJVWAJUhrjYyuQmwgPQwDttVvyv8XvgUBAM2TQEXqb1kqnwFTamwWpWv53mFBq9C1zk40iQtopiED8WGaRoIw6iAvQTsJxij0LwVjCM0fxEIEBeniShnsW3ZUPujcs6lg19u4JQWjOO4GPkjYWFIH4Va3Epwiv4TkI7az6I0bQVjqo3SSpsGUEBPOc9FGD3PC/zesiwJ3SZF6DyAojzOuVQWGDgAyzTFpmrGEEexvIKdFdoxlYxYQU1ivEwZoRgjy5TVpDaO5hKSFsJLRZ0FYQBHWjci5JhLaCwoLBDP60DtUUuzDJ4r/KWq7irKUs1bteFVKSFpmhb+VtMQFqHwlRBkGWAYtIDKdGtDwNKGEAoqH+l3JUScAacguzzP4LiuEOSl46YoNUTgjIRW8zxFnAgImhIK23YKixIUUsjbEmoETFPVaWzJpWkqN6Qri8soIFm1Jn3fhytD4yljSFIRsJIkcYE4BGFQbAkQYd9yYzgnSOT6FIEOIgJTCR2xHLJCQVCQJDgRyiyfvKBV5ZFnmVD+gGLe5XkOZhIghwzwsBCnMUzTxjUHr8arX/Na3HjjEew/cGAb3O4ng8iFi5v/2QmqK3SFrtAVukIvH/rP0qK6QlfoCl2hK/TyoSu36F2hK3SFrtAVuqzpiqC6QlfoCl2hK3RZ0/8PUnXLzx0S+CgAAAAASUVORK5CYII=;" vertex="1" parent="1">
          <mxGeometry x="588" y="-407" width="139.17" height="289.1" as="geometry" />
        </mxCell>
        <mxCell id="s-xTrpZ6dHBBDTpCUA-W-23" value="" style="shape=flexArrow;endArrow=classic;html=1;rounded=0;entryX=0.979;entryY=0.158;entryDx=0;entryDy=0;entryPerimeter=0;fillColor=#FF8000;" edge="1" parent="1">
          <mxGeometry width="50" height="50" relative="1" as="geometry">
            <mxPoint x="584" y="-302" as="sourcePoint" />
            <mxPoint x="520" y="-302" as="targetPoint" />
            <Array as="points">
              <mxPoint x="557" y="-302" />
            </Array>
          </mxGeometry>
        </mxCell>
      </root>
    </mxGraphModel>
  </diagram>
</mxfile>
